<mxfile host="app.diagrams.net" modified="2023-11-14T14:11:46.709Z" agent="Mozilla/5.0 (Windows NT 10.0; Win64; x64) AppleWebKit/537.36 (KHTML, like Gecko) Chrome/119.0.0.0 Safari/537.36" etag="rFF3DZVU0VTa8cHxYANB" version="22.1.0" type="device" pages="4">
  <diagram name="Camadas" id="1HK-l_Z9VAC4mPoCJMgj">
    <mxGraphModel dx="2074" dy="1110" grid="1" gridSize="10" guides="1" tooltips="1" connect="1" arrows="1" fold="1" page="1" pageScale="1" pageWidth="850" pageHeight="1100" math="0" shadow="0">
      <root>
        <mxCell id="0" />
        <mxCell id="1" parent="0" />
        <mxCell id="Jv4bZsdfLbZqLIm56zJo-30" value="" style="rounded=0;whiteSpace=wrap;html=1;shadow=1;strokeColor=none;glass=0;gradientColor=none;" parent="1" vertex="1">
          <mxGeometry x="20" y="20" width="700" height="430" as="geometry" />
        </mxCell>
        <mxCell id="Jv4bZsdfLbZqLIm56zJo-31" value="" style="verticalLabelPosition=bottom;verticalAlign=top;html=1;shape=mxgraph.basic.partConcEllipse;startAngle=0.6081828002941254;endAngle=0.7934506846033575;arcWidth=0.19;fillColor=#dae8fc;strokeWidth=3;strokeColor=#000000;gradientColor=#7ea6e0;" parent="1" vertex="1">
          <mxGeometry x="50" y="40" width="390" height="390" as="geometry" />
        </mxCell>
        <mxCell id="Jv4bZsdfLbZqLIm56zJo-32" value="" style="verticalLabelPosition=bottom;verticalAlign=top;html=1;shape=mxgraph.basic.partConcEllipse;startAngle=0.4080240501100777;endAngle=0.5931401935198142;arcWidth=0.19;fillColor=#dae8fc;strokeWidth=3;strokeColor=#000000;gradientColor=#7ea6e0;" parent="1" vertex="1">
          <mxGeometry x="50" y="40" width="390" height="390" as="geometry" />
        </mxCell>
        <mxCell id="Jv4bZsdfLbZqLIm56zJo-33" value="" style="verticalLabelPosition=bottom;verticalAlign=top;html=1;shape=mxgraph.basic.partConcEllipse;startAngle=0.20705217294321693;endAngle=0.3909849036975061;arcWidth=0.19;fillColor=#dae8fc;strokeWidth=3;gradientColor=#7ea6e0;strokeColor=#000000;" parent="1" vertex="1">
          <mxGeometry x="50" y="40" width="390" height="390" as="geometry" />
        </mxCell>
        <mxCell id="Jv4bZsdfLbZqLIm56zJo-34" value="" style="verticalLabelPosition=bottom;verticalAlign=top;html=1;shape=mxgraph.basic.partConcEllipse;startAngle=0.007951125628088187;endAngle=0.19063716036293563;arcWidth=0.19;fillColor=#dae8fc;strokeWidth=3;strokeColor=#000000;gradientColor=#7ea6e0;" parent="1" vertex="1">
          <mxGeometry x="50" y="40" width="390" height="390" as="geometry" />
        </mxCell>
        <mxCell id="Jv4bZsdfLbZqLIm56zJo-35" value="&lt;font style=&quot;font-size: 14px;&quot;&gt;External&lt;br style=&quot;font-size: 14px;&quot;&gt;Interfaces&lt;/font&gt;" style="text;strokeColor=none;fillColor=none;html=1;fontSize=14;fontStyle=1;verticalAlign=middle;align=center;rotation=0;labelBorderColor=none;fontFamily=Helvetica;" parent="1" vertex="1">
          <mxGeometry x="198" y="384" width="100" height="50" as="geometry" />
        </mxCell>
        <mxCell id="Jv4bZsdfLbZqLIm56zJo-36" value="" style="verticalLabelPosition=bottom;verticalAlign=top;html=1;shape=mxgraph.basic.partConcEllipse;startAngle=0.8079972691126595;endAngle=0.9911671385559326;arcWidth=0.19;fillColor=#dae8fc;strokeWidth=3;strokeColor=#000000;gradientColor=#7ea6e0;" parent="1" vertex="1">
          <mxGeometry x="50" y="40" width="390" height="390" as="geometry" />
        </mxCell>
        <mxCell id="Jv4bZsdfLbZqLIm56zJo-37" value="&lt;font style=&quot;font-size: 17px;&quot;&gt;Devices&lt;/font&gt;" style="text;strokeColor=none;fillColor=none;html=1;fontSize=17;fontStyle=1;verticalAlign=middle;align=center;rotation=320;labelBorderColor=none;" parent="1" vertex="1">
          <mxGeometry x="100" y="72.63" width="77.8" height="50" as="geometry" />
        </mxCell>
        <mxCell id="Jv4bZsdfLbZqLIm56zJo-38" value="&lt;font style=&quot;font-size: 17px;&quot;&gt;WEB&lt;/font&gt;" style="text;strokeColor=none;fillColor=none;html=1;fontSize=17;fontStyle=1;verticalAlign=middle;align=center;rotation=39.2;labelBorderColor=none;" parent="1" vertex="1">
          <mxGeometry x="330" y="72.63" width="53.38" height="50" as="geometry" />
        </mxCell>
        <mxCell id="Jv4bZsdfLbZqLIm56zJo-39" value="&lt;font style=&quot;font-size: 17px;&quot;&gt;UI&lt;/font&gt;" style="text;strokeColor=none;fillColor=none;html=1;fontSize=17;fontStyle=1;verticalAlign=middle;align=center;rotation=0;labelBorderColor=none;" parent="1" vertex="1">
          <mxGeometry x="391.00000000000006" y="262" width="44.38" height="50" as="geometry" />
        </mxCell>
        <mxCell id="Jv4bZsdfLbZqLIm56zJo-40" value="&lt;span style=&quot;font-size: 13px;&quot;&gt;DB&lt;/span&gt;" style="text;strokeColor=none;fillColor=none;html=1;fontSize=18;fontStyle=1;verticalAlign=middle;align=center;rotation=0;labelBorderColor=none;fontFamily=Helvetica;" parent="1" vertex="1">
          <mxGeometry x="64" y="266" width="28.38" height="50" as="geometry" />
        </mxCell>
        <mxCell id="Jv4bZsdfLbZqLIm56zJo-41" value="" style="verticalLabelPosition=bottom;verticalAlign=top;html=1;shape=mxgraph.basic.partConcEllipse;startAngle=0.8431401935198142;endAngle=0.1564164790945006;arcWidth=0.41;fillColor=#d5e8d4;strokeWidth=3;strokeColor=#000000;gradientColor=#B2F58C;" parent="1" vertex="1">
          <mxGeometry x="100" y="92" width="290" height="286" as="geometry" />
        </mxCell>
        <mxCell id="Jv4bZsdfLbZqLIm56zJo-42" value="" style="verticalLabelPosition=bottom;verticalAlign=top;html=1;shape=mxgraph.basic.partConcEllipse;startAngle=0.5097320323466235;endAngle=0.8231341475143635;arcWidth=0.41;fillColor=#d5e8d4;strokeWidth=3;strokeColor=#000000;gradientColor=#B2F58C;" parent="1" vertex="1">
          <mxGeometry x="100" y="92" width="290" height="286" as="geometry" />
        </mxCell>
        <mxCell id="Jv4bZsdfLbZqLIm56zJo-43" value="" style="verticalLabelPosition=bottom;verticalAlign=top;html=1;shape=mxgraph.basic.partConcEllipse;startAngle=0.17491427705599172;endAngle=0.4901880706003031;arcWidth=0.41;fillColor=#d5e8d4;strokeWidth=3;gradientColor=#B2F58C;strokeColor=#000000;" parent="1" vertex="1">
          <mxGeometry x="100" y="92" width="290" height="286" as="geometry" />
        </mxCell>
        <mxCell id="Jv4bZsdfLbZqLIm56zJo-44" value="&lt;font style=&quot;font-size: 17px;&quot;&gt;Controllers&lt;/font&gt;" style="text;strokeColor=none;fillColor=none;html=1;fontSize=17;fontStyle=1;verticalAlign=middle;align=center;rotation=0;labelBorderColor=none;" parent="1" vertex="1">
          <mxGeometry x="199" y="98" width="100.38" height="50" as="geometry" />
        </mxCell>
        <mxCell id="Jv4bZsdfLbZqLIm56zJo-45" value="&lt;font style=&quot;font-size: 17px;&quot;&gt;Gateways&lt;/font&gt;" style="text;strokeColor=none;fillColor=none;html=1;fontSize=17;fontStyle=1;verticalAlign=middle;align=center;rotation=53;labelBorderColor=none;" parent="1" vertex="1">
          <mxGeometry x="92.38" y="262" width="100" height="50" as="geometry" />
        </mxCell>
        <mxCell id="Jv4bZsdfLbZqLIm56zJo-46" value="&lt;font style=&quot;font-size: 17px;&quot;&gt;Presenters&lt;/font&gt;" style="text;strokeColor=none;fillColor=none;html=1;fontSize=17;fontStyle=1;verticalAlign=middle;align=center;rotation=-60;labelBorderColor=none;" parent="1" vertex="1">
          <mxGeometry x="290" y="266" width="115.38" height="50" as="geometry" />
        </mxCell>
        <mxCell id="Jv4bZsdfLbZqLIm56zJo-47" value="" style="verticalLabelPosition=bottom;verticalAlign=top;html=1;shape=mxgraph.basic.donut;dx=49.33;gradientColor=#ea6b66;fillColor=#f8cecc;strokeWidth=3;strokeColor=#000000;perimeterSpacing=0;" parent="1" vertex="1">
          <mxGeometry x="150" y="142" width="190" height="186" as="geometry" />
        </mxCell>
        <mxCell id="Jv4bZsdfLbZqLIm56zJo-48" value="&lt;font style=&quot;font-size: 17px;&quot;&gt;Use Cases&lt;/font&gt;" style="text;strokeColor=none;fillColor=none;html=1;fontSize=17;fontStyle=1;verticalAlign=middle;align=center;rotation=0;labelBorderColor=none;" parent="1" vertex="1">
          <mxGeometry x="170" y="148" width="150" height="50" as="geometry" />
        </mxCell>
        <mxCell id="Jv4bZsdfLbZqLIm56zJo-49" value="" style="ellipse;whiteSpace=wrap;html=1;aspect=fixed;fillColor=#fff2cc;shadow=0;perimeterSpacing=0;strokeWidth=3;strokeOpacity=100;noLabel=0;portConstraint=none;portConstraintRotation=0;perimeter=none;fixDash=0;gradientColor=#ffd966;strokeColor=#000000;" parent="1" vertex="1">
          <mxGeometry x="198.5" y="188.5" width="93" height="93" as="geometry" />
        </mxCell>
        <mxCell id="Jv4bZsdfLbZqLIm56zJo-50" value="&lt;font style=&quot;font-size: 17px;&quot;&gt;Entities&lt;/font&gt;" style="text;strokeColor=none;fillColor=none;html=1;fontSize=17;fontStyle=1;verticalAlign=middle;align=center;rotation=0;labelBorderColor=none;" parent="1" vertex="1">
          <mxGeometry x="210" y="211" width="70" height="50" as="geometry" />
        </mxCell>
        <mxCell id="Jv4bZsdfLbZqLIm56zJo-51" value="" style="whiteSpace=wrap;html=1;aspect=fixed;fontColor=default;fillColor=#fff2cc;strokeColor=#000000;shadow=0;strokeWidth=1;gradientColor=#ffd966;" parent="1" vertex="1">
          <mxGeometry x="516" y="62" width="20" height="20" as="geometry" />
        </mxCell>
        <mxCell id="Jv4bZsdfLbZqLIm56zJo-52" value="Enterprise Business Rules" style="text;strokeColor=none;fillColor=none;align=left;verticalAlign=middle;rounded=0;labelBackgroundColor=none;labelBorderColor=none;html=1;whiteSpace=wrap;shadow=0;glass=0;" parent="1" vertex="1">
          <mxGeometry x="546" y="57" width="170" height="30" as="geometry" />
        </mxCell>
        <mxCell id="Jv4bZsdfLbZqLIm56zJo-53" value="" style="whiteSpace=wrap;html=1;aspect=fixed;fillColor=#f8cecc;verticalAlign=top;strokeColor=#000000;gradientColor=#ea6b66;strokeWidth=1;" parent="1" vertex="1">
          <mxGeometry x="516" y="92" width="20" height="20" as="geometry" />
        </mxCell>
        <mxCell id="Jv4bZsdfLbZqLIm56zJo-54" value="Application Business Rules" style="text;html=1;strokeColor=none;fillColor=none;align=left;verticalAlign=middle;whiteSpace=wrap;rounded=0;" parent="1" vertex="1">
          <mxGeometry x="546" y="87" width="170" height="30" as="geometry" />
        </mxCell>
        <mxCell id="Jv4bZsdfLbZqLIm56zJo-55" value="" style="whiteSpace=wrap;html=1;aspect=fixed;fillColor=#d5e8d4;verticalAlign=top;strokeColor=#000000;strokeWidth=1;gradientColor=#B2F58C;" parent="1" vertex="1">
          <mxGeometry x="516" y="122" width="20" height="20" as="geometry" />
        </mxCell>
        <mxCell id="Jv4bZsdfLbZqLIm56zJo-56" value="Interface Adapters" style="text;html=1;strokeColor=none;fillColor=none;align=left;verticalAlign=middle;whiteSpace=wrap;rounded=0;" parent="1" vertex="1">
          <mxGeometry x="546" y="117" width="170" height="30" as="geometry" />
        </mxCell>
        <mxCell id="Jv4bZsdfLbZqLIm56zJo-57" value="" style="whiteSpace=wrap;html=1;aspect=fixed;fillColor=#dae8fc;verticalAlign=top;strokeColor=#000000;strokeWidth=1;gradientColor=#7ea6e0;" parent="1" vertex="1">
          <mxGeometry x="516" y="152" width="20" height="20" as="geometry" />
        </mxCell>
        <mxCell id="Jv4bZsdfLbZqLIm56zJo-58" value="Frameworks &amp;amp; Drivers" style="text;html=1;strokeColor=none;fillColor=none;align=left;verticalAlign=middle;whiteSpace=wrap;rounded=0;" parent="1" vertex="1">
          <mxGeometry x="546" y="147" width="170" height="30" as="geometry" />
        </mxCell>
      </root>
    </mxGraphModel>
  </diagram>
  <diagram id="Bwq48ae4i869TdciQpNy" name="Sistema">
    <mxGraphModel dx="2074" dy="1110" grid="1" gridSize="10" guides="1" tooltips="1" connect="1" arrows="1" fold="1" page="1" pageScale="1" pageWidth="850" pageHeight="1100" math="0" shadow="0">
      <root>
        <mxCell id="0" />
        <mxCell id="1" parent="0" />
        <mxCell id="-HsBh42UdJrQpzan-KMW-1" value="Client" style="sketch=0;points=[[0,0,0],[0.25,0,0],[0.5,0,0],[0.75,0,0],[1,0,0],[1,0.25,0],[1,0.5,0],[1,0.75,0],[1,1,0],[0.75,1,0],[0.5,1,0],[0.25,1,0],[0,1,0],[0,0.75,0],[0,0.5,0],[0,0.25,0]];rounded=1;absoluteArcSize=1;arcSize=2;html=1;strokeColor=default;gradientColor=none;shadow=0;dashed=0;fontSize=12;fontColor=#9E9E9E;align=left;verticalAlign=top;spacing=10;spacingTop=-4;whiteSpace=wrap;" parent="1" vertex="1">
          <mxGeometry x="10" y="20" width="120" height="440" as="geometry" />
        </mxCell>
        <mxCell id="-HsBh42UdJrQpzan-KMW-2" value="&lt;b&gt;Google &lt;/b&gt;Cloud Platform" style="fillColor=#F6F6F6;strokeColor=default;shadow=0;gradientColor=none;fontSize=14;align=left;spacing=10;fontColor=#717171;9E9E9E;verticalAlign=top;spacingTop=-4;fontStyle=0;spacingLeft=40;html=1;whiteSpace=wrap;" parent="1" vertex="1">
          <mxGeometry x="150" y="20" width="890" height="440" as="geometry" />
        </mxCell>
        <mxCell id="-HsBh42UdJrQpzan-KMW-3" value="" style="shape=mxgraph.gcp2.google_cloud_platform;fillColor=#F6F6F6;strokeColor=none;shadow=0;gradientColor=none;" parent="-HsBh42UdJrQpzan-KMW-2" vertex="1">
          <mxGeometry width="23" height="20" relative="1" as="geometry">
            <mxPoint x="20" y="10" as="offset" />
          </mxGeometry>
        </mxCell>
        <mxCell id="-HsBh42UdJrQpzan-KMW-4" value="Layer 2" style="sketch=0;points=[[0,0,0],[0.25,0,0],[0.5,0,0],[0.75,0,0],[1,0,0],[1,0.25,0],[1,0.5,0],[1,0.75,0],[1,1,0],[0.75,1,0],[0.5,1,0],[0.25,1,0],[0,1,0],[0,0.75,0],[0,0.5,0],[0,0.25,0]];rounded=1;absoluteArcSize=1;arcSize=2;html=1;strokeColor=default;gradientColor=none;shadow=0;dashed=1;fontSize=12;fontColor=#9E9E9E;align=left;verticalAlign=top;spacing=10;spacingTop=-4;whiteSpace=wrap;fillColor=#F1F8E9;dashPattern=1 4;" parent="-HsBh42UdJrQpzan-KMW-2" vertex="1">
          <mxGeometry x="400" y="49" width="282.5" height="371" as="geometry" />
        </mxCell>
        <mxCell id="-HsBh42UdJrQpzan-KMW-5" value="" style="strokeColor=#dddddd;shadow=1;strokeWidth=1;rounded=1;absoluteArcSize=1;arcSize=2;" parent="-HsBh42UdJrQpzan-KMW-2" vertex="1">
          <mxGeometry x="442.64" y="273" width="187.36" height="60" as="geometry" />
        </mxCell>
        <mxCell id="-HsBh42UdJrQpzan-KMW-6" value="&lt;font color=&quot;#000000&quot;&gt;Pix Batch Service&lt;/font&gt;&lt;br&gt;App Engine" style="editableCssRules=.*;html=1;fontColor=#999999;shape=image;verticalLabelPosition=middle;labelBackgroundColor=#ffffff;verticalAlign=middle;labelPosition=right;align=left;spacingLeft=20;part=1;points=[];imageAspect=0;image=data:image/svg+xml,PHN2ZyB4bWxucz0iaHR0cDovL3d3dy53My5vcmcvMjAwMC9zdmciIHhtbG5zOnY9Imh0dHBzOi8vdmVjdGEuaW8vbmFubyIgd2lkdGg9IjIwIiBoZWlnaHQ9IjE2LjAyMDAwMDQ1Nzc2MzY3MiIgZmlsbC1ydWxlPSJldmVub2RkIiB2aWV3Qm94PSI4Ljk0MDY5NjcxNjMwODU5NGUtOCAwIDIwIDE2LjAyMDAwMDQ1Nzc2MzY3MiI+JiN4YTsJPHN0eWxlIHR5cGU9InRleHQvY3NzIj4mI3hhOwkuc3Qwe2ZpbGw6IzQyODVmNDt9JiN4YTsJLnN0MXtmaWxsOiNhZWNiZmE7fSYjeGE7CS5zdDJ7ZmlsbDojNjY5ZGY2O30mI3hhOwk8L3N0eWxlPiYjeGE7CTxwYXRoIGNsYXNzPSJzdDAiIGQ9Ik0xMi4zIDcuMjZsLTEuMjIgMS4yMkExLjcxIDEuNzEgMCAwIDEgMTAgMTEuNDlhMS43NCAxLjc0IDAgMCAxLTEuMzMtLjY0bC0xLjIyIDEuMjJhMy40MyAzLjQzIDAgMCAwIDUuOTg0LTEuMzgxQTMuNDMgMy40MyAwIDAgMCAxMi4zIDcuMjZ6Ii8+JiN4YTsJPHBhdGggY2xhc3M9InN0MSIgZD0iTTEwIDMuNTJhNi4yNSA2LjI1IDAgMCAwIDAgMTIuNSA2LjI1IDYuMjUgMCAwIDAgMC0xMi41bTAgMTAuNzRhNC40NSA0LjQ1IDAgMCAxLTMuMTU3LTcuNTk3QTQuNDUgNC40NSAwIDAgMSAxNC40NCA5LjgyIDQuNDQgNC40NCAwIDAgMSAxMCAxNC4yNiIvPiYjeGE7CTxwYXRoIGNsYXNzPSJzdDIiIGQ9Ik0xOS42MiA5LjE2bC0yLjU2LS44MWE3LjEgNy4xIDAgMCAxIC4xNyAxLjUzIDcuNjIgNy42MiAwIDAgMS0uMDggMS4wOGgyLjQ3YS40NC40NCAwIDAgMCAuMzgtLjQydi0xYS40NC40NCAwIDAgMC0uMzgtLjQyTTEwIDIuNzhhNy40OCA3LjQ4IDAgMCAxIDEuNS4xNUwxMC41OC4zOGMtLjA3LS4yMi0uMjEtLjM4LS40Mi0uMzhoLS4zOGEuNDUuNDUgMCAwIDAtLjQyLjM4bC0uOCAyLjU0QTcuNjQgNy42NCAwIDAgMSAxMCAyLjc4bS03LjIzIDcuMWE3LjEgNy4xIDAgMCAxIC4xNy0xLjUzbC0yLjU2LjgxYS40NC40NCAwIDAgMC0uMzguNDJ2MWEuNDQuNDQgMCAwIDAgLjM4LjQyaDIuNDdhNy42MiA3LjYyIDAgMCAxLS4wOC0xLjA4Ii8+JiN4YTsJPHBhdGggY2xhc3M9InN0MSIgZD0iTTEwIDcuMjZhMi41IDIuNSAwIDEgMCAwIDUgMi41IDIuNSAwIDEgMCAwLTV6bTAgMy43NWExLjI1IDEuMjUgMCAxIDEgMC0yLjUgMS4yNSAxLjI1IDAgMCAxIDEuMjUgMS4yNUExLjI1IDEuMjUgMCAwIDEgMTAgMTEuMDJ6Ii8+JiN4YTs8L3N2Zz4=;" parent="-HsBh42UdJrQpzan-KMW-5" vertex="1">
          <mxGeometry width="30" height="24" relative="1" as="geometry">
            <mxPoint x="15" y="18" as="offset" />
          </mxGeometry>
        </mxCell>
        <mxCell id="-HsBh42UdJrQpzan-KMW-7" value="" style="shape=mxgraph.gcp2.doubleRect;strokeColor=#dddddd;shadow=1;strokeWidth=1;rounded=1;absoluteArcSize=1;arcSize=2;" parent="-HsBh42UdJrQpzan-KMW-2" vertex="1">
          <mxGeometry x="467.78958791208794" y="100" width="136.92307692307693" height="68" as="geometry" />
        </mxCell>
        <mxCell id="-HsBh42UdJrQpzan-KMW-8" value="&lt;font color=&quot;#000000&quot;&gt;Name&lt;/font&gt;&lt;br&gt;Logging" style="editableCssRules=.*;html=1;fontColor=#999999;shape=image;verticalLabelPosition=middle;labelBackgroundColor=#ffffff;verticalAlign=middle;labelPosition=right;align=left;spacingLeft=20;part=1;points=[];imageAspect=0;image=data:image/svg+xml,PHN2ZyB4bWxucz0iaHR0cDovL3d3dy53My5vcmcvMjAwMC9zdmciIHhtbG5zOnY9Imh0dHBzOi8vdmVjdGEuaW8vbmFubyIgd2lkdGg9IjIwIiBoZWlnaHQ9IjE5IiB2aWV3Qm94PSIwIDAgMjAgMTkiPiYjeGE7CTxzdHlsZSB0eXBlPSJ0ZXh0L2NzcyI+JiN4YTsJLnN0MHtmaWxsOiM0Mjg1ZjQ7fSYjeGE7CS5zdDF7ZmlsbDojNjY5ZGY2O30mI3hhOwkuc3Qye2ZpbGw6I2FlY2JmYTt9JiN4YTsJPC9zdHlsZT4mI3hhOwk8ZyBjbGFzcz0ic3QwIj4mI3hhOwkJPHBhdGggZD0iTTQgOWg0djJINHptLTIgN2g2djJIMnoiLz4mI3hhOwkJPHBhdGggZD0iTTQgNEgydjEyaDJ6Ii8+JiN4YTsJPC9nPiYjeGE7CTxwYXRoIGNsYXNzPSJzdDEiIGQ9Ik0yMCAxSDd2NGgxM3ptMCA3SDd2NGgxM3ptMCA3SDd2NGgxM3oiLz4mI3hhOwk8cGF0aCBjbGFzcz0ic3QyIiBkPSJNNiAwSDB2Nmg2eiIvPiYjeGE7PC9zdmc+;" parent="-HsBh42UdJrQpzan-KMW-7" vertex="1">
          <mxGeometry width="30" height="28" relative="1" as="geometry">
            <mxPoint x="15" y="16" as="offset" />
          </mxGeometry>
        </mxCell>
        <mxCell id="-HsBh42UdJrQpzan-KMW-9" value="" style="edgeStyle=orthogonalEdgeStyle;fontSize=12;html=1;endArrow=blockThin;endFill=1;rounded=0;strokeWidth=2;endSize=4;startSize=4;dashed=0;strokeColor=#9E9E9E;exitX=0.5;exitY=0;exitDx=0;exitDy=0;entryX=0.5;entryY=1;entryDx=0;entryDy=0;" parent="-HsBh42UdJrQpzan-KMW-2" source="-HsBh42UdJrQpzan-KMW-5" target="-HsBh42UdJrQpzan-KMW-7" edge="1">
          <mxGeometry width="100" relative="1" as="geometry">
            <mxPoint x="228.64849816849812" y="160" as="sourcePoint" />
            <mxPoint x="314.22542124542116" y="160" as="targetPoint" />
          </mxGeometry>
        </mxCell>
        <mxCell id="-HsBh42UdJrQpzan-KMW-10" value="Layer 3" style="sketch=0;points=[[0,0,0],[0.25,0,0],[0.5,0,0],[0.75,0,0],[1,0,0],[1,0.25,0],[1,0.5,0],[1,0.75,0],[1,1,0],[0.75,1,0],[0.5,1,0],[0.25,1,0],[0,1,0],[0,0.75,0],[0,0.5,0],[0,0.25,0]];rounded=1;absoluteArcSize=1;arcSize=2;html=1;strokeColor=default;gradientColor=none;shadow=0;dashed=1;fontSize=12;fontColor=#9E9E9E;align=left;verticalAlign=top;spacing=10;spacingTop=-4;whiteSpace=wrap;fillColor=#E0F2F1;dashPattern=1 4;" parent="-HsBh42UdJrQpzan-KMW-2" vertex="1">
          <mxGeometry x="690.0023809523809" y="49" width="184.27238095238096" height="371" as="geometry" />
        </mxCell>
        <mxCell id="-HsBh42UdJrQpzan-KMW-11" value="" style="shape=mxgraph.gcp2.doubleRect;strokeColor=#dddddd;shadow=1;strokeWidth=1;rounded=1;absoluteArcSize=1;arcSize=2;" parent="-HsBh42UdJrQpzan-KMW-2" vertex="1">
          <mxGeometry x="713.67" y="269" width="146.33" height="68" as="geometry" />
        </mxCell>
        <mxCell id="-HsBh42UdJrQpzan-KMW-12" value="&lt;font color=&quot;#000000&quot;&gt;Batch&lt;/font&gt;&lt;br&gt;Datastore" style="editableCssRules=.*;html=1;fontColor=#999999;shape=image;verticalLabelPosition=middle;labelBackgroundColor=#ffffff;verticalAlign=middle;labelPosition=right;align=left;spacingLeft=20;part=1;points=[];imageAspect=0;image=data:image/svg+xml,PHN2ZyB4bWxucz0iaHR0cDovL3d3dy53My5vcmcvMjAwMC9zdmciIHhtbG5zOnY9Imh0dHBzOi8vdmVjdGEuaW8vbmFubyIgd2lkdGg9IjMwIiBoZWlnaHQ9IjIxIiB2aWV3Qm94PSIwIDAgMzAgMjEiPiYjeGE7CTxzdHlsZSB0eXBlPSJ0ZXh0L2NzcyI+JiN4YTsJLnN0MHtmaWxsOiM0Mjg1ZjQ7fSYjeGE7CS5zdDF7ZmlsbDojNjY5ZGY2O30mI3hhOwkuc3Qye2ZpbGw6I2FlY2JmYTt9JiN4YTsJLnN0M3tmaWxsOiNmZmY7fSYjeGE7CTwvc3R5bGU+JiN4YTsJPHBhdGggZD0iTTAgMGwxLjUgMS41aDZMOSAweiIgY2xhc3M9InN0MiIvPiYjeGE7CTxwYXRoIGQ9Ik05IDlWMEw3LjUgMS41djZ6IiBjbGFzcz0ic3QxIi8+JiN4YTsJPHBhdGggZD0iTTAgOWwxLjUtMS41di02TDAgMHoiIGNsYXNzPSJzdDIiLz4mI3hhOwk8cGF0aCBkPSJNOSA5TDcuNSA3LjVoLTZMMCA5eiIgY2xhc3M9InN0MCIvPiYjeGE7CTxwYXRoIGQ9Ik0xLjUgMS41aDZ2NmgtNnoiIGNsYXNzPSJzdDIiLz4mI3hhOwk8cGF0aCBkPSJNMTAuNSAwTDEyIDEuNWg2TDE5LjUgMHoiIGNsYXNzPSJzdDAiLz4mI3hhOwk8cGF0aCBkPSJNMTkuNSA5VjBMMTggMS41djZ6IiBjbGFzcz0ic3QxIi8+JiN4YTsJPHBhdGggZD0iTTEwLjUgOUwxMiA3LjV2LTZMMTAuNSAweiIgY2xhc3M9InN0MCIvPiYjeGE7CTxwYXRoIGQ9Ik0xOS41IDlMMTggNy41aC02TDEwLjUgOXoiIGNsYXNzPSJzdDEiLz4mI3hhOwk8cGF0aCBkPSJNMTIgMS41aDZ2NmgtNnoiIGNsYXNzPSJzdDMiLz4mI3hhOwk8cGF0aCBkPSJNMjEgMGwxLjUgMS41aDZMMzAgMHoiIGNsYXNzPSJzdDAiLz4mI3hhOwk8cGF0aCBkPSJNMzAgOVYwbC0xLjUgMS41djZ6IiBjbGFzcz0ic3QxIi8+JiN4YTsJPHBhdGggZD0iTTIxIDlsMS41LTEuNXYtNkwyMSAweiIgY2xhc3M9InN0MCIvPiYjeGE7CTxwYXRoIGQ9Ik0zMCA5bC0xLjUtMS41aC02TDIxIDl6IiBjbGFzcz0ic3QxIi8+JiN4YTsJPHBhdGggZD0iTTIyLjUgMS41aDZ2NmgtNnoiIGNsYXNzPSJzdDMiLz4mI3hhOwk8cGF0aCBkPSJNMCAxMmwxLjUgMS41aDZMOSAxMnoiIGNsYXNzPSJzdDAiLz4mI3hhOwk8cGF0aCBkPSJNOSAyMXYtOWwtMS41IDEuNXY2eiIgY2xhc3M9InN0MSIvPiYjeGE7CTxwYXRoIGQ9Ik0wIDIxbDEuNS0xLjV2LTZMMCAxMnoiIGNsYXNzPSJzdDAiLz4mI3hhOwk8cGF0aCBkPSJNOSAyMWwtMS41LTEuNWgtNkwwIDIxeiIgY2xhc3M9InN0MSIvPiYjeGE7CTxwYXRoIGQ9Ik0xLjUgMTMuNWg2djZoLTZ6IiBjbGFzcz0ic3QzIi8+JiN4YTsJPHBhdGggZD0iTTEwLjUgMTJsMS41IDEuNWg2bDEuNS0xLjV6IiBjbGFzcz0ic3QyIi8+JiN4YTsJPHBhdGggZD0iTTE5LjUgMjF2LTlMMTggMTMuNXY2eiIgY2xhc3M9InN0MSIvPiYjeGE7CTxwYXRoIGQ9Ik0xMC41IDIxbDEuNS0xLjV2LTZMMTAuNSAxMnoiIGNsYXNzPSJzdDIiLz4mI3hhOwk8cGF0aCBkPSJNMTkuNSAyMUwxOCAxOS41aC02TDEwLjUgMjF6IiBjbGFzcz0ic3QwIi8+JiN4YTsJPHBhdGggZD0iTTEyIDEzLjVoNnY2aC02em05LTEuNWwxLjUgMS41aDZMMzAgMTJ6IiBjbGFzcz0ic3QyIi8+JiN4YTsJPHBhdGggZD0iTTMwIDIxdi05bC0xLjUgMS41djZ6IiBjbGFzcz0ic3QxIi8+JiN4YTsJPHBhdGggZD0iTTIxIDIxbDEuNS0xLjV2LTZMMjEgMTJ6IiBjbGFzcz0ic3QyIi8+JiN4YTsJPHBhdGggZD0iTTMwIDIxbC0xLjUtMS41aC02TDIxIDIxeiIgY2xhc3M9InN0MCIvPiYjeGE7CTxwYXRoIGQ9Ik0yMi41IDEzLjVoNnY2aC02eiIgY2xhc3M9InN0MiIvPiYjeGE7PC9zdmc+;" parent="-HsBh42UdJrQpzan-KMW-11" vertex="1">
          <mxGeometry width="30" height="21" relative="1" as="geometry">
            <mxPoint x="15" y="19" as="offset" />
          </mxGeometry>
        </mxCell>
        <mxCell id="-HsBh42UdJrQpzan-KMW-13" value="" style="edgeStyle=orthogonalEdgeStyle;fontSize=12;html=1;endArrow=blockThin;endFill=1;rounded=0;strokeWidth=2;endSize=4;startSize=4;dashed=0;strokeColor=#9E9E9E;entryX=0;entryY=0.5;entryDx=0;entryDy=0;exitX=1;exitY=0.5;exitDx=0;exitDy=0;" parent="-HsBh42UdJrQpzan-KMW-2" source="-HsBh42UdJrQpzan-KMW-5" target="-HsBh42UdJrQpzan-KMW-11" edge="1">
          <mxGeometry width="100" relative="1" as="geometry">
            <mxPoint x="434.03311355311354" y="150" as="sourcePoint" />
            <mxPoint x="519.6100366300366" y="150" as="targetPoint" />
          </mxGeometry>
        </mxCell>
        <mxCell id="-HsBh42UdJrQpzan-KMW-14" value="Layer 1" style="sketch=0;points=[[0,0,0],[0.25,0,0],[0.5,0,0],[0.75,0,0],[1,0,0],[1,0.25,0],[1,0.5,0],[1,0.75,0],[1,1,0],[0.75,1,0],[0.5,1,0],[0.25,1,0],[0,1,0],[0,0.75,0],[0,0.5,0],[0,0.25,0]];rounded=1;absoluteArcSize=1;arcSize=2;html=1;strokeColor=default;gradientColor=none;shadow=0;dashed=1;fontSize=12;fontColor=#9E9E9E;align=left;verticalAlign=top;spacing=10;spacingTop=-4;whiteSpace=wrap;fillColor=#fef7e0;dashPattern=1 4;" parent="1" vertex="1">
          <mxGeometry x="170" y="69" width="370" height="371" as="geometry" />
        </mxCell>
        <mxCell id="-HsBh42UdJrQpzan-KMW-15" value="" style="strokeColor=#dddddd;shadow=1;strokeWidth=1;rounded=1;absoluteArcSize=1;arcSize=2;" parent="1" vertex="1">
          <mxGeometry x="195" y="132.5" width="140" height="60" as="geometry" />
        </mxCell>
        <mxCell id="-HsBh42UdJrQpzan-KMW-16" value="&lt;font color=&quot;#000000&quot;&gt;Name&lt;/font&gt;&lt;br&gt;Cloud Armor" style="editableCssRules=.*;html=1;fontColor=#999999;shape=image;verticalLabelPosition=middle;labelBackgroundColor=#ffffff;verticalAlign=middle;labelPosition=right;align=left;spacingLeft=20;part=1;points=[];imageAspect=0;image=data:image/svg+xml,PHN2ZyB4bWxucz0iaHR0cDovL3d3dy53My5vcmcvMjAwMC9zdmciIHhtbG5zOnY9Imh0dHBzOi8vdmVjdGEuaW8vbmFubyIgd2lkdGg9IjE2LjUwMDQzNDg3NTQ4ODI4IiBoZWlnaHQ9IjIwIiB2aWV3Qm94PSItMC4wMDAzNjMwODkyNjA2NDUyMTA3NCAxLjE5MjA5Mjg5NTUwNzgxMjVlLTcgMTYuNTAwNDM0ODc1NDg4MjggMjAiPiYjeGE7CTxzdHlsZSB0eXBlPSJ0ZXh0L2NzcyI+JiN4YTsJLnN0MHtmaWxsOiM2NjlkZjY7fSYjeGE7CS5zdDF7ZmlsbDojYWVjYmZhO30mI3hhOwk8L3N0eWxlPiYjeGE7CTxwYXRoIGNsYXNzPSJzdDEiIGQ9Ik0xMC40MiAxMi4wN2wxLjA0IDEuMDUtNS40NSA1LjQ4LTEuMDQtMS4wNXptLS44My00LjE5bDEuMDQgMS4wNS03LjM1IDcuMzktMS4wNC0xLjA1em0tNC4xNi0uODVsMS4wNCAxLjA1LTQuODggNC45LTEuMDQtMS4wNXoiLz4mI3hhOwk8ZyBjbGFzcz0ic3QwIj4mI3hhOwkJPHBhdGggZD0iTTguMjUgMS42MWw2Ljc4IDN2NC41NWE5LjcxIDkuNzEgMCAwIDEtNi43OCA5LjMyIDkuNyA5LjcgMCAwIDEtNi43OC05LjMxVjQuNjNsNi43OC0zbTAtMS42M0wwIDMuNjh2NS40OUExMS4xNyAxMS4xNyAwIDAgMCA4LjEgMjBoLjE1LjE1YTExLjE3IDExLjE3IDAgMCAwIDguMS0xMC43OFYzLjY4eiIvPiYjeGE7CQk8Y2lyY2xlIGN4PSIxMC45NCIgY3k9IjEyLjYyIiByPSIxLjQyIi8+JiN4YTsJCTxjaXJjbGUgY3g9IjEwLjEiIGN5PSI4LjQ1IiByPSIxLjQyIi8+JiN4YTsJCTxjaXJjbGUgY3g9IjUuOTQiIGN5PSI3LjYiIHI9IjEuNDIiLz4mI3hhOwk8L2c+JiN4YTs8L3N2Zz4=;" parent="-HsBh42UdJrQpzan-KMW-15" vertex="1">
          <mxGeometry width="26" height="30" relative="1" as="geometry">
            <mxPoint x="17" y="15" as="offset" />
          </mxGeometry>
        </mxCell>
        <mxCell id="-HsBh42UdJrQpzan-KMW-17" value="" style="shape=mxgraph.gcp2.doubleRect;strokeColor=#dddddd;shadow=1;strokeWidth=1;rounded=1;absoluteArcSize=1;arcSize=2;" parent="1" vertex="1">
          <mxGeometry x="320" y="289" width="168" height="68" as="geometry" />
        </mxCell>
        <mxCell id="-HsBh42UdJrQpzan-KMW-18" value="&lt;font color=&quot;#000000&quot;&gt;API Gateway&lt;/font&gt;&lt;br&gt;Apigee Platform" style="editableCssRules=.*;html=1;fontColor=#999999;shape=image;verticalLabelPosition=middle;labelBackgroundColor=#ffffff;verticalAlign=middle;labelPosition=right;align=left;spacingLeft=20;part=1;points=[];imageAspect=0;image=data:image/svg+xml,PHN2ZyB4bWxucz0iaHR0cDovL3d3dy53My5vcmcvMjAwMC9zdmciIHhtbG5zOnY9Imh0dHBzOi8vdmVjdGEuaW8vbmFubyIgd2lkdGg9IjIwLjE4MDIzMTA5NDM2MDM1IiBoZWlnaHQ9IjIwLjE4MDIwODIwNjE3Njc1OCIgdmlld0JveD0iLTAuMDAwMTE1MTY1MTIzMTMzOTIwMTMgLTAuMDAwMTAzMzQ0NDkzMjU0NTUzNTMgMjAuMTgwMjMxMDk0MzYwMzUgMjAuMTgwMjA4MjA2MTc2NzU4Ij4mI3hhOwk8c3R5bGUgdHlwZT0idGV4dC9jc3MiPiYjeGE7CS5zdDB7ZmlsbDojNjY5ZGY2O2ZpbGwtcnVsZTpldmVub2RkfSYjeGE7CS5zdDF7ZmlsbC1ydWxlOmV2ZW5vZGQ7ZmlsbDojNDI4NWY0fSYjeGE7CTwvc3R5bGU+JiN4YTsJPHBhdGggY2xhc3M9InN0MCIgZD0iTTMuMjkgMTAuMDlsMS4zMi0xLjMyLTEuNzktMS43OWEyLjk0IDIuOTQgMCAwIDEgMi4wOC01IDIuOTIgMi45MiAwIDAgMSAyLjA3Ljg2bDEuOCAxLjc5IDEuMzItMS4zNEw4LjMgMS41YTQuODEgNC44MSAwIDEgMC02LjggNi44em0xMy42IDBsLTEuMzIgMS4zMiAxLjc5IDEuOGEyLjk0IDIuOTQgMCAwIDEtNC4xNiA0LjE1bC0xLjc5LTEuNzktMS4zMiAxLjMyIDEuNzkgMS43OWE0LjgxIDQuODEgMCAxIDAgNi44LTYuOHoiLz4mI3hhOwk8cGF0aCBjbGFzcz0ic3QxIiBkPSJNNi45OCAxNy4zNmEyLjk0IDIuOTQgMCAxIDEtNC4xNi00LjE2bDEuNzktMS43OSA0LjE2IDQuMTZ6bTYuMjMtMTQuNTRhMi45MyAyLjkzIDAgMCAxIDUgMi4wOCAzIDMgMCAwIDEtLjg2IDIuMDhsLTEuNzkgMS43OS00LjE1LTQuMTZ6bS0zLjEyIDEwLjQ2YTMuMiAzLjIgMCAwIDEtMy4xOS0zLjE5aDBhMy4yMSAzLjIxIDAgMCAxIDMuMTktMy4xOWgwYTMuMjEgMy4yMSAwIDAgMSAzLjE5IDMuMTloMGEzLjIgMy4yIDAgMCAxLTMuMTkgMy4xOXptNi44LTMuMTlsMS43OS0xLjc5QTQuODEgNC44MSAwIDAgMCAxNi41NzQuMTUzIDQuODEgNC44MSAwIDAgMCAxMS44OCAxLjVsLTEuNzkgMS43OS02LjggNi44LTEuNzkgMS43OWE0LjgxIDQuODEgMCAwIDAgMi4xMDYgOC4xNDdBNC44MSA0LjgxIDAgMCAwIDguMyAxOC42OGwxLjc5LTEuNzl6Ii8+JiN4YTs8L3N2Zz4=;" parent="-HsBh42UdJrQpzan-KMW-17" vertex="1">
          <mxGeometry width="30" height="30" relative="1" as="geometry">
            <mxPoint x="15" y="15" as="offset" />
          </mxGeometry>
        </mxCell>
        <mxCell id="-HsBh42UdJrQpzan-KMW-19" value="" style="edgeStyle=orthogonalEdgeStyle;fontSize=12;html=1;endArrow=blockThin;endFill=1;rounded=0;strokeWidth=2;endSize=4;startSize=4;dashed=0;strokeColor=#4284F3;exitX=1;exitY=0.5;exitDx=0;exitDy=0;entryX=0.5;entryY=0;entryDx=0;entryDy=0;" parent="1" source="-HsBh42UdJrQpzan-KMW-15" target="-HsBh42UdJrQpzan-KMW-17" edge="1">
          <mxGeometry width="100" relative="1" as="geometry">
            <mxPoint x="246" y="310" as="sourcePoint" />
            <mxPoint x="346" y="310" as="targetPoint" />
          </mxGeometry>
        </mxCell>
        <mxCell id="-HsBh42UdJrQpzan-KMW-20" value="" style="edgeStyle=orthogonalEdgeStyle;fontSize=12;html=1;endArrow=blockThin;endFill=1;rounded=0;strokeWidth=2;endSize=4;startSize=4;dashed=0;strokeColor=#9E9E9E;exitX=1;exitY=0.5;exitDx=0;exitDy=0;entryX=0;entryY=0.5;entryDx=0;entryDy=0;startArrow=blockThin;startFill=1;" parent="1" source="-HsBh42UdJrQpzan-KMW-17" target="-HsBh42UdJrQpzan-KMW-5" edge="1">
          <mxGeometry width="100" relative="1" as="geometry">
            <mxPoint x="400" y="250" as="sourcePoint" />
            <mxPoint x="500" y="250" as="targetPoint" />
          </mxGeometry>
        </mxCell>
        <mxCell id="-HsBh42UdJrQpzan-KMW-21" style="edgeStyle=orthogonalEdgeStyle;rounded=0;orthogonalLoop=1;jettySize=auto;html=1;entryX=0;entryY=0.5;entryDx=0;entryDy=0;" parent="1" source="-HsBh42UdJrQpzan-KMW-22" target="-HsBh42UdJrQpzan-KMW-17" edge="1">
          <mxGeometry relative="1" as="geometry" />
        </mxCell>
        <mxCell id="-HsBh42UdJrQpzan-KMW-22" value="Users" style="strokeColor=#dddddd;shadow=1;strokeWidth=1;rounded=1;absoluteArcSize=1;arcSize=2;labelPosition=center;verticalLabelPosition=middle;align=center;verticalAlign=bottom;spacingLeft=0;fontColor=#999999;fontSize=12;whiteSpace=wrap;spacingBottom=2;html=1;" parent="1" vertex="1">
          <mxGeometry x="36" y="333" width="70" height="85" as="geometry" />
        </mxCell>
        <mxCell id="-HsBh42UdJrQpzan-KMW-23" value="" style="sketch=0;dashed=0;connectable=0;html=1;fillColor=#757575;strokeColor=none;shape=mxgraph.gcp2.users;part=1;" parent="-HsBh42UdJrQpzan-KMW-22" vertex="1">
          <mxGeometry x="0.5" width="50" height="31.5" relative="1" as="geometry">
            <mxPoint x="-25" y="19.25" as="offset" />
          </mxGeometry>
        </mxCell>
        <mxCell id="-HsBh42UdJrQpzan-KMW-24" style="edgeStyle=orthogonalEdgeStyle;rounded=0;orthogonalLoop=1;jettySize=auto;html=1;entryX=0;entryY=0.5;entryDx=0;entryDy=0;" parent="1" source="-HsBh42UdJrQpzan-KMW-25" target="-HsBh42UdJrQpzan-KMW-15" edge="1">
          <mxGeometry relative="1" as="geometry" />
        </mxCell>
        <mxCell id="-HsBh42UdJrQpzan-KMW-25" value="Phone" style="strokeColor=#dddddd;shadow=1;strokeWidth=1;rounded=1;absoluteArcSize=1;arcSize=2;labelPosition=center;verticalLabelPosition=middle;align=center;verticalAlign=bottom;spacingLeft=0;fontColor=#999999;fontSize=12;whiteSpace=wrap;spacingBottom=2;html=1;" parent="1" vertex="1">
          <mxGeometry x="36" y="120" width="70" height="85" as="geometry" />
        </mxCell>
        <mxCell id="-HsBh42UdJrQpzan-KMW-26" value="" style="sketch=0;dashed=0;connectable=0;html=1;fillColor=#757575;strokeColor=none;shape=mxgraph.gcp2.phone;part=1;" parent="-HsBh42UdJrQpzan-KMW-25" vertex="1">
          <mxGeometry x="0.5" width="32" height="50" relative="1" as="geometry">
            <mxPoint x="-16" y="10" as="offset" />
          </mxGeometry>
        </mxCell>
        <mxCell id="-HsBh42UdJrQpzan-KMW-27" style="edgeStyle=orthogonalEdgeStyle;rounded=0;orthogonalLoop=1;jettySize=auto;html=1;entryX=0;entryY=0.5;entryDx=0;entryDy=0;" parent="1" source="-HsBh42UdJrQpzan-KMW-28" target="-HsBh42UdJrQpzan-KMW-17" edge="1">
          <mxGeometry relative="1" as="geometry" />
        </mxCell>
        <mxCell id="-HsBh42UdJrQpzan-KMW-28" value="Retail" style="strokeColor=#dddddd;shadow=1;strokeWidth=1;rounded=1;absoluteArcSize=1;arcSize=2;labelPosition=center;verticalLabelPosition=middle;align=center;verticalAlign=bottom;spacingLeft=0;fontColor=#999999;fontSize=12;whiteSpace=wrap;spacingBottom=2;html=1;" parent="1" vertex="1">
          <mxGeometry x="36" y="227" width="70" height="85" as="geometry" />
        </mxCell>
        <mxCell id="-HsBh42UdJrQpzan-KMW-29" value="" style="sketch=0;dashed=0;connectable=0;html=1;fillColor=#757575;strokeColor=none;shape=mxgraph.gcp2.retail;part=1;" parent="-HsBh42UdJrQpzan-KMW-28" vertex="1">
          <mxGeometry x="0.5" width="50" height="44.5" relative="1" as="geometry">
            <mxPoint x="-25" y="12.75" as="offset" />
          </mxGeometry>
        </mxCell>
        <mxCell id="2LFG2Z00pIzY_CNGf6HN-1" value="" style="ellipse;whiteSpace=wrap;html=1;fillColor=none;strokeColor=#FF0000;fontColor=#333333;" vertex="1" parent="1">
          <mxGeometry x="571" y="237" width="232" height="174" as="geometry" />
        </mxCell>
      </root>
    </mxGraphModel>
  </diagram>
  <diagram id="4bhy4xZdvxXFH1s4OPbm" name="ETL">
    <mxGraphModel dx="2074" dy="1110" grid="1" gridSize="10" guides="1" tooltips="1" connect="1" arrows="1" fold="1" page="1" pageScale="1" pageWidth="850" pageHeight="1100" math="0" shadow="0">
      <root>
        <mxCell id="0" />
        <mxCell id="1" parent="0" />
        <mxCell id="Wjcd3CaOWyucsq4Gkk6I-1" value="" style="rounded=0;whiteSpace=wrap;html=1;" vertex="1" parent="1">
          <mxGeometry x="14" y="1" width="820" height="620" as="geometry" />
        </mxCell>
        <mxCell id="0DWsPQYIQsgb9rgHiLBQ-1" style="rounded=0;orthogonalLoop=1;jettySize=auto;html=1;exitX=1;exitY=0.5;exitDx=0;exitDy=0;entryX=0;entryY=0.5;entryDx=0;entryDy=0;edgeStyle=orthogonalEdgeStyle;curved=1;" parent="1" source="0DWsPQYIQsgb9rgHiLBQ-3" target="0DWsPQYIQsgb9rgHiLBQ-14" edge="1">
          <mxGeometry relative="1" as="geometry">
            <mxPoint x="204" y="451" as="targetPoint" />
          </mxGeometry>
        </mxCell>
        <mxCell id="0DWsPQYIQsgb9rgHiLBQ-2" value="Extract" style="edgeLabel;html=1;align=center;verticalAlign=middle;resizable=0;points=[];fontSize=18;labelBackgroundColor=none;" parent="0DWsPQYIQsgb9rgHiLBQ-1" connectable="0" vertex="1">
          <mxGeometry x="-0.356" y="1" relative="1" as="geometry">
            <mxPoint x="-44" y="25" as="offset" />
          </mxGeometry>
        </mxCell>
        <mxCell id="0DWsPQYIQsgb9rgHiLBQ-3" value="" style="shape=image;verticalLabelPosition=bottom;labelBackgroundColor=default;verticalAlign=top;aspect=fixed;imageAspect=0;image=data:image/svg+xml,PHN2ZyB4bWxuczp4bGluaz0iaHR0cDovL3d3dy53My5vcmcvMTk5OS94bGluayIgeG1sbnM9Imh0dHA6Ly93d3cudzMub3JnLzIwMDAvc3ZnIiB2aWV3Qm94PSIwIDAgMTA4NS4xMSAxNDAzLjc5IiBzdHlsZT0ic2hhcGUtcmVuZGVyaW5nOmdlb21ldHJpY1ByZWNpc2lvbjsgdGV4dC1yZW5kZXJpbmc6Z2VvbWV0cmljUHJlY2lzaW9uOyBpbWFnZS1yZW5kZXJpbmc6b3B0aW1pemVRdWFsaXR5OyBmaWxsLXJ1bGU6ZXZlbm9kZDsgY2xpcC1ydWxlOmV2ZW5vZGQiIHZlcnNpb249IjEuMSIgaGVpZ2h0PSI1LjIwODMzaW4iIHdpZHRoPSI0LjAyNTk3aW4iIHhtbDpzcGFjZT0icHJlc2VydmUiPiYjeGE7IDxkZWZzPiYjeGE7ICA8c3R5bGUgdHlwZT0idGV4dC9jc3MiPiYjeGE7ICAgJiN4YTsgICAgLnN0cjAge3N0cm9rZTojMzc3NzUzO3N0cm9rZS13aWR0aDowLjgxO3N0cm9rZS1taXRlcmxpbWl0OjIuNjEzMTN9JiN4YTsgICAgLmZpbDMge2ZpbGw6I0ZFRkVGRTtmaWxsLXJ1bGU6bm9uemVyb30mI3hhOyAgICAuZmlsMiB7ZmlsbDojMzc3NzUzO2ZpbGwtcnVsZTpub256ZXJvfSYjeGE7ICAgIC5maWwxIHtmaWxsOiM1NUE0N0U7ZmlsbC1ydWxlOm5vbnplcm99JiN4YTsgICAgLmZpbDAge2ZpbGw6I0UxRjlFQztmaWxsLXJ1bGU6bm9uemVyb30mI3hhOyAgICYjeGE7ICA8L3N0eWxlPiYjeGE7IDwvZGVmcz4mI3hhOyA8ZyBpZD0iTGF5ZXJfeDAwMjBfMSI+JiN4YTsgIDxtZXRhZGF0YSBpZD0iQ29yZWxDb3JwSURfMENvcmVsLUxheWVyIi8+JiN4YTsgIDxnIGlkPSJfMjE2ODk5OTc4OTE1MiI+JiN4YTsgICA8cG9seWdvbiBwb2ludHM9Ijc1Mi40MSwwIDcwLjczLDAgNzAuNzMsMTQwMy43OSAxMDg1LjExLDE0MDMuNzkgMTA4NS4xMSwzMjcuOTMiIGNsYXNzPSJmaWwwIiBpZD0iWE1MSURfNTZfIi8+JiN4YTsgICA8cG9seWdvbiBwb2ludHM9Ijc1Mi40MSwwIDEwODUuMTEsMzI3LjkzIDc1Mi40MSwzMjcuOTMiIGNsYXNzPSJmaWwxIiBpZD0iWE1MSURfNTVfIi8+JiN4YTsgICA8cG9seWdvbiBwb2ludHM9IjAuMjYsMTI2MC4zMiA5MjMuOTYsMTI2MC4zMiA5MjMuOTYsODIyLjA2IDAuMjYsODIyLjA2IiBjbGFzcz0iZmlsMSIgaWQ9IlhNTElEXzU0XyIvPiYjeGE7ICAgPHBvbHlnb24gcG9pbnRzPSIwLjI2LDEyNjAuMzIgNzAuNzMsMTMxOS44NCA3MC43MywxMjYwLjMyIiBjbGFzcz0iZmlsMiBzdHIwIiBpZD0iWE1MSURfNTNfIi8+JiN4YTsgICA8cGF0aCBkPSJNMTc2LjE0IDExMzYuMmw2OC41NSAtOTguNjkgLTY3LjYxIC05Mi4xMyA1NS42MSAwIDM5LjM1IDU0LjQ5IDM2Ljk3IC01NC40OSA0OS41OSAwIC02MS40NSA4OC4xOCA3NS4yIDEwMi42NSAtNTYuMDYgMCAtNDYuMzYgLTY0LjczIC00My45MyA2NC43MyAtNDkuODYgMHptMTk4LjE1IDBsMzkuNjIgLTE5Ny4wMiAzLjI4IDAgNzIuMDEgMTI0LjI1IDY3LjkyIC0xMjQuMjUgMy40MSAwIDM5Ljg5IDE5Ny4wMiAtNDMuMyAwIC0xNi4xNyAtODcuMTUgLTUxLjIxIDk0LjE2IC0zLjA2IDAgLTU0Ljk4IC05NS40NiAtMTYuNzYgODguNDUgLTQwLjY1IDB6bTI1My44NSAwbDAgLTE5MC44MyA0NS41NSAwIDAgMTQ5Ljg2IDc0LjM5IDAgMCA0MC45NyAtMTE5Ljk0IDB6IiBjbGFzcz0iZmlsMyIvPiYjeGE7ICA8L2c+JiN4YTsgPC9nPiYjeGE7PC9zdmc+;" parent="1" vertex="1">
          <mxGeometry x="34" y="331" width="80" height="100" as="geometry" />
        </mxCell>
        <mxCell id="0DWsPQYIQsgb9rgHiLBQ-4" style="rounded=0;orthogonalLoop=1;jettySize=auto;html=1;exitX=1;exitY=0.5;exitDx=0;exitDy=0;entryX=0;entryY=0.5;entryDx=0;entryDy=0;edgeStyle=orthogonalEdgeStyle;curved=1;" parent="1" source="0DWsPQYIQsgb9rgHiLBQ-6" target="0DWsPQYIQsgb9rgHiLBQ-14" edge="1">
          <mxGeometry relative="1" as="geometry" />
        </mxCell>
        <mxCell id="0DWsPQYIQsgb9rgHiLBQ-5" value="Extract" style="edgeLabel;html=1;align=center;verticalAlign=middle;resizable=0;points=[];fontSize=18;labelBackgroundColor=none;" parent="0DWsPQYIQsgb9rgHiLBQ-4" connectable="0" vertex="1">
          <mxGeometry x="-0.5457" y="1" relative="1" as="geometry">
            <mxPoint x="-26" y="31" as="offset" />
          </mxGeometry>
        </mxCell>
        <mxCell id="0DWsPQYIQsgb9rgHiLBQ-6" value="" style="shape=image;verticalLabelPosition=bottom;labelBackgroundColor=default;verticalAlign=top;aspect=fixed;imageAspect=0;image=data:image/svg+xml,PHN2ZyB4bWxuczp4bGluaz0iaHR0cDovL3d3dy53My5vcmcvMTk5OS94bGluayIgeG1sbnM9Imh0dHA6Ly93d3cudzMub3JnLzIwMDAvc3ZnIiB2aWV3Qm94PSIwIDAgMzA0NS43NiAzOTQwLjI1IiBzdHlsZT0ic2hhcGUtcmVuZGVyaW5nOmdlb21ldHJpY1ByZWNpc2lvbjsgdGV4dC1yZW5kZXJpbmc6Z2VvbWV0cmljUHJlY2lzaW9uOyBpbWFnZS1yZW5kZXJpbmc6b3B0aW1pemVRdWFsaXR5OyBmaWxsLXJ1bGU6ZXZlbm9kZDsgY2xpcC1ydWxlOmV2ZW5vZGQiIHZlcnNpb249IjEuMSIgaGVpZ2h0PSI1LjIwODMzaW4iIHdpZHRoPSI0LjAyNTk3aW4iIHhtbDpzcGFjZT0icHJlc2VydmUiPiYjeGE7IDxkZWZzPiYjeGE7ICA8c3R5bGUgdHlwZT0idGV4dC9jc3MiPiYjeGE7ICAgJiN4YTsgICAgLnN0cjAge3N0cm9rZTojQTg0ODM1O3N0cm9rZS13aWR0aDoyLjI3O3N0cm9rZS1taXRlcmxpbWl0OjIuNjEzMTN9JiN4YTsgICAgLmZpbDMge2ZpbGw6I0ZFRkVGRTtmaWxsLXJ1bGU6bm9uemVyb30mI3hhOyAgICAuZmlsMiB7ZmlsbDojQTg0ODM1O2ZpbGwtcnVsZTpub256ZXJvfSYjeGE7ICAgIC5maWwxIHtmaWxsOiNCRjYxNDk7ZmlsbC1ydWxlOm5vbnplcm99JiN4YTsgICAgLmZpbDAge2ZpbGw6I0ZGREJENDtmaWxsLXJ1bGU6bm9uemVyb30mI3hhOyAgICYjeGE7ICA8L3N0eWxlPiYjeGE7IDwvZGVmcz4mI3hhOyA8ZyBpZD0iTGF5ZXJfeDAwMjBfMSI+JiN4YTsgIDxtZXRhZGF0YSBpZD0iQ29yZWxDb3JwSURfMENvcmVsLUxheWVyIi8+JiN4YTsgIDxnIGlkPSJfMjE2OTAwNTM0MDY1NiI+JiN4YTsgICA8cG9seWdvbiBwb2ludHM9IjIxMTEuOTIsMCAxOTguNTMsMCAxOTguNTMsMzk0MC4yNSAzMDQ1Ljc2LDM5NDAuMjUgMzA0NS43Niw5MjAuNDQiIGNsYXNzPSJmaWwwIiBpZD0iWE1MSURfNTZfIi8+JiN4YTsgICA8cG9seWdvbiBwb2ludHM9IjIxMTEuOTIsMCAzMDQ1Ljc2LDkyMC40NCAyMTExLjkyLDkyMC40NCIgY2xhc3M9ImZpbDEiIGlkPSJYTUxJRF81NV8iLz4mI3hhOyAgIDxwb2x5Z29uIHBvaW50cz0iMC43NCwzNTM3LjU2IDI1OTMuNDIsMzUzNy41NiAyNTkzLjQyLDIzMDcuNDEgMC43NCwyMzA3LjQxIiBjbGFzcz0iZmlsMSIgaWQ9IlhNTElEXzU0XyIvPiYjeGE7ICAgPHBvbHlnb24gcG9pbnRzPSIwLjczLDM1MzcuNTYgMTk4LjUzLDM3MDQuNjIgMTk4LjUzLDM1MzcuNTYiIGNsYXNzPSJmaWwyIHN0cjAiIGlkPSJYTUxJRF81M18iLz4mI3hhOyAgIDxwYXRoIGQ9Ik0xMDM1LjgyIDI4MjNjLTIzLjIsLTIzLjgzIC00Ni42NSwtNDEuNDggLTcwLjM2LC01My4wOCAtMjMuODMsLTExLjQ4IC00OC44LC0xNy4yOCAtNzQuOSwtMTcuMjggLTQ1LjI3LDAgLTgyLjM0LDE1LjYzIC0xMTEuMDgsNDYuOSAtMjguODcsMzEuMjcgLTQzLjI1LDcxLjQ5IC00My4yNSwxMjAuNDEgMCw0OS4wNSAxNC4yNSw4OC43NyA0Mi44NywxMTkuMTUgMjguNSwzMC4zOSA2NS42OSw0NS42NCAxMTEuNTksNDUuNjQgMjcuMTEsMCA1NC4wOSwtNS42NyA4MS4wOCwtMTcuMDIgMjYuOTgsLTExLjM1IDUzLjg0LC0yOC4zNyA4MC43LC01MS4wN2wtOC4yIDE0Mi4yM2MtMjIuOTUsMTUuNTEgLTQ3LjkxLDI3LjM2IC03NS4xNSwzNS40MyAtMjcuMjQsOC4xOSAtNTUuNDgsMTIuMjMgLTg0Ljg2LDEyLjIzIC0zMS41MiwwIC02MS42NiwtNC45MiAtOTAuNjYsLTE0Ljc1IC0yOC44OCwtOS44MyAtNTUuNiwtMjQuNDYgLTc5Ljk0LC00My42MyAtMzQuNTUsLTI3LjExIC02MC45LC02MC4xNCAtNzkuMzEsLTk5LjIzIC0xOC4yOCwtMzguOTYgLTI3LjQ5LC04MS41OCAtMjcuNDksLTEyNy42IDAsLTM5LjcyIDYuODEsLTc2LjkxIDIwLjMsLTExMS41OSAxMy42MiwtMzQuNjggMzMuMjksLTY1LjQ0IDU5LjEzLC05Mi4wNCAyNi4xLC0yNi42MSA1Ni4yNCwtNDYuOSA5MC41MywtNjEuMTUgMzQuMTcsLTE0LjEyIDcwLjIzLC0yMS4xOCAxMDguMTgsLTIxLjE4IDMwLjE0LDAgNTguNzYsNC4xNiA4Ni4xMiwxMi42MSAyNy4zNiw4LjMyIDUzLjQ2LDIxLjA2IDc4LjMsMzguMDhsLTEzLjYyIDEzNi45M3ptNzUuNTMgMjE0Ljg1YzMyLjkxLDIwLjE3IDYwLjksMzQuMTcgODMuOTcsNDIuMzcgMjIuOTUsOC4wNyA0NS4zOSwxMi4xIDY3LjMzLDEyLjEgMjIuMDYsMCAzOS44NCwtNC45MiA1My4zNCwtMTQuNjMgMTMuMzYsLTkuNzEgMjAuMDUsLTIyLjE5IDIwLjA1LC0zNy40NSAwLC0yMS44MSAtMjMuODMsLTQ2LjUzIC03MS42MiwtNzMuNzYgLTcuNjksLTQuNDEgLTEzLjYyLC03Ljk0IC0xNy43OCwtMTAuMzRsLTM2LjE5IC0yMC40M2MtMzUuMTgsLTE5LjkyIC02MS4yOCwtNDIuNDkgLTc4LjE4LC02Ny41OCAtMTcuMDIsLTI1LjA5IC0yNS40NywtNTMuNTkgLTI1LjQ3LC04NS4zNiAwLC00My4xMiAxNi4yNywtNzguNDMgNDguOCwtMTA2LjA0IDMyLjQxLC0yNy42MSA3NC4zOSwtNDEuMzYgMTI1Ljg0LC00MS4zNiAxOS4wNCwwIDM5LjU5LDIuMjcgNjEuNjYsNi42OCAyMi4xOSw0LjQxIDQ2Ljc4LDExLjM1IDczLjg5LDIwLjY4bDAgMTI1LjQ2Yy0yNS44NSwtMTYuMTQgLTUwLjMxLC0yOC42MiAtNzMuNTEsLTM3LjQ1IC0yMy4yLC04LjgzIC00Mi44NywtMTMuMjQgLTU5LjE0LC0xMy4yNCAtMTguMDMsMCAtMzIuMTUsMy45MSAtNDIuNDksMTEuNiAtMTAuMzQsNy42OSAtMTUuNTEsMTguMjggLTE1LjUxLDMxLjUyIDAsOS4zMyAzLjAzLDE4LjAzIDkuMiwyNi4xIDYuMTgsOC4yIDE1LjM4LDE1LjUxIDI3Ljc0LDIyLjE5bDYyLjc5IDM0LjY3YzUyLjU4LDI5LjEzIDg3Ljg4LDU1Ljk4IDEwNi4wNCw4MC41NyAxOC4xNiwyNC43MiAyNy4yNCw1My44NCAyNy4yNCw4Ny42MyAwLDUyLjIgLTE3Ljc4LDk0LjQ0IC01My4zNCwxMjYuNTkgLTM1LjY4LDMyLjE1IC04Mi44NCw0OC4xNiAtMTQxLjcyLDQ4LjE2IC0xOS45MiwwIC00MS42MSwtMi4xNCAtNjUuMDYsLTYuMzEgLTIzLjMyLC00LjE2IC00OS4xNywtMTAuNzIgLTc3LjE3LC0xOS41NGwtMTAuNzIgLTE0Mi44NnptNjIzLjEzIDE3MS43M2wtOC44MyAwIC0yNTIuODEgLTU1Ni4wNSAxMzUuMjkgMCAxMjYuMzQgMjkyLjkgMTI3LjQ3IC0yOTIuOSAxMjUuMzMgMCAtMjUyLjgxIDU1Ni4wNXoiIGNsYXNzPSJmaWwzIi8+JiN4YTsgIDwvZz4mI3hhOyA8L2c+JiN4YTs8L3N2Zz4=;" parent="1" vertex="1">
          <mxGeometry x="34" y="191" width="80" height="100" as="geometry" />
        </mxCell>
        <mxCell id="0DWsPQYIQsgb9rgHiLBQ-7" style="rounded=0;orthogonalLoop=1;jettySize=auto;html=1;exitX=1;exitY=0.5;exitDx=0;exitDy=0;entryX=0;entryY=0.5;entryDx=0;entryDy=0;edgeStyle=orthogonalEdgeStyle;curved=1;" parent="1" source="0DWsPQYIQsgb9rgHiLBQ-9" target="0DWsPQYIQsgb9rgHiLBQ-14" edge="1">
          <mxGeometry relative="1" as="geometry" />
        </mxCell>
        <mxCell id="0DWsPQYIQsgb9rgHiLBQ-8" value="Extract" style="edgeLabel;html=1;align=center;verticalAlign=middle;resizable=0;points=[];fontSize=18;labelBackgroundColor=none;" parent="0DWsPQYIQsgb9rgHiLBQ-7" connectable="0" vertex="1">
          <mxGeometry x="-0.781" y="2" relative="1" as="geometry">
            <mxPoint x="-10" y="32" as="offset" />
          </mxGeometry>
        </mxCell>
        <mxCell id="0DWsPQYIQsgb9rgHiLBQ-9" value="" style="shape=image;verticalLabelPosition=bottom;labelBackgroundColor=default;verticalAlign=top;aspect=fixed;imageAspect=0;image=data:image/svg+xml,PHN2ZyB4bWxuczp4bGluaz0iaHR0cDovL3d3dy53My5vcmcvMTk5OS94bGluayIgeG1sbnM9Imh0dHA6Ly93d3cudzMub3JnLzIwMDAvc3ZnIiB2aWV3Qm94PSIwIDAgNDAyNSA1MjA4LjMzIiBzdHlsZT0ic2hhcGUtcmVuZGVyaW5nOmdlb21ldHJpY1ByZWNpc2lvbjsgdGV4dC1yZW5kZXJpbmc6Z2VvbWV0cmljUHJlY2lzaW9uOyBpbWFnZS1yZW5kZXJpbmc6b3B0aW1pemVRdWFsaXR5OyBmaWxsLXJ1bGU6ZXZlbm9kZDsgY2xpcC1ydWxlOmV2ZW5vZGQiIHZlcnNpb249IjEuMSIgaGVpZ2h0PSI1LjIwODMzaW4iIHdpZHRoPSI0LjAyNWluIiB4bWw6c3BhY2U9InByZXNlcnZlIj4mI3hhOyA8ZGVmcz4mI3hhOyAgPHN0eWxlIHR5cGU9InRleHQvY3NzIj4mI3hhOyAgICYjeGE7ICAgIC5maWwzIHtmaWxsOiNGRUZFRkU7ZmlsbC1ydWxlOm5vbnplcm99JiN4YTsgICAgLmZpbDIge2ZpbGw6IzZCMzc2MztmaWxsLXJ1bGU6bm9uemVyb30mI3hhOyAgICAuZmlsMSB7ZmlsbDojOTU1RTg4O2ZpbGwtcnVsZTpub256ZXJvfSYjeGE7ICAgIC5maWwwIHtmaWxsOiNGRkRFRjk7ZmlsbC1ydWxlOm5vbnplcm99JiN4YTsgICAmI3hhOyAgPC9zdHlsZT4mI3hhOyA8L2RlZnM+JiN4YTsgPGcgaWQ9IkxheWVyX3gwMDIwXzEiPiYjeGE7ICA8bWV0YWRhdGEgaWQ9IkNvcmVsQ29ycElEXzBDb3JlbC1MYXllciIvPiYjeGE7ICA8ZyBpZD0iXzIxNjkwMDE0MTMzNjAiPiYjeGE7ICAgPHBvbHlnb24gcG9pbnRzPSIyNzkwLjYzLDAgMjYxLjQ2LDAgMjYxLjQ2LDUyMDguMzMgNDAyNSw1MjA4LjMzIDQwMjUsMTIxNi42NyIgY2xhc3M9ImZpbDAiIGlkPSJYTUxJRF81Nl8iLz4mI3hhOyAgIDxwb2x5Z29uIHBvaW50cz0iMjc5MC42MywwIDQwMjUsMTIxNi42NyAyNzkwLjYzLDEyMTYuNjciIGNsYXNzPSJmaWwxIiBpZD0iWE1MSURfNTVfIi8+JiN4YTsgICA8cG9seWdvbiBwb2ludHM9IjAsNDY3Ni4wNCAzNDI3LjA5LDQ2NzYuMDQgMzQyNy4wOSwzMDUwIDAsMzA1MCIgY2xhc3M9ImZpbDEiIGlkPSJYTUxJRF81NF8iLz4mI3hhOyAgIDxwb2x5Z29uIHBvaW50cz0iLTAsNDY3Ni4wNCAyNjEuNDYsNDg5Ni44NyAyNjEuNDYsNDY3Ni4wNCIgY2xhc3M9ImZpbDIiIGlkPSJYTUxJRF81M18iLz4mI3hhOyAgIDxwYXRoIGQ9Ik00ODMuMyA0MDY3LjUyYzE3LjgzLDcuODMgMzQuMzMsMTMuODMgNDkuMzMsMTcuODMgMTQuODMsNC4xNyAyOCw2LjE3IDM5LjUsNi4xNyAzMy41LDAgNTcuMzMsLTExIDcxLjY3LC0zMyAxNC4zMywtMjIgMjEuNSwtNTkuMzMgMjEuNSwtMTEybDAgLTQzOSAxNzAgMCAwIDQ3OWMwLDgxLjY3IC0yMSwxNDQuMTcgLTYzLDE4Ny4zMyAtNDIsNDMuMTcgLTEwMi42Nyw2NC42NyAtMTgyLDY0LjY3IC0xNSwwIC0zMCwtMSAtNDQuODMsLTMgLTE0LjY3LC0xLjgzIC0zMC4xNywtNC44MyAtNDYsLTguNjdsLTE2LjE3IC0xNTkuMzN6bTQ2OC44MyAtNTJjNDMuNSwyNi42NyA4MC41LDQ1LjE3IDExMSw1NiAzMC4zMywxMC42NyA2MCwxNiA4OSwxNiAyOS4xNywwIDUyLjY3LC02LjUgNzAuNSwtMTkuMzMgMTcuNjcsLTEyLjgzIDI2LjUsLTI5LjMzIDI2LjUsLTQ5LjUgMCwtMjguODMgLTMxLjUsLTYxLjUgLTk0LjY3LC05Ny41IC0xMC4xNywtNS44MyAtMTgsLTEwLjUgLTIzLjUsLTEzLjY3bC00Ny44MyAtMjdjLTQ2LjUsLTI2LjMzIC04MSwtNTYuMTcgLTEwMy4zMywtODkuMzMgLTIyLjUsLTMzLjE3IC0zMy42NywtNzAuODMgLTMzLjY3LC0xMTIuODMgMCwtNTcgMjEuNSwtMTAzLjY3IDY0LjUsLTE0MC4xNyA0Mi44MywtMzYuNSA5OC4zMywtNTQuNjcgMTY2LjMzLC01NC42NyAyNS4xNywwIDUyLjMzLDMgODEuNSw4LjgzIDI5LjMzLDUuODMgNjEuODMsMTUgOTcuNjcsMjcuMzNsMCAxNjUuODNjLTM0LjE3LC0yMS4zMyAtNjYuNSwtMzcuODMgLTk3LjE3LC00OS41IC0zMC42NywtMTEuNjcgLTU2LjY3LC0xNy41IC03OC4xNywtMTcuNSAtMjMuODMsMCAtNDIuNSw1LjE3IC01Ni4xNywxNS4zMyAtMTMuNjcsMTAuMTcgLTIwLjUsMjQuMTcgLTIwLjUsNDEuNjcgMCwxMi4zMyA0LDIzLjgzIDEyLjE3LDM0LjUgOC4xNywxMC44MyAyMC4zMywyMC41IDM2LjY3LDI5LjMzbDgzIDQ1LjgzYzY5LjUsMzguNSAxMTYuMTcsNzQgMTQwLjE3LDEwNi41IDI0LDMyLjY3IDM2LDcxLjE3IDM2LDExNS44MyAwLDY5IC0yMy41LDEyNC44MyAtNzAuNSwxNjcuMzMgLTQ3LjE3LDQyLjUgLTEwOS41LDYzLjY3IC0xODcuMzMsNjMuNjcgLTI2LjMzLDAgLTU1LC0yLjgzIC04NiwtOC4zMyAtMzAuODMsLTUuNSAtNjUsLTE0LjE3IC0xMDIsLTI1LjgzbC0xNC4xNyAtMTg4Ljgzem03MTIuODMgLTE1NGMwLDYxLjUgMTgsMTEzLjE3IDU0LDE1NC42NyAzNiw0MS41IDgwLjMzLDYyLjMzIDEzMyw2Mi4zMyA1MywwIDk3LjUsLTIwLjY3IDEzMy4zMywtNjIgMzUuODMsLTQxLjUgNTMuNjcsLTkzLjE3IDUzLjY3LC0xNTUgMCwtNjIuMTcgLTE3LjgzLC0xMTQuMTcgLTUzLjY3LC0xNTUuNjcgLTM1LjgzLC00MS41IC04MC4zMywtNjIuMzMgLTEzMy4zMywtNjIuMzMgLTUyLjY3LDAgLTk3LDIwLjgzIC0xMzMsNjIuMzMgLTM2LDQxLjUgLTU0LDkzLjUgLTU0LDE1NS42N3ptLTE3NCAwYzAsLTUyLjUgOSwtMTAxLjUgMjcuMTcsLTE0Ny4xNyAxOCwtNDUuODMgNDQuNjcsLTg2LjY3IDc5LjgzLC0xMjIuODMgMzMuMTcsLTM0LjUgNzEuODMsLTYxIDExNS44MywtNzkuMzMgNDMuODMsLTE4LjUgOTAsLTI3LjY3IDEzOC4xNywtMjcuNjcgNDguMTcsMCA5NC4zMyw5LjMzIDEzOC41LDI3LjgzIDQ0LjE3LDE4LjUgODMuMzMsNDUuMzMgMTE3LjUsODAuMTcgMzQuNSwzNC44MyA2MC42Nyw3NSA3OC4zMywxMjAuODMgMTcuODMsNDUuNjcgMjYuNjcsOTUuMTcgMjYuNjcsMTQ4LjE3IDAsNDQuMzMgLTYuMTcsODYgLTE4LjUsMTI1IC0xMi41LDM5IC0zMC44Myw3NC42NyAtNTUuMzMsMTA3IC0zNC41LDQ1LjgzIC03Ni44Myw4MS41IC0xMjcuMTcsMTA2LjgzIC01MC4zMywyNS41IC0xMDMuNjcsMzguMTcgLTE2MCwzOC4xNyAtNDcuODMsMCAtOTMuNjcsLTkuMzMgLTEzNy41LC0yNy44MyAtNDMuODMsLTE4LjUgLTgyLjY3LC00NS4zMyAtMTE2LjUsLTgwLjE3IC0zNS4xNywtMzYgLTYxLjgzLC03Ni44MyAtNzkuODMsLTEyMi4zMyAtMTguMTcsLTQ1LjMzIC0yNy4xNywtOTQuMzMgLTI3LjE3LC0xNDYuNjd6bTgzOS44MyAzNTRsMCAtNzMxIDE2LjE3IDAgNDQwLjgzIDQxMy4xNyAwIC0zOTAuMTcgMTU2IDAgMCA3MzUgLTE0LjY3IDAgLTQ0Mi4zMyAtNDEzLjE3IDAgMzg2LjE3IC0xNTYgMHoiIGNsYXNzPSJmaWwzIi8+JiN4YTsgIDwvZz4mI3hhOyA8L2c+JiN4YTs8L3N2Zz4=;" parent="1" vertex="1">
          <mxGeometry x="34" y="471" width="80" height="100" as="geometry" />
        </mxCell>
        <mxCell id="0DWsPQYIQsgb9rgHiLBQ-10" style="rounded=0;orthogonalLoop=1;jettySize=auto;html=1;exitX=1;exitY=0.5;exitDx=0;exitDy=0;entryX=0;entryY=0.5;entryDx=0;entryDy=0;edgeStyle=orthogonalEdgeStyle;curved=1;" parent="1" source="0DWsPQYIQsgb9rgHiLBQ-12" target="0DWsPQYIQsgb9rgHiLBQ-14" edge="1">
          <mxGeometry relative="1" as="geometry" />
        </mxCell>
        <mxCell id="0DWsPQYIQsgb9rgHiLBQ-11" value="Extract" style="edgeLabel;html=1;align=center;verticalAlign=middle;resizable=0;points=[];fontSize=18;labelBackgroundColor=none;" parent="0DWsPQYIQsgb9rgHiLBQ-10" connectable="0" vertex="1">
          <mxGeometry x="-0.5705" y="1" relative="1" as="geometry">
            <mxPoint x="-54" y="41" as="offset" />
          </mxGeometry>
        </mxCell>
        <mxCell id="0DWsPQYIQsgb9rgHiLBQ-12" value="" style="shape=image;verticalLabelPosition=bottom;labelBackgroundColor=default;verticalAlign=top;aspect=fixed;imageAspect=0;image=data:image/svg+xml,PHN2ZyB4bWxuczp4bGluaz0iaHR0cDovL3d3dy53My5vcmcvMTk5OS94bGluayIgeG1sbnM9Imh0dHA6Ly93d3cudzMub3JnLzIwMDAvc3ZnIiB2aWV3Qm94PSIwIDAgMTE0Ni4zNCAxNDgzIiBzdHlsZT0ic2hhcGUtcmVuZGVyaW5nOmdlb21ldHJpY1ByZWNpc2lvbjsgdGV4dC1yZW5kZXJpbmc6Z2VvbWV0cmljUHJlY2lzaW9uOyBpbWFnZS1yZW5kZXJpbmc6b3B0aW1pemVRdWFsaXR5OyBmaWxsLXJ1bGU6ZXZlbm9kZDsgY2xpcC1ydWxlOmV2ZW5vZGQiIHZlcnNpb249IjEuMSIgaGVpZ2h0PSI1LjIwODMzaW4iIHdpZHRoPSI0LjAyNTk3aW4iIHhtbDpzcGFjZT0icHJlc2VydmUiPiYjeGE7IDxkZWZzPiYjeGE7ICA8c3R5bGUgdHlwZT0idGV4dC9jc3MiPiYjeGE7ICAgJiN4YTsgICAgLnN0cjAge3N0cm9rZTojRUQ5MTBDO3N0cm9rZS13aWR0aDowLjg1O3N0cm9rZS1taXRlcmxpbWl0OjIuNjEzMTN9JiN4YTsgICAgLmZpbDMge2ZpbGw6I0ZFRkVGRTtmaWxsLXJ1bGU6bm9uemVyb30mI3hhOyAgICAuZmlsMiB7ZmlsbDojRUQ5MTBDO2ZpbGwtcnVsZTpub256ZXJvfSYjeGE7ICAgIC5maWwxIHtmaWxsOiNGOEE3MUE7ZmlsbC1ydWxlOm5vbnplcm99JiN4YTsgICAgLmZpbDAge2ZpbGw6I0Y5REFBQztmaWxsLXJ1bGU6bm9uemVyb30mI3hhOyAgICYjeGE7ICA8L3N0eWxlPiYjeGE7IDwvZGVmcz4mI3hhOyA8ZyBpZD0iTGF5ZXJfeDAwMjBfMSI+JiN4YTsgIDxtZXRhZGF0YSBpZD0iQ29yZWxDb3JwSURfMENvcmVsLUxheWVyIi8+JiN4YTsgIDxnIGlkPSJfMjE2OTAwMzk4ODM4NCI+JiN4YTsgICA8cG9seWdvbiBwb2ludHM9Ijc5NC44NywwIDc0LjcyLDAgNzQuNzIsMTQ4MyAxMTQ2LjM0LDE0ODMgMTE0Ni4zNCwzNDYuNDMiIGNsYXNzPSJmaWwwIiBpZD0iWE1MSURfNTZfIi8+JiN4YTsgICA8cG9seWdvbiBwb2ludHM9Ijc5NC44NywwIDExNDYuMzQsMzQ2LjQzIDc5NC44NywzNDYuNDMiIGNsYXNzPSJmaWwxIiBpZD0iWE1MSURfNTVfIi8+JiN4YTsgICA8cG9seWdvbiBwb2ludHM9IjAuMjgsMTMzMS40NCA5NzYuMDksMTMzMS40NCA5NzYuMDksODY4LjQ1IDAuMjgsODY4LjQ1IiBjbGFzcz0iZmlsMSIgaWQ9IlhNTElEXzU0XyIvPiYjeGE7ICAgPHBvbHlnb24gcG9pbnRzPSIwLjI4LDEzMzEuNDQgNzQuNzIsMTM5NC4zMiA3NC43MiwxMzMxLjQ0IiBjbGFzcz0iZmlsMiBzdHIwIiBpZD0iWE1MSURfNTNfIi8+JiN4YTsgICA8cGF0aCBkPSJNMTgwLjkzIDEyMDAuMzFsMCAtOTUuNjcgLTcyLjA0IC0xMDUuOTIgNTguMDkgMCA0Mi4wOSA2My44MyA0Ni40MSAtNjMuODMgNTEuMDEgMCAtNzcuNzMgMTAzLjk4IDAgOTcuNjIgLTQ3Ljg0IDB6bTE2Mi4xMSAtNjQuMDdsNTIuOTYgMCAtMjYuMTUgLTYzLjEyIC0yNi44MSA2My4xMnptLTc1LjQ2IDY0LjA3bDEwMi44NCAtMjA3Ljg2IDMuMDQgMCAxMDAuNTYgMjA3Ljg2IC01MC4zNSAwIC0xMi43NiAtMjkuMzMgLTgxLjgxIDAgLTEzLjA1IDI5LjMzIC00OC40NSAwem0yMDUuMDEgMGw0MS44NiAtMjA4LjE0IDMuNDYgMCA3Ni4wNyAxMzEuMjYgNzEuNzUgLTEzMS4yNiAzLjYxIDAgNDIuMTQgMjA4LjE0IC00NS43NSAwIC0xNy4wOCAtOTIuMDcgLTU0LjEgOTkuNDcgLTMuMjMgMCAtNTguMDkgLTEwMC44NCAtMTcuNyA5My40NCAtNDIuOTUgMHptMjY4LjE3IDBsMCAtMjAxLjU5IDQ4LjEyIDAgMCAxNTguMzEgNzguNTkgMCAwIDQzLjI4IC0xMjYuNzEgMHoiIGNsYXNzPSJmaWwzIi8+JiN4YTsgIDwvZz4mI3hhOyA8L2c+JiN4YTs8L3N2Zz4=;" parent="1" vertex="1">
          <mxGeometry x="34" y="51" width="80" height="100" as="geometry" />
        </mxCell>
        <mxCell id="0DWsPQYIQsgb9rgHiLBQ-13" value="Load" style="edgeStyle=orthogonalEdgeStyle;rounded=0;orthogonalLoop=1;jettySize=auto;html=1;entryX=0;entryY=0.5;entryDx=0;entryDy=0;fontSize=18;" parent="1" source="0DWsPQYIQsgb9rgHiLBQ-14" target="0DWsPQYIQsgb9rgHiLBQ-15" edge="1">
          <mxGeometry y="30" relative="1" as="geometry">
            <mxPoint as="offset" />
          </mxGeometry>
        </mxCell>
        <mxCell id="0DWsPQYIQsgb9rgHiLBQ-14" value="" style="shape=image;verticalLabelPosition=bottom;labelBackgroundColor=default;verticalAlign=top;aspect=fixed;imageAspect=0;image=data:image/svg+xml,PHN2ZyB4bWxuczp4bGluaz0iaHR0cDovL3d3dy53My5vcmcvMTk5OS94bGluayIgeG1sbnM9Imh0dHA6Ly93d3cudzMub3JnLzIwMDAvc3ZnIiB2aWV3Qm94PSIwIDAgMTQ4Ny42NSAxMTgxLjA2IiBzdHlsZT0ic2hhcGUtcmVuZGVyaW5nOmdlb21ldHJpY1ByZWNpc2lvbjsgdGV4dC1yZW5kZXJpbmc6Z2VvbWV0cmljUHJlY2lzaW9uOyBpbWFnZS1yZW5kZXJpbmc6b3B0aW1pemVRdWFsaXR5OyBmaWxsLXJ1bGU6ZXZlbm9kZDsgY2xpcC1ydWxlOmV2ZW5vZGQiIHZlcnNpb249IjEuMSIgaGVpZ2h0PSI1LjA5OTg3aW4iIHdpZHRoPSI2LjQyMzc1aW4iIHhtbDpzcGFjZT0icHJlc2VydmUiPiYjeGE7IDxkZWZzPiYjeGE7ICA8c3R5bGUgdHlwZT0idGV4dC9jc3MiPiYjeGE7ICAgJiN4YTsgICAgLmZpbDIge2ZpbGw6IzIwOTVGMH0mI3hhOyAgICAuZmlsMCB7ZmlsbDojQkFDRUUxfSYjeGE7ICAgIC5maWwzIHtmaWxsOiNDN0U3RkR9JiN4YTsgICAgLmZpbDEge2ZpbGw6d2hpdGV9JiN4YTsgICAmI3hhOyAgPC9zdHlsZT4mI3hhOyA8L2RlZnM+JiN4YTsgPGcgaWQ9IkxheWVyX3gwMDIwXzEiPiYjeGE7ICA8bWV0YWRhdGEgaWQ9IkNvcmVsQ29ycElEXzBDb3JlbC1MYXllciIvPiYjeGE7ICA8ZyBpZD0iXzI0NjQ1NjU1ODIwNDgiPiYjeGE7ICAgPHBhdGggZD0iTTcwMC44OSA4MDQuMTljLTE3LjUxLDMuMyAtMzIuOTYsMTMuNzIgLTQzLjk0LDE3LjgyIC0yLjgzLC0zLjExIC0zMy40MiwtMjUuNTMgLTM4LjU4LC0yNy4yOSAtOC4xNyw0LjMyIC0xOC4zNCwxNi41NCAtMjUuNCwyMy42MyAtMzAuODIsMzAuOTQgLTI5LjY2LDE4LjU0IC01Ljg3LDUwLjI1IDE1LjA1LDIwLjA4IDYuNDgsMTEuMiAtNS4wOSw0OC4xMyAtMi42NSw4LjQ3IC0yLjg3LDkuNzEgLTExLjgsMTEgLTEyLjI2LDEuNzggLTI3LjM2LDQuMzMgLTM4Ljg0LDUuNzIgLTAuMDUsNC4yOCAtMy4yLDY0LjM2IDIuMjcsNjkuMDUgNC43NSw0LjA3IDM3LjgxLDUuNDMgNDMuNjEsOS4wMyA0LjkyLDIuMDUgMy41LDMuMTUgNS4wNyw5LjM1IDMuMzksMTMuMzYgMTMuMTksMjcuMzggMTIuNTEsMzQuOTkgLTAuOCw4LjggLTIyLjA1LDI3LjI4IC0yNS4xNiwzOC42MiA0LjUsNy44NiAzOS4zNiwzNy45MSA0Ni4wNiw0Ny41NyAxNS45LC0yLjUzIDMxLjMzLC0yMy40NyA0MC40NiwtMjUuNjcgNC4zMywtMS4wNCAxNS43MSw2LjM0IDIxLjMxLDguOTcgOC4xNCwzLjgzIDE4LjM3LDQuNjYgMjQuNjcsOS4wMmw1LjkzIDQ2LjY2IDcxLjAyIC0wLjA3YzQuMDUsLTE0LjUzIDIuODEsLTMzLjAyIDcuNzgsLTQ4LjE3IDkuNSwtMy4zMSAxNC4yOCwtMy40OCAyMy4zLC03LjUyIDYuNTMsLTIuOTIgMTMuOTMsLTcuMzIgMjAuMzYsLTkuNiA0Mi4yNCwzMS4yNiAzNi4yNywzMC43MSA1Mi4xMiwxNC45MiA0My41OCwtNDMuNDEgMzkuNjgsLTMxLjIyIDIyLjQzLC01NS45NSAtMTcuMzEsLTI0LjggLTE3LjY0LC0xMi41IC01LjMyLC0zOS44MSA4LjU0LC0xOC45NSAzLjY3LC0yNC4xNyAxOS4xOCwtMjUuNzUgNC41MSwtMC40NiA5LjA5LC0wLjUgMTMuMjcsLTEuMzMgNi45LC0xLjM4IDE3LjgxLC0xLjgxIDIzLjg2LC00LjlsMC4zNyAtNjkuNTdjLTExLjk1LC0xLjQzIC00MC45OSwtNC42MSAtNDguNzQsLTguMTkgLTMuMTUsLTguOTIgLTMuNDksLTE0LjU5IC03LjQ2LC0yMi41MyAtMi4yOCwtNC41NiAtOS42MywtMTguMTkgLTguOTMsLTIxLjA2IDEuNDYsLTYgMjEuOTMsLTI3LjQ5IDI1Ljg4LC0zNy43OCAtMC4wMSwtNC4xMyAtNDQuOTcsLTQ4Ljc2IC00OC4wNywtNDkgLTEyLjI5LDMuOTQgLTI3LjQ4LDIyLjM2IC00MC4xOCwyNi42N2wtMzAuNjEgLTEzLjVjLTQuMTIsLTEuMTUgLTcuNzIsLTEuODcgLTEwLjA1LC0zLjk2IC03LjMyLC02LjUzIC00Ljc0LC0zNy41OCAtOS45OCwtNDcuNzVsLTY5LjEyIC0wLjA2Yy0yLjc4LDUuNjkgLTcuMzYsMzguNyAtOC4yOSw0OC4wNHoiIGNsYXNzPSJmaWwwIi8+JiN4YTsgICA8cGF0aCBkPSJNNzAxLjE0IDQ3LjM3Yy04LjksMy41MSAtMTUuMjksNC44OCAtMjMuMTksOC40OCAtMjUuNjksMTEuNzIgLTE2Ljc5LDEzLjA5IC00MC4yOCwtNC41MSAtNS44NCwtNC4zOCAtMTEuNTksLTEwLjQ2IC0xOS4yOSwtMTMuNDFsLTQ5LjE5IDQ4Ljc0YzEuMDYsNS4yOCAyMy42LDMzLjQxIDI3Ljk5LDM4LjczIC04LjE0LDE1LjYyIC0xMi4yNywyNS44NyAtMTguMjYsNDQuMDIgLTE0LjU4LDEuNDcgLTMxLjIyLDUuNDYgLTQ3LjQ0LDcuMSAtMC42OCwxMi43IC0yLjEyLDYyLjI0IDAuNzEsNzEuODZsNDQuNzkgNS40NSAxOS4wNyA0NC44M2MtMC4xOSwzLjcxIC0yMi42OCwzMS4zMyAtMjcuMzYsMzguNzUgMy40Miw0Ljg1IDQ0LjkxLDQ2LjUzIDQ5LjY5LDQ5LjI1IDEyLjc3LC00LjY5IDI3LjIsLTIyLjU3IDM2Ljg3LC0yNi41NSA0Ljc1LC0xLjk1IDE1LjU4LDUuODIgMjAuNDYsOC4yNiAyNy4wMiwxMy40OSAyNi4yNCwtOS41OSAzMi40Miw1Ni4xM2w3MC4xMSAwLjM0IDEwLjM5IC00Ny40OSAyMC4yMSAtOC4yOWMyOS44OSwtMTMuMDIgMTcuMjQsLTExLjQzIDQxLjY1LDQuODcgNy40NSw0Ljk4IDkuNTIsOC4yOCAxOC42NCwxMi42OSAzLjMzLC0xLjQ4IDQ2LjY5LC00NC4xIDQ3LjM4LC00Ny42MSAxLjIyLC02LjIzIC0xMi4zNiwtMjEuNDUgLTE4LjE0LC0yOS4zNCAtMTAuMjIsLTEzLjk0IC01Ljk2LC0xMy4zNCAyLjMsLTMyLjM1IDguMjcsLTE5LjAyIC01LjAzLC0yNi4zMSA1NS43OSwtMjkuMzUgMC4yMSwtNi42OSAyLjA5LC02My44NCAtMi4xNCwtNzAuNzVsLTQ1LjQxIC03LjYyYy0zLjU2LC01LjgyIC01LjU5LC0xNi4xIC04LjM3LC0yMi43MiAtMi44OCwtNi44OCAtOC42NywtMTYuNDQgLTEwLjA5LC0yMS42NSAzMi4xNCwtNDcuMiAzNy45MywtMjkuMDIgNC4yLC02Mi41IC00LjMzLC00LjMgLTYuNjYsLTcuMjUgLTExLjg2LC0xMi4yMSAtMTYuMzEsLTE1LjU3IC0xMC42LC0xNi4xNyAtMzMuMDIsMC43NiAtMjQuMzIsMTguMzcgLTE0LjY0LDE1LjUxIC0zOS44Miw0LjQ5IC00LjgsLTIuMSAtMjAuMzUsLTUuMzEgLTIzLjM1LC04Ljg1IC00LjQ5LC00LjY5IC00LjIsLTM3Ljk0IC03LjQ5LC00Ni41NGwtNzAuNTYgLTAuNGMtMS4wOSw3LjcyIC0yLjA1LDE2LjU4IC0zLjY5LDIzLjc0IC0xLjQ4LDYuNDcgLTIuNCwxNi41IC0zLjczLDIzLjYyeiIgY2xhc3M9ImZpbDAiLz4mI3hhOyAgIDxwYXRoIGQ9Ik02NDIuMyA5NjQuM2MwLjExLDYyLjExIDQyLjI2LDEwNS40NCAxMDQuNjcsMTA1LjYyIDU1LjcsMC4xNCA5OC4xNCwtNDguNjkgOTguMzUsLTEwMC43NyAwLjM1LC04OS4yMSAtMTA0LjE5LC0xMzUuODkgLTE3MS4yNiwtNzQuNTkgLTE0LjgzLDEzLjU2IC0zMS44MSw0MC41OSAtMzEuNzYsNjkuNzN6IiBjbGFzcz0iZmlsMSIvPiYjeGE7ICAgPHBhdGggZD0iTTczMy41MiAxMTEuNTljLTMwLjc2LDUuMDggLTQ1LjEyLDEwLjU5IC02Ni45MSwzNC41OSAtNTcuMjQsNjMuMDUgLTguMDksMTc3LjIgODguMywxNjcuMTggMTQuMzUsLTEuNDkgMjYuNDEsLTYuNTYgMzcuNzgsLTEyLjA1IDQ5LjM2LC0yMy43OCA4MC4xLC0xMDYuNCAxNy4xMSwtMTY2LjYgLTE1LjcxLC0xNS4wMiAtNDkuOSwtMjcuNDkgLTc2LjI5LC0yMy4xM3oiIGNsYXNzPSJmaWwxIi8+JiN4YTsgICA8cGF0aCBkPSJNNDM4LjIxIDU3Ni45MmwwLjA0IDExMi41MmMwLjAyLDE1LjQyIDIuNDYsMjguMTMgMTkuMzcsMjguMDMgMjIuMjYsLTAuMTMgMTkuMTEsLTIxLjk4IDE5LjEzLC00Mi41IDAuMDUsLTI5LjMzIC0zLjIxLC05Ny4zMiAyLjg4LC0xMjEuMTkgNy44LC0zMC41OCAzNy4xOCwtNTEuNDIgNzIuODQsLTUxLjQyIDU3Ljk4LDAgODAuMjIsMzUuOTcgNzguMTcsOTAuMDUgLTQ4LjY3LDkuNzIgLTEzNC45OSwtMTcuMDggLTEzNS4yMSwxOS44OSAtMC4xNiwyNi45IDMzLjk2LDIwLjE4IDU3LjA0LDIwLjE3IDE4LjE3LC0wLjAxIDYzLjMxLC0yLjE5IDc4LjM3LDAuODlsMC4xIDU2LjA5YzAsMTUuNzMgMi41MywyOC4yOSAxOS41NywyNy45NyAyMi45NCwtMC40NCAxOS4xOCwtMjYuNDEgMTkuMTgsLTQ4Ljg2bC0wLjAzIC05MC4wMWMwLjAyLC0zNS44MyAtMTEuNDQsLTYxLjE1IC0zMS4wMiwtODEuMzUgLTYyLjUzLC02NC41NCAtMjAwLjA2LC0zNi4yOSAtMjAwLjQzLDc5Ljc0eiIgY2xhc3M9ImZpbDIiLz4mI3hhOyAgIDxwYXRoIGQ9Ik03NjEgNzE1LjE1YzkuNiwtMjEuMTkgNi42OSwtMjAuODIgNi42OSwtNDkuODIgMCwtMTAuMjggLTIuNDMsLTE1OC43NSAxLjY1LC0xNjIuNTkgMy4xNCwtMi45NiA5MC42NywtMS45OSAxMDcuODksLTEuMzQgOS4xOSwwLjM1IDkuNjgsMS4wMiAxMy4wNiwzLjk0IDI3Ljk1LC0xLjExIDUyLjk2LDY1LjAzIDMuMDcsODQuNjggLTIzLjU5LDkuMjkgLTg5LjQzLC0yLjA2IC0xMDMuMjgsNS44MSAtNy40MSw0LjIxIC0xMy40LDE1LjU4IC03Ljc4LDI2LjM0IDcuOTksMTUuMyA0Mi42LDkuNzQgNjIuNzMsOS43NCAyNS4zOCwwIDQ2LjQxLDEuNzkgNjYuOTYsLTcuMzQgNzkuNzIsLTM1LjQxIDU2Ljk4LC0xNjAuOTMgLTM0Ljc1LC0xNjEuMzQgLTI0LjEyLC0wLjExIC00OC4yNywtMC4wMiAtNzIuMzksLTAgLTY3LjAzLDAuMDUgLTc1LjE5LC03LjYgLTc1LjEyLDMzLjMzbDAgMTg0Ljg1Yy0wLjAxLDE0LjQ2IC0yLjYzLDIyLjk0IDUuNjcsMzAuODMgMTIuMDIsMTEuNDQgMTkuMDYsMi41MiAyNS42MiwyLjkxeiIgY2xhc3M9ImZpbDIiLz4mI3hhOyAgIDxwYXRoIGQ9Ik0wIDU4OS43OGwwIDEuNjFjMC4wNiw0Ny4xNiA1My42OSw3MyA5MC42OCw0Ny44NyAxMy4yNCwtOC45OSAxNS4yNCwtMTQuODkgMjMuMzksLTI5LjM4bDI1OC4zNyAtMC4wNWMxMi45NiwtMC4wMiAyNi41NSwtMy40MyAyNS44NywtMTkuOSAtMC42NywtMTYuMTQgLTEzLC0xOC43MSAtMjkuMDgsLTE4LjU5bC0yNTUgLTAuMDFjLTMuMzYsLTcuNDQgLTQuNTksLTEwLjYyIC05LjEzLC0xNi4zIC0xMi43OCwtMTYuMDEgLTM1LjExLC0yNi4yMSAtNTYuMzcsLTIyLjE4IC0yOC4zLDUuMzcgLTQ4Ljc3LDI2Ljg2IC00OC43Myw1Ni45NHoiIGNsYXNzPSJmaWwwIi8+JiN4YTsgICA8cGF0aCBkPSJNMTM3My44NSA1NzAuMTdjLTExLjM1LDIuNDYgLTE5OC4xMywwLjg2IC0yMjYuNjQsMC44NiAtMjMuNiwtMCAtNTYuMzcsLTYuODEgLTU4LjA2LDE4Ljk3IC0xLjY2LDI1LjM0IDM0Ljc5LDE5LjkyIDU2LjQ1LDE5Ljg5IDcwLjYyLC0wLjA5IDE2Mi4yNiwtMi4zIDIyOC4yNSwwLjE1IDYuNzEsMTIuMiA2LjQxLDE3LjUxIDIxLjk5LDI4LjUxIDkuODksNi45OSAyNy40NiwxMy4xNCA0MS40Nyw5Ljk4IDcxLjkzLC0xNi4yMiA2MS4xMywtMTA0Ljc0IDMuMjUsLTExNC45NSAtMzQuMTYsLTYuMDMgLTU1LjQ2LDEyLjYgLTY2LjcxLDM2LjU4eiIgY2xhc3M9ImZpbDAiLz4mI3hhOyAgIDxwYXRoIGQ9Ik0xNTMuMTMgNDYwLjc1bDE5Ni44MSAwLjAxYzE1LjQ5LC0wLjA0IDMxLjQ5LDEuMzcgMzYuNDEsLTExLjU5IDMuNTcsLTkuNDEgMS43MSwtMjYuODkgLTIwLjM0LC0yNi44NWwtMjEyLjEzIDAuMDFjLTYuNDQsLTguNjEgLTUuMTUsLTE2LjU0IC0yMy40MywtMjkuMzcgLTM0Ljg4LC0yNC40OSAtODguOTcsLTMuODggLTkxLjI0LDQ3LjI5IC0xLjM3LDMxLjAxIDIyLjE0LDUzLjk2IDQ3LjY2LDU4LjczIDMwLjAxLDUuNiA1OS43OCwtMTQuOTQgNjYuMjUsLTM4LjIzeiIgY2xhc3M9ImZpbDAiLz4mI3hhOyAgIDxwYXRoIGQ9Ik0xMzM0LjY5IDQyMS44N2MtMjQuNjgsMy4wMiAtMjA1LjEyLC0xLjY2IC0yMTkuNjcsMC42OCAtNy40OCwxLjIgLTE0LjQ5LDguNzcgLTE0Ljk3LDE3Ljc2IC0xLjI5LDIzLjkzIDIyLjUxLDIwLjQgNDIuMzQsMjAuMzZsMTkyLjE3IC0wLjAxYzAuODYsMy4yNCA2LjMxLDEyLjkzIDkuMDksMTYuMjcgMTMuNiwxNi4zMSAzMy44MiwyNi4yNiA1Ny40NywyMS42MiA2MywtMTIuMzcgNjIuOCwtMTAzLjAzIC0wLjcyLC0xMTQuOTkgLTE2LjgxLC0zLjE2IC0zMi4yMSwxLjMyIC00Mi40NSw4LjY1IC0xNC45NSwxMC43IC0xNS44MywxNS41OCAtMjMuMjUsMjkuNjZ6IiBjbGFzcz0iZmlsMCIvPiYjeGE7ICAgPHBhdGggZD0iTTEzMzUuMjcgNzE5LjQ5Yy0xMy4wNCwyLjU2IC0xNjEuNzUsMS4wMiAtMTg4LjA3LDEuMDEgLTIwLjI2LC0wIC00NS45OCwtNC4xOSAtNDcuMjMsMTcuMTUgLTEuNiwyNy4zOSAyOC42NiwyMS4xMiA0Mi40MSwyMS4xOSA1Ny43MiwwLjI3IDEzOS4yNSwtMi4zIDE5MC45OCwwLjIzIDUuNjQsNy41OCA5LjAxLDE4LjczIDIyLjU4LDI4LjU4IDMzLjA3LDI0IDkyLjU4LDQuNTIgOTIuMzcsLTQ2Ljc0IC0wLjEzLC0yOS43NCAtMTcuNjYsLTUyLjE1IC00Ni4yNSwtNTguMzkgLTI4LjUxLC02LjIzIC01NS42OCw5Ljc2IC02Ni43OCwzNi45OHoiIGNsYXNzPSJmaWwwIi8+JiN4YTsgICA8cGF0aCBkPSJNMTU0IDc1OS4wNGMzNy4xOCwtMi42NyAxMzkuNjIsLTAuMzQgMTg3LjkxLC0wLjIgMjEuMDcsMC4wNiA0Ni4zNyw0LjM1IDQ1LjU5LC0xOS41NiAtMC43NiwtMjMuMjMgLTI0LjE4LC0xOSAtNDMuOTgsLTE4Ljk3IC01MS42MSwwLjA4IC0xNDcuNDIsMi40OCAtMTg5LjY3LC0wLjMgLTguMDcsLTkuMyAtMy43MywtMTQuNTYgLTIzLjM4LC0yOC4yNSAtMTAuODEsLTcuNTQgLTI0LjM3LC0xMi4zNyAtNDIuMDYsLTkuNzQgLTY2LjA1LDkuODQgLTY0LjQ0LDEwNS40MiAtMS43NCwxMTUuMzQgMjQuNjcsMy45IDQ0LjAyLC01LjI1IDU3LjA2LC0yMS40NyAzLjk5LC00Ljk2IDcuMzIsLTEyLjQgMTAuMjcsLTE2Ljg0eiIgY2xhc3M9ImZpbDAiLz4mI3hhOyAgIDxwYXRoIGQ9Ik0yNjkuMzYgMzExLjY2YzUxLjE3LC0wLjM0IDg1Ljg0LC0zLjYgMTI3LjgxLDI5Ljk0bDMxLjc2IDI2LjA0YzUuNjcsNC4yOCAxMC43LDkuNjQgMjIsNy45NyA3Ljk1LC0xLjE4IDE1LjI1LC04LjUzIDE1LjI1LC0xNS42OSAwLC0xOS40OSAtMTEuNTgsLTE5LjU4IC0zMi41MywtMzguNzQgLTUwLjA3LC00NS44IC05MC43OCwtNDguOTIgLTE2NC4xMywtNDguMjkgLTYuODgsLTEwLjk5IC05LjI2LC0xOC42OSAtMjAuNjEsLTI3LjQ0IC0yNy4yNiwtMjEuMDMgLTY4LjczLC0xNC4zMyAtODcuMzgsMTkuNDEgLTIxLjUsMzguODkgOS40OCw5NC43MiA2NC4yMSw4NC43NCAyMS4xMSwtMy44NSAzNC41NiwtMTkuNTUgNDMuNjEsLTM3LjkzeiIgY2xhc3M9ImZpbDAiLz4mI3hhOyAgIDxwYXRoIGQ9Ik0xMjE3LjkzIDI3Mi42M2MtMzkuMTksMC4xNiAtNTUuOSwtMi4wNSAtOTYuMTcsNy42NiAtMTMuMjQsMy4xOSAtMjYuNzUsMTIuODQgLTQwLjQ2LDE4Ljk1IC00LjI5LDEuOTEgLTEuNjcsMC41MSAtMy45NywyLjE5bC00NC44NSAzNi45Yy0yMy45OCwxOC4xNSAtMy4zNiw1My42NCAyNS45OSwyOS4yNWwxNS44OCAtMTMuMDVjNi42LC01LjE3IDExLjAyLC04Ljk5IDE2LjkyLC0xMy41OCA0Mi4wNCwtMzIuNzEgNzQuNDksLTI5Ljc3IDEyNi45MywtMjkuMzMgMzEuMjcsNjUuMjIgMTE0Ljc3LDQxLjYgMTE0LjI0LC0xOS4xOSAtMC40OSwtNTYuNDMgLTY4LjI2LC03OS44MyAtMTA0LjIyLC0zNi4yOSAtNC45NSw1Ljk5IC01Ljk5LDExLjYgLTEwLjI5LDE2LjQ5eiIgY2xhc3M9ImZpbDAiLz4mI3hhOyAgIDxwYXRoIGQ9Ik0zMDkuNzYgODY5LjY0bC00MC41NSAtMC4wN2MtMjYuNzIsLTU0LjY4IC04MS4wNSwtNDQuNjYgLTEwMi40NSwtMTUuODkgLTMwLjY3LDQxLjIzIC0wLjAyLDkzLjc0IDQ4LjE2LDkzLjYxIDM3LjU4LC0wLjExIDQ3LjQ0LC0yOS43NSA1NC42NSwtMzguNzQgNTIuMDMsLTMuMDIgNjkuMiw0LjI1IDExMy44OSwtMTUuMiAzMi4yMiwtMTQuMDEgNTEuMDksLTM1LjE3IDc2LjE1LC01NC4xNCAxNC43MywtMTEuMTUgNi4wMSwtMzYuNzEgLTE2LjQxLC0zMy4zMyAtMjQsMy42MiAtNTEuODEsNjQuMDUgLTEzMy40NSw2My43NXoiIGNsYXNzPSJmaWwwIi8+JiN4YTsgICA8cGF0aCBkPSJNMTIxNy45MyA5MDguMzZjNi43OSwxMC44NSA2Ljc1LDE1LjY3IDIwLjk3LDI3LjAyIDExLjk3LDkuNTUgMTcuOTUsMTEuNzYgMzguNTEsMTEuNjIgNDUuNjEsLTAuMyA3MS45MiwtNTMuOTUgNDIuNjUsLTk0LjQ1IC05LjcxLC0xMy40NCAtMzIuNTYsLTI1Ljc2IC01OC4wOSwtMjAuNzUgLTExLjQxLDIuMjQgLTIwLjE5LDcuNzMgLTI2LjM1LDEzLjQ1IC0zLjkxLDMuNjMgLTYuODMsNi4wOCAtOS45LDExLjIyIC0yLjU0LDQuMjYgLTQuNTUsOC4zMSAtNy43OCwxMi42NSAtMjkuODIsMC43NSAtNTUuNzYsMS43MSAtODQuNiwtNS40NCAtMjYuNzUsLTYuNjMgLTU2LjQsLTM1Ljk5IC03OC41LC01Mi45IC0xOS4yMiwtMTQuNzEgLTQyLjQyLDQuOTggLTMwLjM1LDIzLjc4IDQuMzgsNi44MiAyOC4zLDI0Ljk0IDM1LjYyLDMwLjQxIDE4LjU3LDEzLjg5IDE1LjgxLDE1LjI5IDQwLjg4LDI2LjgxIDQzLjE2LDE5Ljg0IDYyLjQ5LDE1LjE4IDExNi45NCwxNi41OHoiIGNsYXNzPSJmaWwwIi8+JiN4YTsgICA8cGF0aCBkPSJNMTA4OC40MiAxMDIyLjE3Yy02LjAxLDMyLjk4IC01Ljg5LDUwLjUxIDE3LjQsNzAuNTMgNi40NSw1LjU0IDUuMSw1LjQzIDEzLjU2LDguODggNTAuODksMjAuNzMgOTcuMTUsLTI5LjI2IDc3Ljg3LC03NC43MSAtMjIuMTYsLTUyLjI0IC03MS4yMSwtMzMuNDQgLTc3LjU5LC0zMy4zOSAtMTIuNDUsMC4wOCAtMjYuNDYsLTQwLjIzIC03NS40MywtNDMuODYgLTEwLjU2LC0wLjc4IC0zOC42OCwtMS42MSAtNDcsMS4xNiAtMTIuNyw0LjIyIC0xNy4yNSwxNy4yOCAtMTAuMzEsMjkuNDMgMTAuNDMsMTguMjcgNTIuNDcsLTIuNzMgNzcuNTQsMTcuMDFsMjMuOTUgMjQuOTZ6IiBjbGFzcz0iZmlsMCIvPiYjeGE7ICAgPHBhdGggZD0iTTEwODQuNDEgMTMxLjY3YzAuMDEsOS45NCA0LjE3LDIwLjM3IDMuNjQsMjguOTMgLTguOTEsOS4yNyAtMTguNDIsMTkuMzggLTI2LjQ0LDI1LjMyIC0xMi42LDkuMzMgLTI4LjY5LDcuMTkgLTQ2LjIxLDcuMTEgLTE3LjI4LC0wLjA4IC0zMi4xMiwyLjYzIC0zMS4xNCwyMC40OCAxLjI0LDIyLjY0IDI3LjMzLDE4LjIzIDUzLjY1LDE4LjEzIDIzLjE1LC0wLjE0IDMxLjMxLC00LjM1IDQ2Ljc1LC0xNC43NSAxNy4wOSwtMTEuNTIgMTUuMjcsLTE1LjczIDMwLjU3LC0yNy4zNiAwLjI5LC0wLjIyIDAuNzMsLTAuNTQgMSwtMC43NWwyLjA0IC0xLjU2YzE5LjMzLDMuOTUgMzYuOTUsOS40MiA1OC40NiwtNi42MiAzNC44MywtMjUuOTggMzEuMDgsLTY1LjI1IDguMDksLTg4LjIgLTM4Ljg0LC0zOC43NyAtMTAwLjQ1LC04Ljk3IC0xMDAuNDIsMzkuMjd6IiBjbGFzcz0iZmlsMCIvPiYjeGE7ICAgPHBhdGggZD0iTTM3MS41MyA5OTMuNzVjLTguMDcsMC4wMiAtNDkuMTEsLTE2Ljc2IC03NC42OCwyMC4zNSAtMTYuMzgsMjMuNzggLTE0LjE1LDU0LjA3IDYuNjcsNzUuMzcgNy45Niw4LjE0IDE4Ljk5LDE0Ljk4IDMzLjU2LDE2LjI3IDE1LjAxLDEuMzMgMjcuNzEsLTAuMDQgMzkuMDIsLTkuMyAwLjIyLC0wLjE4IDAuNTUsLTAuNTIgMC43OCwtMC43IDQuNTEsLTMuNDcgMy42OSwtMC44MiA4Ljc5LC01LjczIDcuMjgsLTcuMDEgMTEuNTcsLTE1LjA2IDE0LjQ2LC0yNC4zMyA1LjYxLC0xOC4wNCAyLjQsLTI2LjU3IC0xLjY4LC00My41MyAyLjg2LC0zLjQ0IDYuNTMsLTcuMDcgMTAuMDcsLTEwLjM5IDExLjU1LC0xMC44NSAxNi4xNCwtMjMuNjQgNDIuNjgsLTIzLjU4IDExLjAzLDAuMDIgMzIuNTYsMi4wOSA0MS4yNSwtMS45MyAxMC40NywtNC44NiAxNS44NiwtMjEuNjYgNi4xMywtMzAuODMgLTExLjE0LC0xMC40OSAtNjQuNzEsLTYuODIgLTc4LjA3LC0wLjk2IC0yMi42Nyw5LjkzIC0zMy41OSwyMy4wNiAtNDguOTUsMzkuMjh6IiBjbGFzcz0iZmlsMCIvPiYjeGE7ICAgPHBhdGggZD0iTTM3MS45IDE4Ny4wNmMxMC42OCwxMy4xNiA2Ljk5LDcuMSAxNS4xOSwxNS4yNCAzMS4zMywzMS4wNiA0MC40MywyOS4zNyA5MS40NCwyOS4zNyAzMy45MywtMCAzNC44MywtMzguODEgLTEuNjEsLTM4Ljc4IC0zNy4zNiwwLjAzIC00NS45NiwzLjM0IC02Ni4zMywtMjIuMzMgLTQuMjgsLTUuNCAtNi42OCwtMy42NiAtMTIuMjMsLTExLjU2IDIuNTgsLTE1LjM5IDguMzcsLTIzLjUzIDIuNCwtNDIuOTQgLTE4LjQyLC01OS45IC0xMDguNTksLTUyLjMyIC0xMTQuMSwxMC42OSAtMy4yNSwzNy4xMyAyNC4wMSw2Ny42NCA2NC45Nyw2NC41MyA4Ljk1LC0wLjY4IDEzLC00LjIxIDIwLjI3LC00LjIxeiIgY2xhc3M9ImZpbDAiLz4mI3hhOyAgIDxwYXRoIGQ9Ik0xMDIyLjQzIDQ2NC40Yy05LjAyLDUuMjcgLTExLjc4LDExLjE2IC0xMS43MiwyNC4wNiAwLjA2LDEyLjM0IDAuMDQsMjQuNjggMC4wNCwzNy4wMyAwLDIxLjM2IC0yLjUzLDE3MS45NyAxLjc5LDE4MS4zOCA0LjA2LDguODYgMTUuMzEsMTMuNTggMjUuOTIsOC45MiAxNy4xNSwtNy41MiAxMC44NCwtNDIuNjcgMTAuODQsLTYxLjcxIDAsLTI0LjY1IDAsLTQ5LjI5IDAsLTczLjk0IDAsLTEzLjM5IDIuODIsLTk4LjQxIC0yLjQ0LC0xMDYuOTkgLTMuMjcsLTUuMzQgLTEzLjksLTE0LjkgLTI0LjQ0LC04Ljc0eiIgY2xhc3M9ImZpbDIiLz4mI3hhOyAgIDxwYXRoIGQ9Ik03MjkuNzMgMTY1LjNjLTYyLjk0LDE5LjE0IC0zMy44OCwxMTIuMzUgMjcuOSw5NC4yOSAyMy4zMSwtNi44MiA0MC44OCwtMzAuNTkgMzMuNTgsLTYxLjY5IC01LjA5LC0yMS42NyAtMzIuNzQsLTQxLjMzIC02MS40NywtMzIuNnoiIGNsYXNzPSJmaWwyIi8+JiN4YTsgICA8cGF0aCBkPSJNNzM0LjM4IDkyMC43MmMtMTUuMzUsMy41OSAtMjMuNDMsOC4zOSAtMzAuNDEsMTguMzcgLTcuMDksMTAuMTMgLTExLjI3LDI0LjUgLTguMDcsNDAuNzggMTEuODcsNjAuNTcgMTEwLjUxLDQzLjAyIDk2LjA4LC0yMi4zMyAtNS40MSwtMjQuNSAtMzAuMDcsLTQzLjI1IC01Ny42LC0zNi44MXoiIGNsYXNzPSJmaWwyIi8+JiN4YTsgICA8cGF0aCBkPSJNMTEzNi4wMyAxMTUuNDJjLTIzLjE3LDkuMTUgLTEyLjY3LDQ1LjAxIDE0Ljk1LDM1LjcyIDIxLjc2LC03LjMyIDExLjQyLC00Ni4xMyAtMTQuOTUsLTM1LjcyeiIgY2xhc3M9ImZpbDEiLz4mI3hhOyAgIDxwYXRoIGQ9Ik0xMzcwLjY2IDQ0My41MWMwLjA0LDIyLjYxIDQwLjI3LDI0LjQzIDM4LjkyLC0zLjE5IC0xLjEsLTIyLjYgLTM4Ljk3LC0yNy42NSAtMzguOTIsMy4xOXoiIGNsYXNzPSJmaWwxIi8+JiN4YTsgICA8cGF0aCBkPSJNMTM4NC45OCA3MjEuMjNjLTkuNzMsMy44NSAtMTcuMDQsMTAgLTEzLjg3LDIzLjkxIDIuMjEsOS42OSAxMi43MywxNi45OSAyNC41NCwxMi44MyAyOC4wNiwtOS44OCA5LjgzLC00NC44NSAtMTAuNjcsLTM2Ljc0eiIgY2xhc3M9ImZpbDEiLz4mI3hhOyAgIDxwYXRoIGQ9Ik0yMzMgMjk0LjAyYy0wLjAxLC0xMC44IC03LjQ2LC0yMC44NyAtMTguMSwtMjEuNDQgLTExLjA1LC0wLjU5IC0yMC40Miw3LjU2IC0yMS4xNCwxOC4zMSAtMS44NiwyNy43OCAzOS4yNiwyNS43MiAzOS4yNCwzLjEzeiIgY2xhc3M9ImZpbDEiLz4mI3hhOyAgIDxwYXRoIGQ9Ik05MC4zMSA3MjIuMjhjLTI0LjU5LDguNjMgLTkuMTIsNDQuODcgMTMuNTYsMzYuMjIgMjQuNjQsLTkuNCAxMi40OCwtNDUuMzYgLTEzLjU2LC0zNi4yMnoiIGNsYXNzPSJmaWwxIi8+JiN4YTsgICA8cGF0aCBkPSJNMzM2LjI2IDEwMzAuODdjLTI0LjczLDE0LjEzIC00Ljk5LDQ1LjkgMTguMDEsMzQuMjkgMTkuOTYsLTEwLjA3IDUuNzgsLTQ3Ljg4IC0xOC4wMSwtMzQuMjl6IiBjbGFzcz0iZmlsMSIvPiYjeGE7ICAgPHBhdGggZD0iTTMzNi44NyAxMTUuMTNjLTE1LjM5LDYuOTggLTE1LjkzLDI4LjYzIC0xLjM5LDM1LjU2IDE1LjgzLDcuNTQgMzMuNTksLTYuNzcgMjcuMDksLTI0Ljk2IC0zLjEsLTguNjcgLTE1LjIsLTE1LjM2IC0yNS43LC0xMC42eiIgY2xhc3M9ImZpbDEiLz4mI3hhOyAgIDxwYXRoIGQ9Ik05NC41NSA0MjIuMzhjLTExLjM2LDMuMDQgLTE4LjMzLDkuNjMgLTE2LjM2LDIyLjYgMS40Niw5LjU4IDExLjQ1LDE4LjI3IDIzLjc0LDE1LjY1IDI0LjE5LC01LjE2IDE1LjY5LC00NC40MiAtNy4zOSwtMzguMjV6IiBjbGFzcz0iZmlsMSIvPiYjeGE7ICAgPHBhdGggZD0iTTIwNi4wMiA4NzEuNTJjLTUuNDgsMi4xNyAtNy41NSwyLjUxIC0xMC41NSw4Ljk5IC02LjY4LDE0LjQ0IDcuMjksMzQuMTIgMjUuNDIsMjYuODUgOC4wOCwtMy4yNCAxNC42OSwtMTQuOTQgMTAuNjEsLTI1LjQ4IC0zLjc2LC05LjcyIC0xMy42NCwtMTUuMDUgLTI1LjQ4LC0xMC4zNnoiIGNsYXNzPSJmaWwxIi8+JiN4YTsgICA8cGF0aCBkPSJNMTEzOC4yOCAxMDI4Ljk1Yy0yNi40Miw4LjE3IC0xMy41Myw0Ni4xOSAxMS4zNiwzNy40MSAyMi4yNCwtNy44NCAxMS45MSwtNDQuNiAtMTEuMzYsLTM3LjQxeiIgY2xhc3M9ImZpbDEiLz4mI3hhOyAgIDxwYXRoIGQ9Ik0xNDIwLjc5IDU3My45Yy0yNC44LDExLjcyIC01LjU3LDQzLjc4IDE1LjcsMzQuOTYgMjIuNjYsLTkuNCAxMC41LC00Ny4zNCAtMTUuNywtMzQuOTZ6IiBjbGFzcz0iZmlsMSIvPiYjeGE7ICAgPHBhdGggZD0iTTEyNzEuMTMgMjcyLjk4Yy0yNy45Myw3LjA0IC0xNy4yNSw0My40MyA3LjI0LDM4LjA4IDI1LjY0LC01LjYgMTQuOTEsLTQzLjY2IC03LjI0LC0zOC4wOHoiIGNsYXNzPSJmaWwxIi8+JiN4YTsgICA8cGF0aCBkPSJNMTI1NC42NCA4ODcuMTVjLTAuMTksMjguNjIgMzYuNzEsMjcuNCAzOC44OSwyLjk4IDEsLTExLjIyIC03LjkyLC0yMC4wMiAtMTcuNzYsLTIwLjY5IC0xMS4yMSwtMC43NiAtMjEuMDgsOS45MyAtMjEuMTMsMTcuNzF6IiBjbGFzcz0iZmlsMSIvPiYjeGE7ICAgPHBhdGggZD0iTTUwLjQ4IDU3My4yNWMtMjQuMTUsMTIuMjkgLTcuNDYsNDQuNDEgMTUuODksMzUuMzEgOC4yLC0zLjE5IDIxLjY4LC0yMy40NyAwLjYxLC0zNC43OCAtNS40OSwtMi45NSAtOS44OSwtMy44OSAtMTYuNDksLTAuNTN6IiBjbGFzcz0iZmlsMSIvPiYjeGE7ICAgPHBhdGggZD0iTTc2MSA3MTUuMTVsNy40NCAtMi45MWM0Ljc4LC03Mi4yOSAtMS4yOCwtMTQ1LjkyIDIuNTgsLTIwNy42NSAzOSwtMS45NCA4OC40NiwyLjEyIDExOS4yNiwwLjc2IC0zLjM3LC0yLjkyIC0zLjg2LC0zLjYgLTEzLjA2LC0zLjk0IC0xNy4yMiwtMC42NSAtMTA0Ljc0LC0xLjYyIC0xMDcuODksMS4zNCAtNC4wOCwzLjgzIC0xLjY1LDE1Mi4zMSAtMS42NSwxNjIuNTkgMCwyOSAyLjkxLDI4LjYzIC02LjY5LDQ5LjgyeiIgY2xhc3M9ImZpbDMiLz4mI3hhOyAgPC9nPiYjeGE7IDwvZz4mI3hhOzwvc3ZnPg==;" parent="1" vertex="1">
          <mxGeometry x="284" y="221" width="240" height="200" as="geometry" />
        </mxCell>
        <mxCell id="0DWsPQYIQsgb9rgHiLBQ-15" value="" style="shape=image;verticalLabelPosition=bottom;labelBackgroundColor=default;verticalAlign=top;aspect=fixed;imageAspect=0;image=data:image/svg+xml,PHN2ZyB4bWxuczp4bGluaz0iaHR0cDovL3d3dy53My5vcmcvMTk5OS94bGluayIgeG1sbnM9Imh0dHA6Ly93d3cudzMub3JnLzIwMDAvc3ZnIiB2aWV3Qm94PSIwIDAgMjI1Mi4xMiAyMjU0LjQ3IiBzdHlsZT0ic2hhcGUtcmVuZGVyaW5nOmdlb21ldHJpY1ByZWNpc2lvbjsgdGV4dC1yZW5kZXJpbmc6Z2VvbWV0cmljUHJlY2lzaW9uOyBpbWFnZS1yZW5kZXJpbmc6b3B0aW1pemVRdWFsaXR5OyBmaWxsLXJ1bGU6ZXZlbm9kZDsgY2xpcC1ydWxlOmV2ZW5vZGQiIHZlcnNpb249IjEuMSIgaGVpZ2h0PSI3LjY4MzE5aW4iIHdpZHRoPSI3LjY3NTJpbiIgeG1sOnNwYWNlPSJwcmVzZXJ2ZSI+JiN4YTsgPGRlZnM+JiN4YTsgIDxzdHlsZSB0eXBlPSJ0ZXh0L2NzcyI+JiN4YTsgICAmI3hhOyAgICAuZmlsMyB7ZmlsbDojMjE5NUYxfSYjeGE7ICAgIC5maWwyIHtmaWxsOiM0MkE1RjJ9JiN4YTsgICAgLmZpbDUge2ZpbGw6I0EzQUZDQ30mI3hhOyAgICAuZmlsMCB7ZmlsbDojQjZDMERBfSYjeGE7ICAgIC5maWwxIHtmaWxsOiNDQkRDRUJ9JiN4YTsgICAgLmZpbDQge2ZpbGw6I0U1RUJGMH0mI3hhOyAgICAuZmlsNiB7ZmlsbDp3aGl0ZX0mI3hhOyAgICYjeGE7ICA8L3N0eWxlPiYjeGE7IDwvZGVmcz4mI3hhOyA8ZyBpZD0iTGF5ZXJfeDAwMjBfMSI+JiN4YTsgIDxtZXRhZGF0YSBpZD0iQ29yZWxDb3JwSURfMENvcmVsLUxheWVyIi8+JiN4YTsgIDxnIGlkPSJfMjQ2NDU3MTg3NzM3NiI+JiN4YTsgICA8cGF0aCBkPSJNNjQxLjEyIDY3Ny40M2MwLjU4LDAuNSAxLjMsMC42MSAxLjU1LDEuNjlsNy4yNSA5LjcxYzE4LjMyLDI0LjE4IDU3LjEzLDM5Ljk5IDg1Ljk3LDQ5LjkgNzQuNTUsMjUuNjMgMTIwLjAxLDI4Ljc5IDE5NC4yMiw0MS4yOSAyNCw0LjA0IDQ3LjI5LDMuNzcgNzIuNiw2Ljg0IDcxLjc1LDguNjkgMjI4LjQ0LDUuNzMgMzAyLjM1LC0xLjMxbDEwMi4yMiAtMTQuMTZjMTEuNTcsLTIuODIgMjMuMzIsLTIuNzMgMzQuOTQsLTUuMzkgNTkuMTgsLTEzLjU4IDEyMi43MiwtMjguMDMgMTcyLjg3LC02Mi43OCAyOS42LC0yMC41MSAxNi42OCwtNDkuMSAxNS4xNywtNTYuMzMgLTMuNzYsLTI0LjAxIC02OC42OSwtNDkuNzEgLTk0LjA3LC01OS4zNiAtMTA2Ljk4LC00MC42OCAtMjk4LjU3LC01MC42NyAtNDE2LjEsLTUwLjI0IC0xMDcuOTksMC4zOSAtMzA2LjY1LDE2Ljc4IC00MDQuMDQsNTkuNDMgLTQzLjYsMTkuMDkgLTc5LjI3LDM1LjIzIC03NC45NCw4MC43MXoiIGNsYXNzPSJmaWwwIi8+JiN4YTsgICA8cGF0aCBkPSJNNjQxLjEyIDY3Ny40M2MxLjE3LDM1LjIgLTEuODIsMTU2LjMxIDAuMjcsMTc2LjcgMS42NSwxNi4xNCAxMi4yMiwyNi42MSAyMi41MiwzNS40OWwwLjE2IDM3Ljk4YzcuNTMsLTYuODggMS4wNSwtMTcuMjcgNC44LC0yOS40MSA4LjQ0LDIuMzEgMzMuMjQsMTcuNTkgNDMuMzksMjEuODYgMTkuMjIsOC4wOSAzMi45MywxMS40OSA1My4xMiwxNy44NiAzNS4xOSwxMS4xMSA3Ny4zOSwyMC4wOSAxMTQuMTQsMjQuOTIgNDEuOTcsNS41MSA4MS4wMiwxMS4zNSAxMjYuNywxMi44NiAxNTIuMjksNS4wNCAyMzMuMjUsMTAuNTMgMzkzLjA5LC0xMy43NWw4NyAtMTcuNTVjMTAuMTgsLTIuOTkgMTcuODUsLTYuMDYgMjcuNjksLTguMTUgMTYuMzIsLTMuNDggODUuMzcsLTI2LjE3IDkyLjM3LC00MS4yNSAwLjA2LC0wLjEyIDAuMjUsLTAuNjggMC4xOSwtMS4wMiA5LjY2LDE3LjQyIC0yLjk4LDMwLjQzIDkuNCwzOC4wMSAtMy4xLC04LjEzIC01LjYsLTI1LjU1IC0yLjM3LC0zNy4xMSAyLjU4LC05LjIzIDEyLjMyLC0xNC4yOCAxNy42NCwtMjMuNTggMTEuNjYsLTIwLjM1IDMuNTUsLTE1MS44MSA1LjQ1LC0xODkuMzYgMC40MiwtOC4zNyAzLjM5LC0yMC45NCAtMS4wNiwtMjkuMzUgLTMuMzQsLTYuMzEgLTEuMzgsLTIuODUgLTUuMzcsLTUuNyAxLjUxLDcuMjIgMTQuNDIsMzUuODEgLTE1LjE3LDU2LjMzIC01MC4xNCwzNC43NSAtMTEzLjY5LDQ5LjIgLTE3Mi44Nyw2Mi43OCAtMTEuNjIsMi42NyAtMjMuMzYsMi41OCAtMzQuOTQsNS4zOWwtMTAyLjIyIDE0LjE2Yy03My45MSw3LjA0IC0yMzAuNiwxMCAtMzAyLjM1LDEuMzEgLTI1LjMxLC0zLjA3IC00OC42LC0yLjggLTcyLjYsLTYuODQgLTc0LjIyLC0xMi41IC0xMTkuNjcsLTE1LjY3IC0xOTQuMjIsLTQxLjI5IC0yOC44NCwtOS45MSAtNjcuNjQsLTI1LjcyIC04NS45NywtNDkuOWwtNy4yNSAtOS43MWMtMC4yNSwtMS4wOCAtMC45NywtMS4xOSAtMS41NSwtMS42OXoiIGNsYXNzPSJmaWwxIi8+JiN4YTsgICA8cGF0aCBkPSJNMTEzNi40MiAxMTEyLjAybC0xMy4xMiAyMDYuOTJjLTMuNjYsNTUuNTYgLTguMzUsMTAzLjAyIC02LjE3LDE2MC42NiA0LjU0LDQyLjA5IDIwLjc4LDc5LjY5IDM4LjM3LDEwOS4xIDI1LjA3LDQxLjkyIDQzLjcyLDUwLjY3IDY3LjYzLDcxLjc2IDYuNiw1LjgyIDEuNjUsMC4zNiA2LjE5LDYuNjlsMTQ4LjQ2IDg0LjM0YzguOTcsNS4xNSAxNi45Myw5Ljk0IDI1LjQ3LDE0LjkgNi41NSwzLjggMTMuOTksMTEuMDQgMjAuNzEsOS42NSAxMS4yOCwtMi4zNCAyLjc3LDEuNCA3Ljc5LC01LjAybC05LjA5IDAuNDUgLTAuMDEgLTI1OS4zMWMtOC4yMSw0LjAzIC0xMC4xNiw2LjQxIC0xNi4zNywxNC41NSAtMTEuNjEsLTIuNDEgLTMwLjQ0LC0yNi4zMyAtNDAuODYsLTM2LjUyIC0xMy45MSwtMTMuNjEgLTI2LC0yNS43NyAtMzkuMzcsLTM5LjI0IC0xMy4yMywtMTMuMzQgLTI0LjEzLC0yNC4wOSAtMzksLTM5LjQ0IC0xMS41OCwtMTEuOTUgLTMxLjc5LC0yOC4wNyAtMzguNiwtNDAuNjcgMi45LC04LjQyIDE4LjY3LC0yMi40OSAyNi4zOCwtMzAuMSA5LjE3LC05LjA2IDE5LjkxLC0yMi42MSAzMC4xNCwtMjUuOTIgMTUuMjksMTEuMzYgMzMuOSwzMy4zNiA0OC44Miw0Ny43OCAxNC41NSwxNC4wNiAzOC41NCw0MC44OCA0OS45NSw0OC4yOCA2LjM3LC0yLjYyIDQ3LjMsLTQyLjg4IDUyLjc4LC01Mi42OSAtMTIuOTEsMy4yOSAtNS4yNyw2LjkgLTIxLjM4LDE4LjQzIC05LjkyLDcuMSAxLjQyLDMuMiAtMTIuMjUsNi4wMyAwLjk0LC01Mi43NyAtMy4wOCwtMzYyLjczIDEuOTQsLTM4My4zOCAxMy4wOSwtMy42NyA0MS40MiwxMC4wNiA1OC43Miw5LjcyIC03LjMxLC05LjA3IC0zMC44NSwtMTAuMTUgLTQyLjA3LC0xMy4xNyAtMjMuNjgsLTYuMzcgLTI0Ljk2LC0wLjQ2IC00NC4yNCwzLjU4bC04Ni4zMyAxOS45NWMtMzIuMTIsOS40NSAtMTUzLjM2LDMwLjQ5IC0xNjkuOTksNDAuMTUgLTAuOTEsOS42NCAtMC42NiwxOC4xIC0wLjgxLDI3LjcgLTAuMTEsNi43NiAwLjI5LDE5Ljc5IC0zLjcsMjQuODJ6IiBjbGFzcz0iZmlsMiIvPiYjeGE7ICAgPHBhdGggZD0iTTE0NTYuNTQgMTM1OC4xOGMxMS43LC00LjMzIDEwNC42OSwtMTA3LjY3IDExNi45MSwtMTEzLjM1IDguMzcsMy44NSA1NC43OCw1MS4xMyA1Ny4wMyw1Ny42MSAtMTYuODIsMTQuODggLTM4LjU2LDM3Ljc2IC01Mi43OCw1Mi40NmwtMTMyIDEzMS4zMWMtNC4zMyw0LjE1IC03LjU3LDcuNzYgLTEyLjU2LDEyLjc0IC02Ljk2LDYuOTUgLTguNjMsNy4wMyAtMTAuNDgsMTMuMmwwLjAxIDI1OS4zMSA5LjA5IC0wLjQ1YzcuMDgsMC4zMyAxNDYuMDksLTgxLjk1IDE2NS4xNywtOTMuMDYgNTkuNDgsLTM0LjY1IDkzLjUyLC03NS40NiAxMTkuNDksLTE0MS4yNiAzMi43NiwtODMuMDEgMS44NywtMjQzLjc3IC0yLjQ0LC0zNTMuMTggLTEuMDIsLTI1Ljg2IC00LjI4LC0xMDUuODEgLTkuNzMsLTEyMy4yNyAtMTAuODUsLTEwLjUxIC00MS4zOSwtOS45MiAtNTUuNjksLTE1LjY5bC05MC44NSAtMjEuNDljLTE3LjA4LC0yLjQgLTYyLjQ4LC0xNi4yNCAtNzQuMTQsLTE0LjA4IC0xNy4zLDAuMzQgLTQ1LjYzLC0xMy4zOSAtNTguNzIsLTkuNzIgLTUuMDIsMjAuNjQgLTEsMzMwLjYgLTEuOTQsMzgzLjM4IDEzLjY3LC0yLjgzIDIuMzMsMS4wNiAxMi4yNSwtNi4wMyAxNi4xMSwtMTEuNTMgOC40NywtMTUuMTQgMjEuMzgsLTE4LjQzeiIgY2xhc3M9ImZpbDMiLz4mI3hhOyAgIDxwYXRoIGQ9Ik0xODY0LjcxIDM4Ny41NmM0OC45MiwwLjEgMzkuMDEsLTEzIDYzLjMyLC0xMC42MyA4Ljc2LDE3LjI1IDMwLjgzLDMzLjcgNDIuMDcsNTAuMTQgNy41NCwxMS4wNCAyLjU1LDkuNzUgMTMuMTYsMTkuNzdsMjQuMzkgMjkuMDRjMS4xMSwxLjIgMy40Myw0LjAxIDQuNTMsNS40NWwyNS4yMyAzNy45MmMyMi40NiwzMS41NyAzMS44OSw1NS4wOCA0OC40Myw3OC40MiAyMC4yNywyOC42IDQ0Ljk1LDEwMC4xNyA2Mi4xNiwxMjkuNzQgNS42Miw5LjY1IDIuNSwxMy42IDUuOTYsMjQuNTQgMS41NSw0Ljg5IDYuODYsMTMuMzUgOS44NSwyMy4wMyAxNC4wOSw0NS43MSAyNC4wNCw3OC4wMyAzMy41NSwxMjQuMzRsOS43OCA1My45NmMxLjkyLDEzLjY3IDQuMjEsMTUuOTYgNS4yMiwyNy4zNCAxMi42NCwxNDIuMzUgMTQuNTksMjA2LjcyIC0xMC43NCwzNTIuMjIgLTQuNDMsMjUuNDIgLTcuNjgsNDkuMTggLTE2LjQxLDcxLjgyIC01Ljg2LDE1LjE4IC0xMC42NCw0OS4yOCAtMjIuNzIsNzYuNzQgLTEuMTIsMi41NSAtMS44Niw0Ljc5IC0yLjc0LDcuMjVsLTEwNy42MyAyMjQuMTFjLTEwLjM1LDE3LjUgLTIzLjcyLDMyLjc4IC0zNC41LDUxLjg3bC02OC43OSA4NS40MSAtMTU4LjQ3IDE0OC4wNWMtMTMuMDYsOS4xOSAtMjUuMTMsMjAuOTEgLTQwLjA2LDI4LjgxIC0yMi40MiwxMS44NyAtMjIuOTMsMTYuOTggLTUyLjg5LDM0LjgzbC04Mi44IDQ2LjVjLTI5LjcsMTMuODEgLTgxLjE5LDM4Ljg1IC0xMDkuNjEsNDUuODhsLTUxLjIzIDE3LjI2Yy00LjM5LDEuNDUgLTkuMDMsNC40OCAtMTMuNjQsNS45NiAtMjYuMTMsOC4zNyAtMzEuNjcsNC4yIC01My4xOSwxMi41OCAtMjEuNjYsOC40MyAtNDkuOTMsMTIuNCAtNzIuMzUsMTYuMzVsLTU3LjcgOC4xM2MtOS4xLDAuNzMgLTkuNzcsMi42NCAtMTguMTksMy44NCAtNTYuMjcsOC4wNiAtMTExLjcsNS4xIC0xNjYuNzYsMy41NyAtNTIuNzUsLTEuNDcgLTEwNy4wOCwtNy4zNyAtMTU4LjIsLTE4LjYgLTEyLjQ2LC0yLjc0IC0yMy45MywtMi45OSAtMzUuNjYsLTcuNzcgLTguMzIsLTMuMzkgLTcuMDIsLTQuMSAtMTYuNSwtNS4xOGwtMTUyLjYxIC00OS4yM2MtMTkuMDQsLTcuOSAtMTE1Ljc2LC01Ny4zOSAtMTIwLjc4LC01Ni4yMSAtNi45MSw0LjU1IC0xMy4yMiwxMi42NCAtMTMuODksMjMuMDIgMy4xMiwzLjQgMC45MSwxLjk4IDYuMDgsNS4zNWw5NC43NCA0Ni42N2MxMy41Miw1LjEzIDMyLjgsMTguNDYgNDUuMDcsMjAuODMgMTEuMzYsMi4xOSA5Ljg2LC0wLjM1IDE5LjM5LDMuNzkgNS4xNCwyLjIzIDEwLjAzLDUuNDggMTQuOTgsNy41NyA1Ny41OCwyNC40MSAxOTAuNTIsNTEuNDEgMjUxLjQ1LDU2LjM0bDEzOS4zNyA2LjA2YzI5Ljk2LDAgNzMuOTMsLTIuMjMgMTAxLjgxLC02Ljg1IDMxLjA3LC01LjE2IDY3LjgsLTcuMDQgOTYuODYsLTE1LjFsNDYuMzQgLTkuMTVjMzEuMTcsLTYuMDMgNTQuNzIsLTE2LjU2IDg0LjY0LC0yNi4xN2wyMTEuOCAtOTQuOThjNi41NiwtNC4xNyAxMi41LC01LjE2IDE4Ljc3LC04Ljg3bDM1LjM4IC0yMC44YzkuNzEsLTUuMjUgNi44NiwtNi4yNiAxNC42MiwtMTIuODYgMTYuNjksLTE0LjIgMzkuNTIsLTI0LjI3IDYzLjU1LC00NS4zNSA3LjE3LC02LjI5IDEwLjAyLC01Ljc3IDE2LjM5LC0xMS42MWwzMC42NiAtMjQuOTRjOC4yNSwtNi45MyAxOC41MiwtMTkuOTMgMjcuODEsLTI3Ljk2IDUuOTUsLTUuMTQgOS4zMywtNi41NyAxNS4yOSwtMTIuNjIgMjEuNzYsLTIyLjA1IDQ3Ljk3LC00Ni40NiA2Ni40NywtNzIuOTNsMjguMDMgLTMyLjUxYzEuMjUsLTEuNTggMi4wOCwtMi43OCAzLjM5LC00LjQxbDc1LjYxIC0xMDYuNzRjMi4yMiwtMy44NyAyLjUzLC00LjI4IDQuODksLTcuODYgMTcuMDgsLTI1Ljg1IDMwLjU4LC01My43NSA0NC44MiwtODEuOTQgMTAuMzgsLTIwLjU0IDI5LjEyLC01My43MSAzNS4yMSwtNzUuMzMgNy42MiwtMjcuMDQgMjQuNTYsLTUxLjM4IDMwLjI4LC03OC41MiAzLjMxLC0xNS43MiA3LjQzLC0yOS4zMSAxMi4yMywtNDQuMTEgMi42NywtOC4yMyAzLjI1LC0xNS40NiA1LjM2LC0yMi4zOSAxOC42OSwtNjEuMzYgMTcuNDUsLTk1LjQgMjcuMzcsLTE0MC4xOCAxLjk5LC04Ljk4IDQuNzEsLTEwLjc4IDUuMTIsLTIwLjg2IDIuODgsLTcxLjU3IDcuMDcsLTE0Ni4zIDAuNTIsLTIxNy43MyAtMS40NiwtMTUuOTQgLTcuOTcsLTg1LjI1IC0xMi4yOCwtOTguNDYgLTQuOTksLTE1LjI5IC01LjA5LC0zMS41IC05LjAzLC00Ny40IC0xLjQ3LC01LjkyIC00LjYzLC04Ljk0IC02LjY2LC0xOS4yNyAtMTIuNjQsLTY0LjU1IC0zNS4wNSwtMTI4LjgxIC02MS40MiwtMTg3LjgzbC0yNS42MSAtNTguMTVjLTIyLjE3LC0zNS4xMiAtMzUuNzYsLTcyLjY5IC02Mi43NSwtMTA0LjM5bC04LjcgLTEzLjUzYy0wLjI2LC0wLjQ5IC0wLjYyLC0xLjE0IC0wLjg4LC0xLjY0bC00Ni42OSAtNjcuNzljLTUuNDMsLTUuOTYgLTcuNjQsLTEwLjYxIC0xMi4xLC0xNS43NCAtNy45NCwtOS4xMyAtNS41NCwtMC44OCAtMTMuNTYsLTE0LjM0IC0xNi40MSwtMjcuNTIgLTUxLjA3LC00MC42MiAtMzkuNDQsLTY0LjI0IDguNTYsLTE3LjQgMTEuNDcsLTIxLjkgOS40NCwtNDcuMDkgLTQuNzcsLTU5LjA2IC03MC4zNywtOTUuMzcgLTEyNS40MSwtNzEuMjggLTEwLjY4LDQuNjcgLTE3LjQxLDkuOTUgLTI1LDE3Ljk3IC0xNC45MiwxNS43NSAtMjYuMTgsMzIuNDMgLTI3LjAxLDU4LjQ1IC0wLjY0LDIwLjA4IC0wLjAzLDIxLjAxIDYuNTMsMzYuMzYgNi42MSwxNS40NiAyMi42MSw0MC41NSAzOC42Miw0Ny4yMiAxMS4zMSw0LjcxIDI0LjYsNi45OSAzOC4wMyw3LjAxeiIgY2xhc3M9ImZpbDQiLz4mI3hhOyAgIDxwYXRoIGQ9Ik0xMjI5LjMyIDE2NjcuMTVjLTQuNTMsLTYuMzMgMC40MSwtMC44OCAtNi4xOSwtNi42OSAtMjMuOTEsLTIxLjA4IC00Mi41NiwtMjkuODQgLTY3LjYzLC03MS43NiAtMTcuNTksLTI5LjQxIC0zMy44MywtNjcuMDEgLTM4LjM3LC0xMDkuMSAtNy4zNSwtMTEuMzUgLTMuMjUsLTQ3LjI4IC0yLjY3LC02MC42NCAtNDcuMzksNC4zMyAtMTM4LjI4LC00LjggLTE4OS4xOSwtMTAuOTVsLTEwMi42NyAtMTYuNTljLTM0LjA3LC0xMS4zOSAtNzEuMjMsLTE0IC0xMjAuNTQsLTM4LjQgLTE3LjE0LC04LjQ4IC0zMy40OSwtMTQuNjkgLTQ4LjE5LC0zMC4xNCAtMjEuMTEsLTIyLjE5IC01LjczLC0yOS43OSAzLjAyLC00My4zMSAyLjY1LC00LjEgMC44MSwtMC43NyAzLjE2LC01LjgyIC0yOC4wNiwxNS41OSAtMjAuMjcsNTYuOTMgLTIwLjM4LDEwNC42OSAtMC4wNiwyNS44OSAtNS4wMywxNjAuMDkgNi4yMSwxNzguMDcgMjguNTEsNDUuNjIgMTA0LjYsNTUuMjIgMTQ2LjgyLDcyLjg2bDc5LjE0IDE0LjU0YzIyLjU2LDEuODkgMzUuNyw2LjE0IDU1Ljg2LDcuNTIgMTkuMDgsMS4zIDM4LjQ3LDYuMDIgNTUuNiw3LjA5IDM5LjU3LDIuNDggNzUuNyw1LjQ3IDExOS4wNyw1LjQzIDI3LjkyLC0wLjAyIDEwNS4yMiwtNC4yIDEyNi45NiwzLjIxeiIgY2xhc3M9ImZpbDEiLz4mI3hhOyAgIDxwYXRoIGQ9Ik0yODAuODMgMTk0NS43NmMwLjA4LDEzLjMgNi4wNSwzMy4yMSAxMS4yNyw0NC45OCA3LjA5LDE1Ljk3IDMzLjg5LDM0LjM0IDUxLjg1LDM5LjcxIDI3Ljk1LDguMzUgNjEuMzcsMi4zOCA4Mi40LC0xOC41OSAyNC45NywtMjQuOSAzMi40OSwtMzguMjcgMjkuOCwtNzguNjYgLTMuMjEsLTQ4LjE5IC00OS41OCwtODMuODMgLTEwNC43NywtNzQuMzIgLTM4LjQzLDYuNjIgLTI0Ljc5LDIyLjUzIC02My45MywtMjIuNjggLTkuNzEsLTExLjIyIC0xNC4wNiwtMjEuODcgLTI3Ljk0LC0zNy44NGwtNDIuNzMgLTU1LjU4Yy04Ljk3LC0xNC4xIC01LjA5LC00IC0xMi41OSwtMjAuNyAtNS44MSwtMTIuOTMgLTcuNDcsLTguOTMgLTEzLjQ0LC0xOS40NGwtNzcuMzMgLTE1My4xOGMtOS44MywtMTkuNDkgLTE1Ljc5LC0zOC42NyAtMjEuNTgsLTYwLjU5bC0yMS40OCAtNjEuNGMtMy4wMywtOC41NCAtMy4xMiwtMTguNjMgLTQuOTEsLTI4LjQ3IC0yLjQyLC0xMy4yNyAtNS45OSwtMTAgLTguNywtMjMuMjFsLTE1LjggLTgyLjU3Yy0zLjU4LC0xNi41NiAtMS40NCwtNDUuMzYgLTUuNjgsLTYxLjExIC0xNC45NiwtNTUuNTUgLTQuMjgsLTE0OS42MSAtMS42NiwtMjEwLjc3IC0wLjAyLC0xNC43OCA0LjE4LC0xOS43MSA0LjQ5LC0zOCAwLjM4LC0yMS44MyAyMS43OCwtMTI3LjgyIDI4LjE1LC0xNDQuNTlsMTAuNTkgLTMyLjgyYzUuMzMsLTI2LjM1IDIxLjc4LC02OS41OCAzNC4yMywtOTQuMzcgNS4yNCwtMTAuNDMgOS4xLC0xOS4yOCAxMywtMjkuNSAxNS4yNSwtNDAuMDEgMzcuNzQsLTc2LjczIDU4LjQ3LC0xMTQuNzUgMTEuMzUsLTIwLjgzIDU1LjAyLC04Ny4yNyA2OC43OCwtMTAzLjMgNC4wMSwtNC42NyA1LjIxLC00LjY0IDkuNjcsLTEwLjc2bDQ4Ljk4IC01OS43NmMzLjI0LC0zLjgyIDUuNzgsLTYuMTQgMTAuMDEsLTEwLjJsNTQuNjMgLTU0LjI3YzYuMTQsLTYuMDkgMTYuMjEsLTE0LjQ4IDIyLjc5LC0yMC4zIDcuMTcsLTYuMzMgMTUuNjQsLTE1LjQ1IDIyLjkyLC0yMC4zNGw0Ny40NyAtMzguMzdjNy41MSwtNy4xNSAxMy45NywtMTAuMDkgMjUuMTcsLTE3LjY0bDY1LjQxIC00My43M2MxNy40OSwtMTEuNDQgMzkuODEsLTIwLjQgNTYuNywtMzEuODMgMjAuNzcsLTE0LjA2IDc4LjA3LC0zOC4yOCAxMDMuMTcsLTQ2LjUyIDI3LjgxLC05LjEzIDQ5LjgyLC0yMi4yNiA3OC4xLC0yOC4zNWw4NS41IC0yMy42M2MzMy4yNiwtOS41NSA0OS45MiwtNi40OCA3NS42MSwtMTEuMTkgNy40MSwtMS4zNiA4LC0zLjg0IDEzLjg0LC01LjM4IDM2LjMyLC05LjYgMTA1LjI1LC0xMC4yMyAxNDEuMjYsLTExLjE4IDI4Ljg4LC0wLjc2IDU3LjQyLDEuMDIgODYuMjMsMS4zNiAyNy42NiwwLjMzIDEyOC43OCwxNi4zOSAxNDkuOTgsMjEuM2wzNC43MyA4LjMxYzEwLjY0LDQuMDcgMjMuMTMsNi4xMiAzNC42MSw4Ljk3IDMzLjUyLDguMzEgMTAxLjQsMzEuODIgMTI4LjQxLDQzLjg4IDIxLjY0LDkuNjcgNDcuMDQsMTkuNjMgNjYuODEsMzEuMDggMTQuNzUsOC41MyAzNi45MiwxNC44MyA0OC44MiwyNy4wMWwxNC44NyAtMjQuNSAtNS4wMiAtNC45Yy05LjYzLC04Ljg3IC0yMy44LC0xNS4yOCAtMzQuODQsLTIxLjE0bC00My44OSAtMTkuNzVjLTQ2LjgsLTI0LjQ4IC04OS40NCwtMzcuMzMgLTEzNy44MSwtNTIuMDcgLTcuODYsLTIuMzkgLTE0LC02Ljg1IC0yMS43OSwtOC4zNCAtMTUuMTMsLTIuOSAtMTQuODksLTMuODIgLTI2LjAzLC02Ljk1IC0xMi40NiwtMy41MSAtMTEuODMsLTAuOSAtMjQuMjgsLTYuMDQgLTEwLjg2LC00LjQ5IC03MC40MywtMTQuNDQgLTgxLjg2LC0xNS45OSAtMTE5Ljg3LC0xNi4zNCAtMTgwLjcsLTE1LjIgLTMwMC40NywtNi41NSAtMzcuNzIsMi43MyAtNjkuNzgsMTEuOTkgLTEwNi43LDE4LjMxIC0zNC41LDUuOTEgLTI5Ljk5LDguNTkgLTU1LjM0LDEyLjMgLTI4LjQ2LDQuMTcgLTU1LjIyLDE2LjMxIC04Mi41MiwyNS4ybC01OC42OSAyMi4yYy00NS42OSwxNi42NiAtMTE1LjU4LDUzLjM2IC0xNTYuNTEsNzkuNDRsLTUxLjcgMzIuMDNjLTguODcsNi45NSAtNy42OCw2LjM2IC0xOC4xLDEyLjY2IC0yLjcxLDEuNjMgLTUuODcsNC4xOSAtOC40NSw2LjM4IC0zLjI5LDIuOCAtMC40LDAuNTYgLTQuMTIsMy41MSAtMC4zMywwLjI2IC01LjM4LDMuOTEgLTUuOTIsNC4yOGwtMTM1LjEgMTE4LjEyIC00NC43MSA0OS4wM2MtOC45OSwxMi4wMiAtMTcuODQsMTguNTkgLTMwLjEsMzUuNzZsLTQxLjYzIDU0LjUxYy05LjYzLDEzLjA4IC0xNC4zOCwyNi4wNiAtMjQuODMsMzguNTUgLTkuOTMsMTEuODcgLTE2LjUzLDI2LjAyIC0yNC4yMSwzOS4wOGwtNDMuNzQgODIuODljLTcuMTMsMTQuOTcgLTEzLjIsMzAuNjUgLTIwLjA4LDQzLjI4IC0xMy42NCwyNS4wNyAtNDIuNjEsMTEyLjE2IC01MC42MywxNDIuMDdsLTEyLjI4IDUwLjU5Yy05LjU0LDUxLjg1IC0xMi4zMSw0Ni4xMiAtMTguMzYsMTA5LjIxIC03LjM3LDc2LjkgLTkuNjEsMTY2Ljk5IC00LjQ3LDI0NS45OSAwLjg4LDEzLjQ4IDMuMTQsMTMuOTMgNC40MSwyNS4yNyAxLjE5LDEwLjY2IDAuNjcsMjEuNTMgMi4xNywzMi4xMmwxNS4wNSA3Ny45NWMyLjMzLDEwLjA0IDIuNzQsMTcuODMgNS43NSwyNy40N2wyOC41MiA5OC41NmMxNy4yOSw1NS4xMSA2Mi44OSwxNTYuMSA5NS4xNywyMDYuMDggMi4wOSwzLjIzIDQuMjUsOCA2LjIxLDExLjQ1bDM1LjY0IDU3Ljc0YzUuNjQsOC4xMyA3LjE2LDUuNjcgMTQuODksMTguNDhsNTQuODYgNzEuNTVjNi4wNiw2Ljk2IDI3Ljk2LDI1LjkgMjguNjcsMzQuNTIgMC43LDguNTIgLTEzLjQ0LDI1LjgyIC0xMy4yOCw1Mi45N3oiIGNsYXNzPSJmaWw0Ii8+JiN4YTsgICA8cGF0aCBkPSJNNjYyLjgzIDEyNjkuOTljNy43NiwtNC4xOCA1LC0xNC45NSA1LjQyLC0zMC40OCAyLjUyLDAuNTcgMzAuNDUsMTcuMzkgNDIuMiwyMi4wOSA1Ni40NCwyMi41OCAxMDIuMDcsMzIuOSAxNjMuMTQsNDEuMjIgMTUuMDcsMi4wNSAzMi40Nyw3LjUgNTYuNTIsOC45MyA0Ny41MSwyLjg0IDE2My42MiwxOC41OCAxOTMuMTksNy4xOWwxMy4xMiAtMjA2LjkyYy0yLjA5LC0xMS4yNiAtMC41NiwtMjIuNDYgMi4yOSwtMzMuNjQgLTg4LjYzLC0wLjE2IC0xNjMuMTIsLTUuOTkgLTI0OC40NSwtMTYuOTIgLTQwLjE4LC01LjE0IC0xMTUuNjksLTIzLjExIC0xNTQuMjksLTM2LjMgLTg1LjI1LC0yOS4xMyAtNzMuNzgsLTQ4LjY5IC05NC43MSwtNTcuMDJsLTAuMTYgMjE1LjMxYy0wLjI1LDI1LjczIDUuOTgsMzkuMTMgMjMuMzMsNDguMDNsLTEuNjEgMzguNXoiIGNsYXNzPSJmaWwxIi8+JiN4YTsgICA8cGF0aCBkPSJNNTQwLjIgNDc5LjMyYzUuMiwtNi44NCAxNi40MSwtMTMuMjEgMjQuMzYsLTIxLjE1IDIzLjQ1LC0yMy40NCA1My4yNSwtNDEuMTIgODEuNzYsLTU5Ljg1bDg5LjEgLTUyLjc2YzE5LjU5LC0xMS4xNSA3OS40MywtMzQuMTYgMTAwLjQsLTQxLjQ2IDgxLjg0LC0yOC41IDE1My41MiwtNDEuODggMjQwLjYsLTQ2Ljg4IDEwNC40MSwtNS45OSA5My4xMiwxLjAzIDE4MC40Niw3LjE2IDE1LjQ2LDEuMDggMjUuMjksNC4wMSAzOC44OSw3LjE3bDc2LjA1IDE5LjQ5YzcuNzMsMi42NiAxMS41LDIuMjQgMTguNjcsNC4wNCAxOS44OSw0Ljk5IDY2Ljc3LDI0LjcgODYuNjksMzMgMzIuNzQsMTMuNjQgNjEuMywzMy4zMiA5Mi42Myw0OC40N2w0NC4zMSAyNi44YzUuNDcsNC4xNyA2LjU4LDYuMDIgMTMuOTMsMTEuMjdsNDYuNTQgMzQuOWM1LjY3LDcuMDYgLTEuOTIsMC43NyA1LjI1LDYuOTVsMjguMTIgMjAuMThjMjAuNjMsMTguOTcgNzUuODYsNzMuMjcgOTIuNzMsOTcuMjFsNTAuNDQgNjguMzVjNi4yOCw3LjczIDQuMzMsNy45NCA4LjE0LDE1LjE1IDExLjQ0LDIxLjY3IDIyLjI4LDM0Ljg1IDM1LjYyLDYwLjIyIDUuODMsMTEuMDkgMTAuODEsMjEuMDIgMTYuNDIsMzEuNDcgNS4zMyw5Ljk0IDguOSwyMy4zMSAxMy45LDMyLjIxIDE0LjM5LDI1LjU5IDQzLjkzLDExMy41NiA0OC4zNCwxNDEuNiA0LjIsMjYuNzIgMTMuMTYsNTQuMjcgMTUuMzIsODAuODIgMS40NSwxNy44IDMuODEsMjQuODcgNS4xNCw0My4wMiA0LjQ5LDYxLjQ5IDMuOTksMTIzLjU4IC0yLjE1LDE4Mi4zNSAtMS41NCwxNC43NCAtMy42OCwyNy40MyAtNS41NSw0MC41MSAtMS44MSwxMi42MiAtMi4zMywyOC44OSAtNy43Myw0MC4xNiAtNS4wNywxMC41OCAtMi41NSw0LjU4IC00LjA0LDE4LjE2IC0xLjkxLDE3LjQ2IC0zLjI1LDYuNDIgLTYuNDgsMTguNiAtMi4wNiw3Ljc5IC0wLjg5LDEwLjg4IC00LDE5LjMxbC0xMS45OSAzNy4yMmMtMi4xNiw0LjggLTMuNywxMC43NyAtNS40LDE3LjAyIC01LjMsMTkuNDggLTMyLjk3LDg4LjYgLTQ0LjUyLDk3LjcxIDE0LjI2LDQuODMgMTUuODksMTIuMDggMzMuMTksOS44NSA2LjMyLC04Ljc1IDMwLjQ4LC03MC40NyAzNS4xMiwtODEuMjYgMTIuMzIsLTI4LjY0IDIwLjk4LC02MC4wNyAyOS41NiwtOTAuNTUgMTUuMzEsLTU0LjQgMjguNzEsLTE1My42IDI4Ljk1LC0yMDcuNzEgMC4xMywtMzAuOTggLTAuNDIsLTg3LjQgLTUuMDYsLTExNC40MmwtMjIuMDcgLTEyMy45OGMtMi41MSwtOS45MiAtNC4xMiwtMTIuOTEgLTcuMDgsLTIyLjU3IC0yLjI3LC03LjQyIC00LjAyLC0xNC4zMiAtNi4xNCwtMjQuNzdsLTI5LjY0IC05MC42N2MtNC4zLC0xNS4yOCAzLjA2LDMuNjkgLTIuMDgsLTQuNjggLTAuMjQsLTAuMzkgLTAuNzUsLTAuOTMgLTEuMDEsLTEuM2wtOC4yIC0xMi4yN2MtMTcuNzksLTMyIC0zMS4wMSwtNjYuOTkgLTUwLjUyLC05Ni41bC02MC44NiAtODguMzljLTEyLjQ4LC0xMy42MyAtMzEuNjEsLTMzLjAxIC00MC42NywtNDguMDQgLTMuOTksLTYuNjMgLTguNDUsLTkuMDUgLTE0LjcsLTE1LjYxIC0xOS41NCwtMjAuNDggLTM5LjQxLC00Mi4xNCAtNjAuNzgsLTU4LjM2bC00Ny45NiAtNDAuNDVjLTcuNSwtNS42IC0xMS44NCwtNS4wMyAtMTkuMjYsLTExLjIybC0zNS40MiAtMjUuNDNjLTEzLjQ4LC0xMC4yIC03Ni41MiwtNDcuNjUgLTkyLjg2LC01My41NmwtNjMuNzggLTI3Ljc5Yy0xMi42NSwtNC45IC0zMS40NSwtMTAuNDEgLTQzLjU4LC0xNS4xNWwtNjMuNjYgLTE5LjQ5Yy0xMC4yNSwtNi4yNiAtMTEuNzgsLTIuNTcgLTI0Ljk5LC01LjYxIC0xMDQuNTYsLTI0LjEgLTIxMy43OCwtMzAuMzkgLTMyMy40NiwtMTQuOGwtNzUuOCAxMi40NWMtMjMuNzUsMy45NyAtNDguMDksMTIuNDkgLTcwLjI3LDIwLjA1IC0yMi4zNiw3LjYyIC00Ni4yOSwxMS40IC02Ny45NywyMS41NiAtMzIuODMsMTUuMzkgLTcxLjE5LDI3Ljc1IC0xMDEuODksNDcuMyAtNy42Miw0Ljg1IC0xMC40Niw2LjUgLTE3LjYyLDEwLjc4bC04OS44NiA1OS4zNGMtMi45NiwyLjI4IC01LjcsNC41MyAtOS4wNiw2LjU2bC0xMS4zNiA2LjIxYy0wLjQ1LDAuMjcgLTEuMSwwLjY1IC0xLjU0LDAuOTMgLTEyLjQzLDguMjIgLTI5LjUxLDM3LjM2IC00Ny4xLDM1Ljg3IC0xOS40OCwtMS42NSAtMjIuMSwtMTQuMDIgLTUwLjg3LC0xMC44NiAtMjAuNzgsMi4yOCAtMjkuOTEsMi4yNSAtNDUuNjMsMTMuNDUgLTc1LjQ5LDUzLjgxIC0zNy45OSwxNjUuMjYgNTMuMDksMTY0LjgzIDE5LjU0LC0wLjA5IDI4LjU5LC02LjQgNDMuODgsLTE0LjA4IDcuMDQsLTMuNTMgMi4yOSwwLjU4IDkuNiwtNi4ybDE5Ljk3IC0yNS4zNGMxMC41LC0yMC4yNSAxMC43LC0yMS41NyAxMC4zNywtNDguNDYgLTAuMywtMjQuNjMgLTcuOTcsLTI3LjY3IC0xMi45LC00OC4wOHoiIGNsYXNzPSJmaWw0Ii8+JiN4YTsgICA8cGF0aCBkPSJNMTcyMi44OCAxODAzLjQ2YzI0LjA0LDkuNjcgNDUuMzgsMjEuOTMgNzUuMDQsMTQuOTkgNzkuNiwtMTguNjMgOTYuMzksLTEyMS4yOCAyOC40LC0xNjMuNDkgLTI5LjIsLTE4LjEzIC03Ni4zLC0xNy44NiAtMTA0LjUyLDUuOGwtMTUuODEgMTcuM2MtMzUuMDgsNTQuMDEgLTQuNjcsODcuOTYgLTIuODQsOTYuNjcgMS4xNCw1LjQzIC0yLjQ3LDEwLjc0IC01Ljg1LDEzLjYxbC0xMzYuOCA5My43M2MtMjQuNiwxNi4xOSAtOTMuMDgsNDcuODcgLTEyNC4yNyw2MC4yMSAtMzQuNTksMTMuNjggLTY5LjU0LDIxLjEgLTEwNS4xMiwzMS42OCAtNjguMDcsMjAuMjQgLTIyMS44OSwzMy41NSAtMjk0Ljc4LDE5LjgxIC0xNC43OSwtMi43OSAtMzAuMTQsLTIuNTEgLTQ2LjU1LC02LjAxbC00My4yNSAtNy4xOGMtOC45NCwtMS42MSAtMTMuNjcsLTIuMjkgLTIxLjUyLC00LjU1bC00MC41MyAtMTEuNjVjLTM0LjcxLC02LjIgLTY1LjAxLC0yMC4xOCAtOTcuMDIsLTMyLjY0IC0xMy42LC01LjI5IC0yMi41MywtMTAuNjIgLTM2LjUxLC0xNi45NiAtNDMuOTMsLTE5LjkzIC0xMDguNTksLTU0LjU5IC0xNDUuMTgsLTg3Ljk3bC00NC43NSAtMzMuNjhjLTcuODcsLTYgLTE3Ljg5LC0xNS44IC0yNy44NCwtMjUuMjcgLTUuMjksLTUuMDMgLTguMDMsLTcuODcgLTEyLjkxLC0xMi40NWwtNzYuMDMgLTgwLjk0Yy0zLjU0LC00LjIzIC00Ljc2LC05LjcxIC05LjY3LC0xNS41OSAtMTUuNjIsLTE4LjcgLTI5LjEzLC00MS4zMiAtNDMuNjQsLTYwLjI0IC01LjYsLTcuMjkgLTQuNCwtOC45IC04LjY1LC0xNi44MSAtNC4yOCwtNy45NyAtNi41OSwtNy45NCAtMTEuMzcsLTE2LjIzIC0zLjIyLC01LjU5IC01LjAxLC0xMS42NyAtOC43NSwtMTYuOTkgLTMuNzQsLTUuMzMgLTUuOTEsLTUuNTEgLTEwLjE3LC0xNC41MSAtMTIuMjQsLTI1LjkgLTI0Ljg2LC00Ni44OSAtMzEuMjUsLTczLjkzIC0yLjczLC0xMS41NiAtMTEuMzUsLTE5LjYyIC0xNS42NCwtMzYuMjcgLTUuMTUsLTIwLjAzIC0xNC42OCwtMzYuMjEgLTE5LjQ0LC01Ni4yMyAtMy4wMSwtMTIuNjcgLTMuMDUsLTIxLjQxIC04LjA5LC0zMy4yNCAtMS4yNiwtMi45NSAtMi41NCwtNy4wMiAtMy4yMiwtMTAuMTQgLTEuNTksLTcuMjUgLTEuNzgsLTEyLjc1IC0zLjgsLTIwLjcyIC0zNS42OSwtMTQwLjY1IC0xNy41NywtMzEzLjEzIDI0LjcxLC00NDkuMDhsOC45OSAtMjMuMjFjMy4xNCwtNy4wOSAzLjM4LC0xNi41NyA2LjUzLC0yNC43OSAzLjM3LC04LjggNy4xOCwtMTQuNzkgOS44LC0yMy4yNCA2LjQ1LC0yMC43NSAxOC4wNSwtMjIuODggMTgsLTQ5LjMgLTcsLTMuNjEgLTExLjA1LC03LjMxIC0yMS4zNSwtNy4yMyAtMjIuMDUsMjUuNDQgLTQ1Ljc1LDEwMy45NiAtNTcuOSwxMzcuNyAtMTEuNiwzMi4yMiAtMzAuMTgsMTM0Ljg0IC0zMi42NywxNjIuNTcgLTQuMDMsNDQuODQgLTkuOTMsMTE3LjM4IC00LjcyLDE2My44MyAxLjE3LDEwLjQ4IDMuMTQsOC40MyA0LjEsMjAuMzUgMS4yNywxNS44OSAwLjA5LDI5LjM1IDMuOTgsNDQuMzYgMi43NSwxMC41OSA1LjczLDMwLjI2IDcuNTgsNDAuMDVsOC41MSAzOS43MWMxLjc5LDEwIDAuOSwxMC40NSA1LjQ2LDE5Ljk4IDIuNTcsNS4zNiAxMC4yNyw0Ni45NCAyOS41MSw5MS44MiAxOS4xNCw0NC42NiAzNS41Myw5Mi40MiA2Mi43MywxMzIuNTUgMTQuMTEsMjAuODIgMjIuNzYsNDEuMTQgMzguNDQsNjAuNThsNTEuNjQgNjcuMzdjNS45OCw2LjgyIDUuMzEsNy45NiAxMC41OCwxNC44NyAxMy43NSwxOC4wMSA2Ni44NCw2OS4xNCA4Ni4yNyw4NS42OSA3LjEsNi4wNSA3LjY0LDQuMDQgMTQuNCwxMC45NyAxNiwxNi40IDM4LjcsMzAuNjkgNTUuOTYsNDIuODhsODkuMDkgNTcuNTkgMTE2LjI5IDUzLjY3YzcuNzksMy4xMiAxMy4zMSwyLjU4IDIwLjE4LDUuMjMgOS44NiwzLjgxIDIzLjIyLDkuODEgMzUuMzksMTIuMTEgMjAuNTksMy44OSAzNS40MiwxMi45OCA1NS42LDE1LjMgMTUuNTMsMS43OCAyNy45Miw3LjgzIDQwLjgxLDEwLjA4bDEwOC40NCAxMS45NWMzMy4zMiwwLjU2IDY1LjU2LDAuNjYgOTguODYsMC42MyAyOS41MiwtMC4wMyA1OC41MSwtNy4xIDg4LjY3LC03LjgyIDE0LjI5LC0wLjM0IDI2LjA0LC00LjI4IDM5LjczLC03LjE1IDM0Ljk4LC03LjM1IDY0LjM0LC0xMy43MSA5Ni43NCwtMjQuMjEgNi42NywtMi4xNiAxMy44MiwtMi4zIDIxLjIzLC01LjA0IDE5Ljc1LC03LjMxIDk0LjAzLC0zNS4zOCAxMDQuMTgsLTQyLjU2IDE2LjA4LC0xMS4zNyA2NiwtMzIuMjcgOTQuMjYsLTUyLjU3bDIyLjk1IC0xNS4xNmMyOS4yMiwtMTkuNDEgNjUuNCwtNDUuNjggODkuMzcsLTcwLjU5eiIgY2xhc3M9ImZpbDQiLz4mI3hhOyAgIDxwYXRoIGQ9Ik02NjQuMDcgOTI3LjZjLTguODgsMTAuMjQgLTI1LjQ1LDE5LjYgLTIyLjgxLDQwLjU1IDIwLjkzLDguMzMgOS40NiwyNy44OSA5NC43MSw1Ny4wMiAzOC42LDEzLjE5IDExNC4xMiwzMS4xNiAxNTQuMjksMzYuMyA4NS4zMiwxMC45MyAxNTkuODEsMTYuNzYgMjQ4LjQ1LDE2LjkyIC0yLjg1LDExLjE4IC00LjM4LDIyLjM4IC0yLjI5LDMzLjY0IDMuOTksLTUuMDMgMy42LC0xOC4wNiAzLjcsLTI0LjgyIDAuMTUsLTkuNjEgLTAuMSwtMTguMDYgMC44MSwtMjcuNyAxNi42MywtOS42NiAxMzcuODcsLTMwLjcgMTY5Ljk5LC00MC4xNWw4Ni4zMyAtMTkuOTVjMTkuMjgsLTQuMDQgMjAuNTYsLTkuOTUgNDQuMjQsLTMuNTggMTEuMjIsMy4wMiAzNC43Niw0LjExIDQyLjA3LDEzLjE3IDExLjY2LC0yLjE2IDU3LjA2LDExLjY4IDc0LjE0LDE0LjA4IDQuODYsLTUuODQgLTEsLTAuNTcgNi43MiwtNS43MiAwLjcxLC0wLjQ3IDQuMSwtMi4yMSA1LjA2LC0yLjdsMjkuNyAtMTUuN2MzMy43LC0yMC4yNSAxOS40LC0yMy41NSAzNi4xOSwtMjkuMyAxLjc5LC0xNi41NyAtOC45MSwtMzIuMTkgLTE5LjQyLC0zNy42NyAtMTIuMzgsLTcuNTggMC4yNiwtMjAuNTkgLTkuNCwtMzguMDEgMC4wNiwwLjM0IC0wLjE0LDAuOSAtMC4xOSwxLjAyIC03LDE1LjA3IC03Ni4wNSwzNy43NyAtOTIuMzcsNDEuMjUgLTkuODQsMi4xIC0xNy41MSw1LjE2IC0yNy42OSw4LjE1bC04NyAxNy41NWMtMTU5Ljg0LDI0LjI4IC0yNDAuOCwxOC43OSAtMzkzLjA5LDEzLjc1IC00NS42OCwtMS41MSAtODQuNzMsLTcuMzYgLTEyNi43LC0xMi44NiAtMzYuNzUsLTQuODIgLTc4Ljk0LC0xMy44MSAtMTE0LjE0LC0yNC45MiAtMjAuMTgsLTYuMzcgLTMzLjg5LC05Ljc2IC01My4xMiwtMTcuODYgLTEwLjE1LC00LjI3IC0zNC45NiwtMTkuNTYgLTQzLjM5LC0yMS44NiAtMy43NSwxMi4xMyAyLjczLDIyLjUyIC00LjgsMjkuNDF6IiBjbGFzcz0iZmlsMCIvPiYjeGE7ICAgPHBhdGggZD0iTTgyNS4zOCA2NjUuMDNjMTMuNTksMy42MyAxOS42OSw5LjM1IDMwLjc3LDE1LjA0IDE1LjIzLDcuODEgMjIuNDksMy44NSAzNy4yNiwxMC44NyA5LjMzLDQuNDQgNDEuMDksNy40IDU3LjcyLDEwLjM4IDY2LjU0LDExLjk0IDEzNS4yMywxMi42MyAyMDQuNDIsMTEuODcgMzEuMDQsLTAuMzQgNjEuMzgsLTEuOSA5MS4xLC0yLjYgMTYuOTEsLTAuNCAyOS4xNSwtMy4yMSA0NS41NywtNC4yNSA0NS41NSwtMi45IDM5LjA1LC0zLjQyIDgwLjc2LC0xMi4wMSAxNy4wOSwtMy41MiA1Ny45NSwtMTUuOTYgNzEuMTIsLTI1LjA4IDE4LjksLTEzLjEgMTIuMjcsLTI4LjM2IC0xMC45MSwtMzkuNjlsLTMyLjE2IC0xMy41OGMtMjkuMSwtNy42MyAtMTUuODYsLTcuNjcgLTM3Ljg1LC05LjE4bC0xMS42MiAtMS43N2MtMC42MSwtMC4xNyAtMS4yMywtMC40NSAtMS44MSwtMC42MiAtMTUuNTUsLTQuNTcgNy4zLDEuMSAtNS4yNywtMS42OSAtNDguMjYsLTEwLjcxIC0xMDIuMjksLTYuNjggLTE1MS4yNSwtMTQuMDVsLTczLjEzIC0wLjQ5Yy01NC45LDAuMTEgLTE2NC41Niw5LjMxIC0yMTcuMDcsMTkuNyAtOC4xNywxLjYyIC04LjM3LDMuOTggLTE1LjAxLDYuMjkgLTE1LjIzLDUuMzEgLTI1Ljg3LC0wLjEgLTUzLjksMTkuNjcgLTE2LjEzLDExLjM3IC0xMy4yLDEyLjggLTguNzIsMzEuMjF6IiBjbGFzcz0iZmlsNSIvPiYjeGE7ICAgPHBhdGggZD0iTTY2Mi44MyAxMjY5Ljk5bC0yLjc4IDMuNzVjLTIuMzUsNS4wNSAtMC41MSwxLjcyIC0zLjE2LDUuODIgLTguNzUsMTMuNTIgLTI0LjEzLDIxLjEyIC0zLjAyLDQzLjMxIDE0LjcsMTUuNDUgMzEuMDUsMjEuNjYgNDguMTksMzAuMTQgNDkuMzEsMjQuNCA4Ni40NywyNy4wMiAxMjAuNTQsMzguNGwxMDIuNjcgMTYuNTljNTAuOTEsNi4xNSAxNDEuOCwxNS4yOSAxODkuMTksMTAuOTUgLTAuNTksMTMuMzYgLTQuNjgsNDkuMjkgMi42Nyw2MC42NCAtMi4xOCwtNTcuNjMgMi41LC0xMDUuMSA2LjE3LC0xNjAuNjYgLTI5LjU4LDExLjM5IC0xNDUuNjgsLTQuMzUgLTE5My4xOSwtNy4xOSAtMjQuMDQsLTEuNDQgLTQxLjQ1LC02Ljg4IC01Ni41MiwtOC45MyAtNjEuMDcsLTguMzMgLTEwNi43LC0xOC42NSAtMTYzLjE0LC00MS4yMiAtMTEuNzUsLTQuNyAtMzkuNjgsLTIxLjUzIC00Mi4yLC0yMi4wOSAtMC40MSwxNS41MyAyLjM0LDI2LjMgLTUuNDIsMzAuNDh6IiBjbGFzcz0iZmlsMCIvPiYjeGE7ICAgPHBhdGggZD0iTTE0NTYuNTQgMTM1OC4xOGMtNS40OSw5LjgxIC00Ni40MSw1MC4wNyAtNTIuNzgsNTIuNjkgLTExLjQxLC03LjQgLTM1LjQsLTM0LjIzIC00OS45NSwtNDguMjggLTE0LjkyLC0xNC40MSAtMzMuNTMsLTM2LjQyIC00OC44MiwtNDcuNzggLTEwLjIzLDMuMzEgLTIwLjk2LDE2Ljg2IC0zMC4xNCwyNS45MiAtNy43MSw3LjYxIC0yMy40OCwyMS42OCAtMjYuMzgsMzAuMSA2LjgxLDEyLjYgMjcuMDIsMjguNzIgMzguNiw0MC42NyAxNC44NywxNS4zNCAyNS43NywyNi4wOSAzOSwzOS40NCAxMy4zNywxMy40OCAyNS40NSwyNS42NCAzOS4zNywzOS4yNCAxMC40MiwxMC4xOSAyOS4yNCwzNC4xMSA0MC44NiwzNi41MiA2LjIsLTguMTQgOC4xNSwtMTAuNTEgMTYuMzcsLTE0LjU1IDEuODUsLTYuMTggMy41MiwtNi4yNSAxMC40OCwtMTMuMiA1LC00Ljk4IDguMjMsLTguNTkgMTIuNTYsLTEyLjc0bDEzMiAtMTMxLjMxYzE0LjIyLC0xNC43IDM1Ljk2LC0zNy41OCA1Mi43OCwtNTIuNDYgLTIuMjUsLTYuNDkgLTQ4LjY2LC01My43NiAtNTcuMDMsLTU3LjYxIC0xMi4yMiw1LjY3IC0xMDUuMjEsMTA5LjAyIC0xMTYuOTEsMTEzLjM1eiIgY2xhc3M9ImZpbDYiLz4mI3hhOyAgIDxwYXRoIGQ9Ik00MDYuMTIgNTI3LjQ0YzAsMjAuNjUgNC40NywzMy4xMyAxOC40Nyw0Ny4wOCAzMS42OCwzMS41NiA5NC40LDE2Ljc2IDEwMC4zMSwtNDEuMDIgMy42NCwtMzUuNiAtNDkuODQsLTg2LjE1IC05OC4yNSwtNDUuOTkgLTkuOTksOC4yOSAtMjAuNTMsMjIuMTIgLTIwLjUzLDM5LjkzeiIgY2xhc3M9ImZpbDYiLz4mI3hhOyAgIDxwYXRoIGQ9Ik0xNzU3LjA0IDE2NzQuNzZjLTAuNywwLjM0IC0xLjc2LDAuMDMgLTIuMTMsMC45OWwtMTMuMDMgNy44NWMtMTkuMDgsMTYuOTkgLTI1LjcxLDQ3LjU3IC0xNy40Miw3MS4wOSAxMy40OCwzOC4yNCA4My4zMyw1MC43OCAxMDYuODIsMy44IDEwLjQ5LC0yMC45OCA4LjgsLTQ3LjggLTguOTQsLTY2LjY1bC0xNi45NCAtMTMuNTdjLTEwLjAzLC01LjkzIC0zMy4zNywtMTAuODIgLTQ4LjM1LC0zLjUyeiIgY2xhc3M9ImZpbDYiLz4mI3hhOyAgIDxwYXRoIGQ9Ik0xODU0Ljc5IDI0NS42NmMtMTQuMzUsMy41NyAtMjQuOTIsMTAuODggLTMzLjM2LDIzLjA1IC05LjUsMTMuNjkgLTEwLjk0LDMzLjU0IC03LjA4LDUwLjY3IDUuMzIsMjMuNTggMzUuMyw0NS44IDc0LjUxLDM2LjY4IDI1LjA5LC01LjgzIDY3Ljk2LC02MC4wNCAxMi43LC0xMDMuMzYgLTkuOTcsLTcuODIgLTMxLjg4LC0xMC43NCAtNDYuNzcsLTcuMDR6IiBjbGFzcz0iZmlsNiIvPiYjeGE7ICAgPHBhdGggZD0iTTMxMS44NCAxOTQwLjY5Yy0wLjA5LDE3LjM0IDMuOTUsMzUuNjEgMTUuNjgsNDUuNDcgNy43Nyw2LjUzIDI3LjA3LDE3LjQ1IDM3LjkxLDE3LjU5IDMyLjczLDAuNDMgNTkuMjcsLTI2Ljk1IDYwLjQxLC01MC4yIDEuNjgsLTM0LjMzIC0xNS44NywtNjIuNTYgLTUwLjM0LC02MyAtMzQuODksLTAuNDQgLTYzLjQ4LDIwLjM2IC02My42Niw1MC4xM3oiIGNsYXNzPSJmaWw2Ii8+JiN4YTsgICA8cGF0aCBkPSJNMTU1Ny43MiAxMDIzLjA3bDkwLjg1IDIxLjQ5IC0xMi43IC05LjUgLTAuNDkgLTY1LjQxYy0xNi44LDUuNzUgLTIuNSw5LjA1IC0zNi4xOSwyOS4zbC0yOS43IDE1LjdjLTAuOTYsMC40OSAtNC4zNSwyLjIzIC01LjA2LDIuNyAtNy43Miw1LjE1IC0xLjg2LC0wLjEyIC02LjcyLDUuNzJ6IiBjbGFzcz0iZmlsMSIvPiYjeGE7ICA8L2c+JiN4YTsgPC9nPiYjeGE7PC9zdmc+;" parent="1" vertex="1">
          <mxGeometry x="644" y="231" width="180" height="180" as="geometry" />
        </mxCell>
        <mxCell id="0DWsPQYIQsgb9rgHiLBQ-16" value="&lt;b&gt;ETL Architect&lt;/b&gt;&lt;br style=&quot;font-size: 24px;&quot;&gt;&lt;font style=&quot;font-size: 20px;&quot;&gt;(Extract Transform Load)&lt;/font&gt;" style="text;html=1;align=center;verticalAlign=middle;resizable=0;points=[];autosize=1;strokeColor=none;fillColor=none;fontSize=24;" parent="1" vertex="1">
          <mxGeometry x="319" y="6" width="240" height="70" as="geometry" />
        </mxCell>
      </root>
    </mxGraphModel>
  </diagram>
  <diagram id="dMO5TeMG3QbelwkejM9y" name="File Reader Components">
    <mxGraphModel dx="2074" dy="1110" grid="1" gridSize="10" guides="1" tooltips="1" connect="1" arrows="1" fold="1" page="1" pageScale="1" pageWidth="850" pageHeight="1100" math="0" shadow="0">
      <root>
        <mxCell id="0" />
        <mxCell id="1" parent="0" />
        <mxCell id="c8i3Yuy_ARoj11s8X32w-1" value="Model" style="shape=module;align=left;spacingLeft=20;align=center;verticalAlign=top;whiteSpace=wrap;html=1;" parent="1" vertex="1">
          <mxGeometry x="480" y="20" width="790" height="750" as="geometry" />
        </mxCell>
        <mxCell id="c8i3Yuy_ARoj11s8X32w-2" value="Model" style="shape=module;align=left;spacingLeft=20;align=center;verticalAlign=top;whiteSpace=wrap;html=1;" parent="1" vertex="1">
          <mxGeometry x="10" y="20" width="460" height="750" as="geometry" />
        </mxCell>
        <mxCell id="c8i3Yuy_ARoj11s8X32w-3" value="«interface»&lt;br&gt;&lt;b&gt;PixBatchFileContract&lt;/b&gt;" style="html=1;whiteSpace=wrap;" parent="1" vertex="1">
          <mxGeometry x="680" y="350" width="190" height="50" as="geometry" />
        </mxCell>
        <mxCell id="c8i3Yuy_ARoj11s8X32w-4" value="&lt;b style=&quot;border-color: var(--border-color);&quot;&gt;PixBatchCSVFile&lt;/b&gt;&lt;b style=&quot;border-color: var(--border-color);&quot;&gt;Reader&lt;/b&gt;" style="html=1;whiteSpace=wrap;flipV=1;" parent="1" vertex="1">
          <mxGeometry x="530" y="490" width="190" height="50" as="geometry" />
        </mxCell>
        <mxCell id="c8i3Yuy_ARoj11s8X32w-5" value="&lt;b style=&quot;border-color: var(--border-color);&quot;&gt;PixBatchJSONFile&lt;/b&gt;&lt;b style=&quot;border-color: var(--border-color);&quot;&gt;Reader&lt;/b&gt;" style="html=1;whiteSpace=wrap;flipV=1;" parent="1" vertex="1">
          <mxGeometry x="530" y="560" width="190" height="50" as="geometry" />
        </mxCell>
        <mxCell id="c8i3Yuy_ARoj11s8X32w-6" value="" style="endArrow=block;endSize=16;endFill=0;html=1;rounded=0;exitX=1;exitY=0.5;exitDx=0;exitDy=0;entryX=0.5;entryY=1;entryDx=0;entryDy=0;edgeStyle=orthogonalEdgeStyle;" parent="1" source="c8i3Yuy_ARoj11s8X32w-4" target="c8i3Yuy_ARoj11s8X32w-3" edge="1">
          <mxGeometry width="160" relative="1" as="geometry">
            <mxPoint x="450" y="650" as="sourcePoint" />
            <mxPoint x="610" y="650" as="targetPoint" />
          </mxGeometry>
        </mxCell>
        <mxCell id="c8i3Yuy_ARoj11s8X32w-7" value="" style="endArrow=block;endSize=16;endFill=0;html=1;rounded=0;exitX=1;exitY=0.5;exitDx=0;exitDy=0;entryX=0.5;entryY=1;entryDx=0;entryDy=0;edgeStyle=orthogonalEdgeStyle;" parent="1" source="c8i3Yuy_ARoj11s8X32w-5" target="c8i3Yuy_ARoj11s8X32w-3" edge="1">
          <mxGeometry width="160" relative="1" as="geometry">
            <mxPoint x="385" y="520" as="sourcePoint" />
            <mxPoint x="455" y="450" as="targetPoint" />
          </mxGeometry>
        </mxCell>
        <mxCell id="c8i3Yuy_ARoj11s8X32w-8" value="&lt;b style=&quot;border-color: var(--border-color);&quot;&gt;PixBatchYAMLFile&lt;/b&gt;&lt;b style=&quot;border-color: var(--border-color);&quot;&gt;Reader&lt;/b&gt;" style="html=1;whiteSpace=wrap;flipV=1;" parent="1" vertex="1">
          <mxGeometry x="530" y="630" width="190" height="50" as="geometry" />
        </mxCell>
        <mxCell id="c8i3Yuy_ARoj11s8X32w-9" value="" style="endArrow=block;endSize=16;endFill=0;html=1;rounded=0;exitX=1;exitY=0.5;exitDx=0;exitDy=0;entryX=0.5;entryY=1;entryDx=0;entryDy=0;edgeStyle=orthogonalEdgeStyle;" parent="1" source="c8i3Yuy_ARoj11s8X32w-8" target="c8i3Yuy_ARoj11s8X32w-3" edge="1">
          <mxGeometry width="160" relative="1" as="geometry">
            <mxPoint x="615" y="520" as="sourcePoint" />
            <mxPoint x="455" y="450" as="targetPoint" />
          </mxGeometry>
        </mxCell>
        <mxCell id="c8i3Yuy_ARoj11s8X32w-10" value="&lt;b style=&quot;border-color: var(--border-color);&quot;&gt;PixBatchXMLFile&lt;/b&gt;&lt;b style=&quot;border-color: var(--border-color);&quot;&gt;Reader&lt;/b&gt;" style="html=1;whiteSpace=wrap;flipV=1;" parent="1" vertex="1">
          <mxGeometry x="530" y="700" width="190" height="50" as="geometry" />
        </mxCell>
        <mxCell id="c8i3Yuy_ARoj11s8X32w-11" value="Extends" style="endArrow=block;endSize=16;endFill=0;html=1;rounded=0;exitX=1;exitY=0.5;exitDx=0;exitDy=0;entryX=0.5;entryY=1;entryDx=0;entryDy=0;edgeStyle=orthogonalEdgeStyle;labelBackgroundColor=none;" parent="1" source="c8i3Yuy_ARoj11s8X32w-10" target="c8i3Yuy_ARoj11s8X32w-3" edge="1">
          <mxGeometry x="0.6316" y="25" width="160" relative="1" as="geometry">
            <mxPoint x="825" y="520" as="sourcePoint" />
            <mxPoint x="605" y="420" as="targetPoint" />
            <mxPoint as="offset" />
            <Array as="points">
              <mxPoint x="775" y="725" />
            </Array>
          </mxGeometry>
        </mxCell>
        <mxCell id="c8i3Yuy_ARoj11s8X32w-12" value="PixBatchFilePayment" style="html=1;whiteSpace=wrap;" parent="1" vertex="1">
          <mxGeometry x="865" y="190" width="160" height="50" as="geometry" />
        </mxCell>
        <mxCell id="c8i3Yuy_ARoj11s8X32w-13" value="PixBatchFileResult" style="html=1;whiteSpace=wrap;" parent="1" vertex="1">
          <mxGeometry x="970" y="350" width="170" height="50" as="geometry" />
        </mxCell>
        <mxCell id="c8i3Yuy_ARoj11s8X32w-14" value="Contains" style="endArrow=diamondThin;endFill=1;endSize=24;html=1;rounded=0;entryX=0.5;entryY=1;entryDx=0;entryDy=0;exitX=0.25;exitY=0;exitDx=0;exitDy=0;edgeStyle=orthogonalEdgeStyle;labelBackgroundColor=none;" parent="1" source="c8i3Yuy_ARoj11s8X32w-13" target="c8i3Yuy_ARoj11s8X32w-12" edge="1">
          <mxGeometry x="-0.7895" y="30" width="160" relative="1" as="geometry">
            <mxPoint x="950" y="440" as="sourcePoint" />
            <mxPoint x="710" y="580" as="targetPoint" />
            <mxPoint as="offset" />
          </mxGeometry>
        </mxCell>
        <mxCell id="c8i3Yuy_ARoj11s8X32w-15" value="Use" style="endArrow=open;endSize=12;dashed=1;html=1;rounded=0;exitX=1;exitY=0.5;exitDx=0;exitDy=0;entryX=0;entryY=0.5;entryDx=0;entryDy=0;" parent="1" source="c8i3Yuy_ARoj11s8X32w-3" target="c8i3Yuy_ARoj11s8X32w-13" edge="1">
          <mxGeometry x="-0.3659" y="-13" width="160" relative="1" as="geometry">
            <mxPoint x="620" y="310" as="sourcePoint" />
            <mxPoint x="780" y="310" as="targetPoint" />
            <mxPoint as="offset" />
          </mxGeometry>
        </mxCell>
        <mxCell id="c8i3Yuy_ARoj11s8X32w-16" value="PixBatchFileError" style="html=1;whiteSpace=wrap;" parent="1" vertex="1">
          <mxGeometry x="1080" y="190" width="160" height="50" as="geometry" />
        </mxCell>
        <mxCell id="c8i3Yuy_ARoj11s8X32w-17" value="Contains" style="endArrow=diamondThin;endFill=1;endSize=24;html=1;rounded=0;entryX=0.5;entryY=1;entryDx=0;entryDy=0;exitX=0.75;exitY=0;exitDx=0;exitDy=0;edgeStyle=orthogonalEdgeStyle;labelBackgroundColor=none;" parent="1" source="c8i3Yuy_ARoj11s8X32w-13" target="c8i3Yuy_ARoj11s8X32w-16" edge="1">
          <mxGeometry x="-0.7898" y="-30" width="160" relative="1" as="geometry">
            <mxPoint x="890" y="410" as="sourcePoint" />
            <mxPoint x="1040" y="520" as="targetPoint" />
            <mxPoint as="offset" />
          </mxGeometry>
        </mxCell>
        <mxCell id="c8i3Yuy_ARoj11s8X32w-18" value="PixBatchFilePaymentAccount" style="html=1;whiteSpace=wrap;" parent="1" vertex="1">
          <mxGeometry x="850" y="60" width="190" height="50" as="geometry" />
        </mxCell>
        <mxCell id="c8i3Yuy_ARoj11s8X32w-19" value="Contains" style="endArrow=diamondThin;endFill=1;endSize=24;html=1;rounded=0;entryX=0.5;entryY=1;entryDx=0;entryDy=0;exitX=0.5;exitY=0;exitDx=0;exitDy=0;edgeStyle=orthogonalEdgeStyle;labelBackgroundColor=none;" parent="1" source="c8i3Yuy_ARoj11s8X32w-12" target="c8i3Yuy_ARoj11s8X32w-18" edge="1">
          <mxGeometry x="-0.7778" y="-30" width="160" relative="1" as="geometry">
            <mxPoint x="1080" y="410" as="sourcePoint" />
            <mxPoint x="1030" y="520" as="targetPoint" />
            <mxPoint as="offset" />
          </mxGeometry>
        </mxCell>
        <mxCell id="c8i3Yuy_ARoj11s8X32w-20" value="PixBatchPaymentFromFileValidator" style="html=1;whiteSpace=wrap;" parent="1" vertex="1">
          <mxGeometry x="940" y="640" width="230" height="50" as="geometry" />
        </mxCell>
        <mxCell id="c8i3Yuy_ARoj11s8X32w-21" value="«interface»&lt;br&gt;&lt;b&gt;PixBatchFileConfig&lt;/b&gt;" style="html=1;whiteSpace=wrap;" parent="1" vertex="1">
          <mxGeometry x="90" y="350" width="190" height="50" as="geometry" />
        </mxCell>
        <mxCell id="c8i3Yuy_ARoj11s8X32w-22" value="&lt;b style=&quot;border-color: var(--border-color);&quot;&gt;PixBatchCSVFile&lt;/b&gt;&lt;b style=&quot;border-color: var(--border-color);&quot;&gt;Config&lt;/b&gt;" style="html=1;whiteSpace=wrap;flipV=1;" parent="1" vertex="1">
          <mxGeometry x="235" y="490" width="190" height="50" as="geometry" />
        </mxCell>
        <mxCell id="c8i3Yuy_ARoj11s8X32w-23" value="&lt;b style=&quot;border-color: var(--border-color);&quot;&gt;PixBatchJSONFile&lt;/b&gt;&lt;b style=&quot;border-color: var(--border-color);&quot;&gt;Config&lt;/b&gt;" style="html=1;whiteSpace=wrap;flipV=1;" parent="1" vertex="1">
          <mxGeometry x="235" y="560" width="190" height="50" as="geometry" />
        </mxCell>
        <mxCell id="c8i3Yuy_ARoj11s8X32w-24" value="&lt;b style=&quot;border-color: var(--border-color);&quot;&gt;PixBatchYAMLFile&lt;/b&gt;&lt;b style=&quot;border-color: var(--border-color);&quot;&gt;Config&lt;/b&gt;" style="html=1;whiteSpace=wrap;flipV=1;" parent="1" vertex="1">
          <mxGeometry x="235" y="630" width="190" height="50" as="geometry" />
        </mxCell>
        <mxCell id="c8i3Yuy_ARoj11s8X32w-25" value="&lt;b style=&quot;border-color: var(--border-color);&quot;&gt;PixBatchXMLFile&lt;/b&gt;&lt;b style=&quot;border-color: var(--border-color);&quot;&gt;Config&lt;/b&gt;" style="html=1;whiteSpace=wrap;flipV=1;" parent="1" vertex="1">
          <mxGeometry x="235" y="700" width="190" height="50" as="geometry" />
        </mxCell>
        <mxCell id="c8i3Yuy_ARoj11s8X32w-26" value="" style="endArrow=block;endSize=16;endFill=0;html=1;rounded=0;exitX=0;exitY=0.5;exitDx=0;exitDy=0;entryX=0.5;entryY=1;entryDx=0;entryDy=0;edgeStyle=orthogonalEdgeStyle;" parent="1" source="c8i3Yuy_ARoj11s8X32w-22" target="c8i3Yuy_ARoj11s8X32w-21" edge="1">
          <mxGeometry width="160" relative="1" as="geometry">
            <mxPoint x="20" y="890" as="sourcePoint" />
            <mxPoint x="340" y="780" as="targetPoint" />
          </mxGeometry>
        </mxCell>
        <mxCell id="c8i3Yuy_ARoj11s8X32w-27" value="" style="endArrow=block;endSize=16;endFill=0;html=1;rounded=0;exitX=0;exitY=0.5;exitDx=0;exitDy=0;edgeStyle=orthogonalEdgeStyle;entryX=0.5;entryY=1;entryDx=0;entryDy=0;" parent="1" source="c8i3Yuy_ARoj11s8X32w-23" target="c8i3Yuy_ARoj11s8X32w-21" edge="1">
          <mxGeometry width="160" relative="1" as="geometry">
            <mxPoint x="-120" y="500" as="sourcePoint" />
            <mxPoint x="265" y="410" as="targetPoint" />
          </mxGeometry>
        </mxCell>
        <mxCell id="c8i3Yuy_ARoj11s8X32w-28" value="" style="endArrow=block;endSize=16;endFill=0;html=1;rounded=0;exitX=0;exitY=0.5;exitDx=0;exitDy=0;edgeStyle=orthogonalEdgeStyle;entryX=0.5;entryY=1;entryDx=0;entryDy=0;" parent="1" source="c8i3Yuy_ARoj11s8X32w-24" target="c8i3Yuy_ARoj11s8X32w-21" edge="1">
          <mxGeometry width="160" relative="1" as="geometry">
            <mxPoint x="90" y="500" as="sourcePoint" />
            <mxPoint x="395" y="410" as="targetPoint" />
          </mxGeometry>
        </mxCell>
        <mxCell id="c8i3Yuy_ARoj11s8X32w-29" value="Extends" style="endArrow=block;endSize=16;endFill=0;html=1;rounded=0;exitX=0;exitY=0.5;exitDx=0;exitDy=0;edgeStyle=orthogonalEdgeStyle;entryX=0.5;entryY=1;entryDx=0;entryDy=0;" parent="1" source="c8i3Yuy_ARoj11s8X32w-25" target="c8i3Yuy_ARoj11s8X32w-21" edge="1">
          <mxGeometry x="0.6267" y="-25" width="160" relative="1" as="geometry">
            <mxPoint x="300" y="500" as="sourcePoint" />
            <mxPoint x="195" y="390" as="targetPoint" />
            <mxPoint as="offset" />
          </mxGeometry>
        </mxCell>
        <mxCell id="c8i3Yuy_ARoj11s8X32w-30" value="" style="endArrow=open;endSize=12;dashed=1;html=1;rounded=0;exitX=0;exitY=0.5;exitDx=0;exitDy=0;entryX=1;entryY=0.5;entryDx=0;entryDy=0;" parent="1" source="c8i3Yuy_ARoj11s8X32w-4" target="c8i3Yuy_ARoj11s8X32w-22" edge="1">
          <mxGeometry x="-0.8222" y="15" width="160" relative="1" as="geometry">
            <mxPoint x="880" y="385" as="sourcePoint" />
            <mxPoint x="1040" y="385" as="targetPoint" />
            <mxPoint as="offset" />
          </mxGeometry>
        </mxCell>
        <mxCell id="c8i3Yuy_ARoj11s8X32w-31" value="" style="endArrow=open;endSize=12;dashed=1;html=1;rounded=0;exitX=0;exitY=0.5;exitDx=0;exitDy=0;entryX=1;entryY=0.5;entryDx=0;entryDy=0;" parent="1" source="c8i3Yuy_ARoj11s8X32w-5" target="c8i3Yuy_ARoj11s8X32w-23" edge="1">
          <mxGeometry x="-0.8222" y="15" width="160" relative="1" as="geometry">
            <mxPoint x="540" y="525" as="sourcePoint" />
            <mxPoint x="435" y="525" as="targetPoint" />
            <mxPoint as="offset" />
          </mxGeometry>
        </mxCell>
        <mxCell id="c8i3Yuy_ARoj11s8X32w-32" value="" style="endArrow=open;endSize=12;dashed=1;html=1;rounded=0;exitX=0;exitY=0.5;exitDx=0;exitDy=0;entryX=1;entryY=0.5;entryDx=0;entryDy=0;" parent="1" source="c8i3Yuy_ARoj11s8X32w-8" target="c8i3Yuy_ARoj11s8X32w-24" edge="1">
          <mxGeometry x="-0.8222" y="15" width="160" relative="1" as="geometry">
            <mxPoint x="540" y="595" as="sourcePoint" />
            <mxPoint x="435" y="595" as="targetPoint" />
            <mxPoint as="offset" />
          </mxGeometry>
        </mxCell>
        <mxCell id="c8i3Yuy_ARoj11s8X32w-33" value="" style="endArrow=open;endSize=12;dashed=1;html=1;rounded=0;exitX=0;exitY=0.5;exitDx=0;exitDy=0;entryX=1;entryY=0.5;entryDx=0;entryDy=0;" parent="1" source="c8i3Yuy_ARoj11s8X32w-10" target="c8i3Yuy_ARoj11s8X32w-25" edge="1">
          <mxGeometry x="-0.8222" y="15" width="160" relative="1" as="geometry">
            <mxPoint x="540" y="665" as="sourcePoint" />
            <mxPoint x="435" y="665" as="targetPoint" />
            <mxPoint as="offset" />
          </mxGeometry>
        </mxCell>
        <mxCell id="koxxg77Zm537EAh6uA5j-1" value="«interface»&lt;br&gt;&lt;b&gt;PixBatchFileContract&lt;/b&gt;" style="html=1;whiteSpace=wrap;" vertex="1" parent="1">
          <mxGeometry x="970" y="490" width="170" height="50" as="geometry" />
        </mxCell>
        <mxCell id="koxxg77Zm537EAh6uA5j-3" value="Use" style="endArrow=open;endSize=12;dashed=1;html=1;rounded=0;exitX=1;exitY=0.5;exitDx=0;exitDy=0;entryX=0;entryY=0.5;entryDx=0;entryDy=0;" edge="1" parent="1" source="c8i3Yuy_ARoj11s8X32w-3" target="koxxg77Zm537EAh6uA5j-1">
          <mxGeometry x="-0.3221" y="11" width="160" relative="1" as="geometry">
            <mxPoint x="880" y="385" as="sourcePoint" />
            <mxPoint x="980" y="305" as="targetPoint" />
            <mxPoint as="offset" />
          </mxGeometry>
        </mxCell>
        <mxCell id="koxxg77Zm537EAh6uA5j-5" value="Extends" style="endArrow=block;endSize=16;endFill=0;html=1;rounded=0;exitX=0.5;exitY=0;exitDx=0;exitDy=0;entryX=0.5;entryY=1;entryDx=0;entryDy=0;edgeStyle=orthogonalEdgeStyle;labelBackgroundColor=none;" edge="1" parent="1" source="c8i3Yuy_ARoj11s8X32w-20" target="koxxg77Zm537EAh6uA5j-1">
          <mxGeometry x="-0.4" y="25" width="160" relative="1" as="geometry">
            <mxPoint x="730" y="735" as="sourcePoint" />
            <mxPoint x="785" y="410" as="targetPoint" />
            <mxPoint as="offset" />
          </mxGeometry>
        </mxCell>
      </root>
    </mxGraphModel>
  </diagram>
</mxfile>
